<?xml version="1.0" standalone="no"?>
<!DOCTYPE svg PUBLIC "-//W3C//DTD SVG 1.1//EN" "http://www.w3.org/Graphics/SVG/1.1/DTD/svg11.dtd">
<svg version="1.1" xmlns="http://www.w3.org/2000/svg" viewBox="0 0 488.0493959105185 261.7863211035241" width="976.098791821037" height="523.5726422070481"><!-- svg-source:excalidraw --><metadata></metadata><defs><style class="style-fonts">
      </style></defs><g stroke-linecap="round"><g transform="translate(263.0759547737277 33.99047154918233) rotate(0 83.19706300724533 1.3810227719200867)"><path d="M-0.6 0.61 C27.39 0.93, 139.16 1.31, 166.99 1.85 M1.29 -0.12 C29.16 0.33, 137.89 2.52, 165.79 2.88" stroke="#f08c00" stroke-width="4" fill="none"></path></g></g><mask></mask><g stroke-linecap="round"><g transform="translate(232.02946218066808 226.85504674849142) rotate(0 84.62877328514179 -8.310660256271312)"><path d="M0.83 0.27 C29.18 -2.74, 141.52 -14.36, 169.46 -16.89 M-0.2 -0.64 C28.06 -3.01, 140.06 -13.16, 168.57 -15.82" stroke="#f08c00" stroke-width="4" fill="none"></path></g></g><mask></mask><g stroke-linecap="round" transform="translate(10 81.97141464754702) rotate(0 25.872077160882952 25.872077160882952)"><path d="M17.15 2.59 C21.94 0.33, 29.86 -0.26, 34.91 1.3 C39.96 2.85, 44.75 7.23, 47.44 11.92 C50.13 16.61, 51.86 23.74, 51.04 29.43 C50.22 35.12, 46.62 42.27, 42.52 46.05 C38.42 49.84, 32.08 52.22, 26.44 52.14 C20.81 52.06, 12.88 49.22, 8.71 45.56 C4.54 41.9, 2.43 35.66, 1.44 30.16 C0.45 24.66, -0.48 17.47, 2.77 12.56 C6.02 7.65, 17.43 2.64, 20.96 0.73 C24.48 -1.19, 23.91 0.82, 23.91 1.07 M29.25 0.43 C34.11 0.63, 41.6 4.05, 45.14 8.25 C48.68 12.46, 50.55 19.86, 50.46 25.67 C50.36 31.48, 48.15 39.07, 44.56 43.13 C40.97 47.19, 34.38 49.21, 28.91 50.01 C23.45 50.81, 16.53 50.62, 11.76 47.92 C6.99 45.23, 1.78 38.81, 0.31 33.83 C-1.16 28.85, 0.77 23.28, 2.95 18.04 C5.12 12.8, 8.58 5.22, 13.34 2.4 C18.11 -0.42, 28.49 1.26, 31.55 1.12 C34.6 0.97, 31.96 1.47, 31.7 1.55" stroke="none" stroke-width="0" fill="#a5d8ff"></path><path d="M21.48 1.19 C26.84 -0.29, 34.61 0.67, 39.25 3.33 C43.89 6, 47.45 12.19, 49.33 17.17 C51.21 22.15, 52.16 28.19, 50.5 33.2 C48.85 38.21, 43.97 44.23, 39.38 47.23 C34.78 50.24, 28.57 52.04, 22.94 51.24 C17.3 50.44, 9.44 46.47, 5.59 42.46 C1.74 38.44, -0.28 32.76, -0.15 27.15 C-0.01 21.54, 2.05 13.16, 6.4 8.79 C10.74 4.43, 21.99 2.45, 25.9 0.98 C29.81 -0.48, 29.86 -0.22, 29.86 0.02 M30.43 1.38 C35.94 1.76, 42.98 4.89, 46.6 8.9 C50.21 12.91, 52.33 19.59, 52.12 25.44 C51.9 31.29, 49.28 39.59, 45.32 44 C41.35 48.41, 33.93 51.38, 28.32 51.89 C22.7 52.41, 16.3 50.2, 11.63 47.08 C6.96 43.97, 1.88 38.3, 0.31 33.2 C-1.26 28.09, 0.25 21.68, 2.21 16.46 C4.18 11.24, 7.5 4.28, 12.11 1.87 C16.73 -0.54, 26.67 2.21, 29.89 1.99 C33.12 1.77, 31.39 0.41, 31.47 0.55" stroke="#1e1e1e" stroke-width="2" fill="none"></path></g><g stroke-linecap="round" transform="translate(209.92059624318625 10) rotate(0 25.872077160882952 25.872077160882952)"><path d="M18.52 2.07 C23.59 0.07, 30.95 -0.5, 35.83 1.34 C40.72 3.17, 45.26 8.18, 47.83 13.06 C50.41 17.93, 52.09 25.2, 51.27 30.57 C50.46 35.94, 47.11 41.88, 42.94 45.28 C38.77 48.68, 32.03 51.09, 26.26 50.98 C20.5 50.86, 12.67 48.1, 8.35 44.58 C4.03 41.07, 1.26 35.38, 0.34 29.89 C-0.58 24.4, -0.29 16.57, 2.83 11.63 C5.94 6.68, 16.17 2.06, 19.04 0.22 C21.92 -1.62, 20.18 0.05, 20.05 0.58 M29 0.4 C34.16 0.37, 38.96 3.99, 42.88 7.9 C46.8 11.8, 51.67 18.19, 52.51 23.83 C53.35 29.48, 51.31 37.5, 47.91 41.78 C44.51 46.05, 37.38 48, 32.11 49.49 C26.84 50.99, 21.25 52.99, 16.31 50.77 C11.38 48.55, 5.26 41.5, 2.5 36.17 C-0.26 30.85, -1.53 23.82, -0.26 18.83 C1.02 13.85, 5.49 9.47, 10.15 6.25 C14.8 3.02, 24.71 0.57, 27.68 -0.54 C30.65 -1.64, 27.92 -0.86, 27.96 -0.37" stroke="none" stroke-width="0" fill="#a5d8ff"></path><path d="M25.11 0.71 C30.62 0.19, 38.24 3.01, 42.58 6.22 C46.91 9.42, 50.16 14.69, 51.11 19.92 C52.05 25.14, 50.89 32.65, 48.25 37.57 C45.61 42.48, 40.2 47.25, 35.27 49.4 C30.34 51.55, 23.83 52.26, 18.68 50.46 C13.53 48.66, 7.52 43.16, 4.36 38.63 C1.2 34.09, -0.83 28.65, -0.27 23.26 C0.29 17.87, 2.97 9.98, 7.73 6.28 C12.48 2.58, 24.01 1.83, 28.26 1.04 C32.52 0.25, 33.08 1.21, 33.26 1.54 M15.4 1.52 C19.82 -1.57, 26.5 -1.33, 31.47 -0.11 C36.44 1.11, 41.91 4.48, 45.2 8.85 C48.5 13.21, 51.21 20.5, 51.24 26.06 C51.26 31.62, 49.25 38.09, 45.35 42.18 C41.45 46.27, 33.45 49.87, 27.85 50.59 C22.25 51.32, 16.29 49.14, 11.75 46.53 C7.2 43.92, 1.98 40, 0.57 34.93 C-0.85 29.86, 1.18 21.31, 3.25 16.13 C5.33 10.94, 11.07 5.76, 13 3.82 C14.94 1.89, 14.39 4.33, 14.85 4.53" stroke="#1e1e1e" stroke-width="2" fill="none"></path></g><g stroke-linecap="round" transform="translate(177.9333008442763 200.04216678175817) rotate(0 25.872077160882952 25.872077160882952)"><path d="M21.54 0.69 C26.76 -0.59, 33.21 0.55, 38.02 3.33 C42.83 6.12, 48.44 12.41, 50.42 17.39 C52.4 22.37, 51.89 28.05, 49.92 33.2 C47.94 38.35, 43.24 45.1, 38.57 48.29 C33.9 51.48, 27.33 53.36, 21.88 52.34 C16.43 51.33, 9.56 46.64, 5.86 42.2 C2.16 37.76, -0.3 31.09, -0.33 25.68 C-0.35 20.27, 1.92 14.08, 5.72 9.75 C9.53 5.41, 19.38 1.25, 22.49 -0.35 C25.61 -1.94, 24.53 -0.39, 24.44 0.16 M37.66 3.32 C42.63 5.48, 49.2 10.45, 51.29 15.51 C53.38 20.56, 52.16 28.53, 50.19 33.66 C48.23 38.8, 44.24 43.34, 39.5 46.29 C34.77 49.25, 27.25 52.07, 21.78 51.39 C16.3 50.71, 10.35 46.07, 6.65 42.22 C2.96 38.37, -0.04 33.62, -0.38 28.31 C-0.72 23, 1.04 15.11, 4.63 10.37 C8.22 5.63, 15.86 0.91, 21.19 -0.13 C26.52 -1.18, 34.02 3.31, 36.6 4.09 C39.18 4.87, 36.88 4.38, 36.69 4.56" stroke="none" stroke-width="0" fill="#a5d8ff"></path><path d="M31.68 -0.13 C36.98 0.84, 43.53 6.23, 46.82 11.04 C50.1 15.84, 51.67 23.16, 51.38 28.7 C51.08 34.23, 48.99 40.37, 45.02 44.24 C41.05 48.12, 33.1 51.41, 27.56 51.94 C22.02 52.48, 16.13 50.52, 11.78 47.46 C7.42 44.4, 3.06 39.11, 1.42 33.58 C-0.23 28.04, -0.46 19.26, 1.9 14.23 C4.26 9.21, 10.29 5.68, 15.55 3.41 C20.82 1.13, 30.45 0.89, 33.47 0.59 C36.48 0.29, 33.86 0.96, 33.65 1.62 M22.95 0.31 C28.23 -0.25, 36.2 2.64, 40.7 5.99 C45.19 9.33, 48.27 15.44, 49.91 20.38 C51.55 25.33, 52.9 30.95, 50.55 35.64 C48.19 40.34, 41.09 46.15, 35.78 48.58 C30.46 51.01, 23.96 51.7, 18.63 50.23 C13.31 48.76, 7.11 44.38, 3.81 39.76 C0.5 35.14, -1.62 27.99, -1.19 22.51 C-0.76 17.02, 2.25 10.4, 6.38 6.85 C10.51 3.3, 20.48 2.43, 23.58 1.21 C26.69 -0.02, 24.84 -0.75, 25 -0.51" stroke="#1e1e1e" stroke-width="2" fill="none"></path></g><g stroke-linecap="round" transform="translate(401.8443686366449 184.0485190823033) rotate(0 25.872077160882952 25.872077160882952)"><path d="M34.83 0.66 C39.84 2.16, 44.69 7.61, 47.51 12.56 C50.33 17.5, 52.65 24.94, 51.74 30.33 C50.82 35.72, 46.15 41.48, 42.04 44.9 C37.93 48.33, 32.62 50.8, 27.08 50.89 C21.54 50.99, 13.17 48.92, 8.8 45.49 C4.42 42.06, 1.65 35.62, 0.84 30.3 C0.03 24.98, 1.43 18.4, 3.94 13.59 C6.45 8.78, 10.7 3.35, 15.92 1.42 C21.13 -0.51, 31.53 1.76, 35.23 2.03 C38.92 2.31, 38.04 2.73, 38.08 3.06 M15.87 2.8 C20.71 0.2, 27.7 -1.29, 33.02 0.42 C38.35 2.14, 44.76 8.36, 47.8 13.08 C50.85 17.8, 52.21 23.53, 51.29 28.74 C50.36 33.95, 46.52 40.27, 42.25 44.34 C37.99 48.41, 31.04 53, 25.68 53.14 C20.33 53.27, 14.1 48.82, 10.11 45.16 C6.12 41.5, 2.93 36.27, 1.74 31.18 C0.54 26.08, 0.4 19.51, 2.94 14.57 C5.49 9.63, 14.94 3.74, 16.98 1.53 C19.02 -0.67, 14.94 1.06, 15.2 1.34" stroke="none" stroke-width="0" fill="#ffec99"></path><path d="M14.44 2.46 C18.92 -0.35, 25.98 -0.37, 31.49 0.87 C37 2.11, 44.17 5.51, 47.51 9.89 C50.84 14.27, 51.98 21.69, 51.51 27.13 C51.04 32.57, 48.52 38.47, 44.71 42.53 C40.9 46.59, 34.14 50.75, 28.65 51.48 C23.16 52.21, 16.39 49.74, 11.76 46.9 C7.12 44.05, 2.57 39.57, 0.86 34.42 C-0.85 29.27, -1.17 21.53, 1.51 16.01 C4.19 10.49, 14.2 3.6, 16.96 1.3 C19.73 -1.01, 18.16 1.57, 18.12 2.17 M14.5 2.92 C19.26 0.44, 27.91 -0.83, 33.3 0.32 C38.7 1.47, 43.62 5.18, 46.86 9.79 C50.1 14.41, 52.98 22.3, 52.72 28.01 C52.46 33.73, 49.66 40.28, 45.29 44.08 C40.93 47.88, 32.5 50.12, 26.53 50.83 C20.56 51.54, 13.82 51.47, 9.46 48.36 C5.09 45.26, 1.39 38.05, 0.35 32.21 C-0.69 26.37, 0.72 18.46, 3.2 13.35 C5.68 8.23, 13.26 3.19, 15.24 1.53 C17.22 -0.13, 14.89 2.74, 15.06 3.36" stroke="#1e1e1e" stroke-width="2" fill="none"></path></g><g stroke-linecap="round" transform="translate(426.3052415887525 13.763211223401072) rotate(0 25.872077160882952 25.872077160882952)"><path d="M35.19 1.03 C40.41 2.32, 46 7.34, 48.53 12.38 C51.07 17.41, 51.47 25.84, 50.4 31.24 C49.33 36.63, 46.11 41.28, 42.13 44.75 C38.14 48.23, 32.14 52.07, 26.49 52.08 C20.84 52.09, 12.67 48.45, 8.23 44.81 C3.8 41.17, 0.82 35.51, -0.12 30.25 C-1.07 24.98, -0.39 18.14, 2.57 13.19 C5.53 8.24, 11.66 2.46, 17.63 0.56 C23.6 -1.34, 34.58 1.19, 38.39 1.81 C42.2 2.43, 40.72 3.55, 40.49 4.26 M17.4 1.18 C22.37 -0.55, 29.37 -0.44, 34.47 1.79 C39.57 4.02, 45.32 9.83, 48.01 14.55 C50.69 19.27, 51.84 24.61, 50.57 30.12 C49.3 35.62, 44.67 43.93, 40.39 47.6 C36.12 51.28, 30.27 52.69, 24.93 52.18 C19.6 51.66, 12.54 48.09, 8.38 44.51 C4.23 40.93, 0.89 36.28, 0.01 30.68 C-0.87 25.08, -0.1 15.89, 3.12 10.92 C6.33 5.95, 16.77 2.21, 19.3 0.86 C21.82 -0.49, 18.21 2.32, 18.24 2.82" stroke="none" stroke-width="0" fill="#ffec99"></path><path d="M24.34 0.1 C29.33 -0.26, 36.52 2.69, 40.95 6.24 C45.38 9.79, 49.62 16.15, 50.94 21.39 C52.26 26.63, 51.44 32.87, 48.89 37.67 C46.33 42.47, 40.74 48.16, 35.63 50.19 C30.52 52.22, 23.41 51.55, 18.23 49.86 C13.05 48.17, 7.61 44.73, 4.56 40.05 C1.5 35.38, -0.9 27.24, -0.1 21.8 C0.7 16.36, 4.45 11.07, 9.36 7.43 C14.28 3.78, 25.55 1.03, 29.37 -0.06 C33.2 -1.16, 32.36 0.55, 32.34 0.88 M21.49 -0.32 C26.38 -1.83, 33.23 -0.87, 37.74 1.93 C42.26 4.73, 46.38 11.14, 48.59 16.49 C50.8 21.83, 52.33 28.49, 51 34 C49.67 39.51, 45.65 46.5, 40.6 49.53 C35.56 52.56, 26.24 53.39, 20.74 52.18 C15.25 50.96, 11.16 46.48, 7.62 42.22 C4.08 37.96, -0.04 31.94, -0.49 26.61 C-0.93 21.29, 1.47 14.84, 4.95 10.26 C8.42 5.68, 17.6 0.43, 20.36 -0.88 C23.13 -2.18, 21.22 1.91, 21.55 2.45" stroke="#1e1e1e" stroke-width="2" fill="none"></path></g><g stroke-linecap="round"><g transform="translate(57.040140292514366 93.26104831775046) rotate(0 75.66508889745879 -29.406697135156207)"><path d="M0.55 -0.32 C26 -10.09, 126.88 -48.69, 151.95 -58.49 M-0.62 -1.54 C24.78 -11.12, 126.16 -47.58, 151.25 -57.04" stroke="#1e1e1e" stroke-width="2" fill="none"></path></g></g><mask></mask><g stroke-linecap="round"><g transform="translate(60.80335151591555 118.66272407570827) rotate(0 61.3358211616887 43.9484263922817)"><path d="M0.86 0.99 C21.51 15.7, 102.35 73.17, 122.82 87.43 M-0.14 0.47 C20.41 14.91, 101.09 71.2, 121.64 85.77" stroke="#1e1e1e" stroke-width="2" fill="none"></path></g></g><mask></mask><g stroke-linecap="round"><g transform="translate(233.91106779236856 60.332950112990375) rotate(0 -13.560348735480659 70.14309463553361)"><path d="M-0.9 1.13 C-5.39 24.36, -23.39 116.48, -27.95 139.61 M0.83 0.68 C-3.19 23.51, -21.13 114.8, -25.58 137.68" stroke="#1e1e1e" stroke-width="2" fill="none"></path></g></g><mask></mask><g stroke-linecap="round"><g transform="translate(451.23651594378515 64.09616133639153) rotate(0 -10.811534561818519 58.81566530263556)"><path d="M0.9 -0.68 C-2.93 18.9, -17.94 98.78, -21.92 118.32 M-0.09 1.57 C-4.1 20.74, -18.54 97.28, -22.52 116.57" stroke="#1e1e1e" stroke-width="2" fill="none"></path></g></g><mask></mask></svg>