<?xml version="1.0" encoding="UTF-8" standalone="no"?>
<!-- Created with Inkscape (http://www.inkscape.org/) -->

<svg
   width="192.62619mm"
   height="35.214752mm"
   viewBox="0 0 192.62619 35.214752"
   version="1.1"
   id="svg1"
   inkscape:version="1.4.3 (0d15f75042, 2025-12-25)"
   sodipodi:docname="Gasolineras2.svg"
   xml:space="preserve"
   xmlns:inkscape="http://www.inkscape.org/namespaces/inkscape"
   xmlns:sodipodi="http://sodipodi.sourceforge.net/DTD/sodipodi-0.dtd"
   xmlns="http://www.w3.org/2000/svg"
   xmlns:svg="http://www.w3.org/2000/svg"><sodipodi:namedview
     id="namedview1"
     pagecolor="#ffffff"
     bordercolor="#000000"
     borderopacity="0.25"
     inkscape:showpageshadow="2"
     inkscape:pageopacity="0.0"
     inkscape:pagecheckerboard="0"
     inkscape:deskcolor="#d1d1d1"
     inkscape:document-units="mm"
     inkscape:zoom="1.4699074"
     inkscape:cx="325.19055"
     inkscape:cy="22.110236"
     inkscape:window-width="1920"
     inkscape:window-height="1011"
     inkscape:window-x="0"
     inkscape:window-y="0"
     inkscape:window-maximized="1"
     inkscape:current-layer="layer1" /><defs
     id="defs1" /><g
     inkscape:label="Capa 1"
     inkscape:groupmode="layer"
     id="layer1"
     transform="translate(-8.8887004,-4.3629188)"><path
       style="fill:none;stroke:#000000;stroke-width:0.336;stroke-dasharray:none"
       d="M 16.56,30.599999 C 28.98,18.9 44.546166,13.732365 71.279999,12.96 94.825428,12.279751 113.58,31.14 142.92,38.34 c 29.34,7.200001 51.3,-25.38 51.3,-25.38"
       id="path1"
       sodipodi:nodetypes="cssc" /><circle
       style="fill:#e59559;fill-opacity:1;stroke:#000000;stroke-width:0.336;stroke-dasharray:none"
       id="path2"
       cx="16.379999"
       cy="30.42"
       r="2.3399999" /><circle
       style="fill:#e59559;fill-opacity:1;stroke:#000000;stroke-width:0.336;stroke-dasharray:none"
       id="path2-3"
       cx="193.8555"
       cy="13.198833"
       r="2.3399999" /><text
       xml:space="preserve"
       style="font-weight:600;font-size:4.23333px;font-family:'Fira Code';-inkscape-font-specification:'Fira Code Semi-Bold';text-align:center;writing-mode:lr-tb;direction:ltr;text-anchor:middle;fill:#e59559;fill-opacity:1;stroke:#000000;stroke-width:0.336;stroke-dasharray:none"
       x="15.48"
       y="38.160004"
       id="text2"><tspan
         sodipodi:role="line"
         id="tspan2"
         style="font-style:normal;font-variant:normal;font-weight:600;font-stretch:normal;font-size:4.23333px;font-family:Raleway;-inkscape-font-specification:'Raleway Semi-Bold';fill:#000000;fill-opacity:1;stroke:none;stroke-width:0.336"
         x="15.48"
         y="38.160004">Origen</tspan></text><text
       xml:space="preserve"
       style="font-weight:600;font-size:4.23333px;font-family:'Fira Code';-inkscape-font-specification:'Fira Code Semi-Bold';text-align:center;writing-mode:lr-tb;direction:ltr;text-anchor:middle;fill:#e59559;fill-opacity:1;stroke:#000000;stroke-width:0.336;stroke-dasharray:none"
       x="194.01131"
       y="7.4532475"
       id="text2-1"><tspan
         sodipodi:role="line"
         id="tspan2-9"
         style="font-style:normal;font-variant:normal;font-weight:600;font-stretch:normal;font-size:4.23333px;font-family:Raleway;-inkscape-font-specification:'Raleway Semi-Bold';fill:#000000;fill-opacity:1;stroke:none;stroke-width:0.336"
         x="194.01131"
         y="7.4532475">Destino</tspan></text><circle
       style="fill:#000000;fill-opacity:1;stroke:none;stroke-width:0.336;stroke-dasharray:none"
       id="path3"
       cx="42.299995"
       cy="16.469997"
       r="1.35" /><circle
       style="fill:#ffc000;fill-opacity:1;stroke:#000000;stroke-width:0.336;stroke-dasharray:none;stroke-opacity:1"
       id="path3-5"
       cx="56.735832"
       cy="14.023332"
       r="1.35" /><circle
       style="fill:#000000;fill-opacity:1;stroke:none;stroke-width:0.336;stroke-dasharray:none"
       id="path3-0"
       cx="86.334167"
       cy="15.288753"
       r="1.35" /><circle
       style="fill:#000000;fill-opacity:1;stroke:none;stroke-width:0.336;stroke-dasharray:none"
       id="path3-6"
       cx="105.055"
       cy="22.797083"
       r="1.35" /><circle
       style="fill:#000000;fill-opacity:1;stroke:none;stroke-width:0.336;stroke-dasharray:none"
       id="path3-3"
       cx="137.47166"
       cy="36.673336"
       r="1.35" /><circle
       style="fill:#000000;fill-opacity:1;stroke:none;stroke-width:0.336;stroke-dasharray:none"
       id="path3-07"
       cx="173.06584"
       cy="32.938747"
       r="1.35" /><circle
       style="fill:#000000;fill-opacity:1;stroke:none;stroke-width:0.336;stroke-dasharray:none"
       id="path3-4"
       cx="180.82748"
       cy="27.358749"
       r="1.35" /><text
       xml:space="preserve"
       style="font-style:normal;font-variant:normal;font-weight:600;font-stretch:normal;font-size:4.23333px;font-family:Raleway;-inkscape-font-specification:'Raleway Semi-Bold';text-align:center;writing-mode:lr-tb;direction:ltr;text-anchor:middle;fill:#000000;fill-opacity:1;stroke:none;stroke-width:0.336;stroke-dasharray:none"
       x="64.403282"
       y="52.184479"
       id="text3"><tspan
         sodipodi:role="line"
         id="tspan3"
         style="stroke-width:0.336"
         x="64.403282"
         y="52.184479" /></text><g
       id="g11-9"
       transform="matrix(0.05198639,0,0,0.05198639,53.94059,5.3620227)">
	<path
   style="fill:none;stroke:#616161;stroke-width:6;stroke-miterlimit:10"
   d="m 79.69,62.69 c 7.36,15.65 30.45,32.94 32.41,42.77 1.34,6.7 -3.33,12.26 -9.19,11.2 -6.6,-1.19 -6.91,-10.69 -4.31,-17.99 6.54,-18.38 8.79,-28.99 6.53,-38.95 l -1.08,-4.68"
   id="path1-1-2" />
	<g
   id="g7-6">
		<g
   id="g2-6">
			<path
   style="fill:#82aec0"
   d="m 80.82,56.1 c -1.87,0 -1.14,-1.61 -1.14,-3.6 V 25.92 c 0,-1.99 -0.73,-3.6 1.14,-3.6 1.87,0 5.12,1.11 5.12,3.6 0,2.49 0,24.59 0,26.58 0,1.99 -3.25,3.6 -5.12,3.6 z"
   id="path2-4-4" />
		</g>
		<path
   style="fill:#f44336"
   d="M 82.1,113.93 V 27.96 C 82.1,14.73 71.37,4 58.14,4 H 34.96 C 21.72,4 11,14.73 11,27.96 v 85.97 c -3.3,0.97 -5.71,4.02 -5.71,7.63 v 0.3 c 0,1.18 0.96,2.14 2.14,2.14 h 7.02 64.2 7.02 c 1.18,0 2.14,-0.96 2.14,-2.14 v -0.3 c 0,-3.62 -2.41,-6.66 -5.71,-7.63 z"
   id="path3-9-9" />
		<g
   id="g4-5">
			<path
   style="fill:#ffffff"
   d="M 65.68,56.57 H 26.93 c -1.77,0 -3.21,-1.44 -3.21,-3.21 V 22.42 c 0,-1.77 1.44,-3.21 3.21,-3.21 h 38.75 c 1.77,0 3.21,1.44 3.21,3.21 v 30.93 c 0,1.78 -1.43,3.22 -3.21,3.22 z"
   id="path4-0" />
		</g>
		<rect
   x="32.220001"
   y="29.6"
   style="fill:#9e9e9e"
   width="29.309999"
   height="7.6399999"
   id="rect4-4" />
		<rect
   x="32.220001"
   y="41.360001"
   style="fill:#9e9e9e"
   width="29.309999"
   height="7.6399999"
   id="rect5-8" />
		<path
   style="fill:#82aec0"
   d="m 24.13,47 c -0.05,0.52 -0.81,0.52 -0.86,0.01 -0.74,-7.27 -1.16,-14.55 -1.48,-21.82 -0.47,-4.02 2.63,-7.49 6.78,-7.21 11.79,-0.35 23.64,-0.35 35.43,-0.01 4.14,-0.28 7.27,3.19 6.79,7.21 -0.32,7.28 -0.75,14.57 -1.49,21.85 -0.05,0.52 -0.81,0.52 -0.86,0 C 67.67,39.5 67.25,31.96 66.91,24.44 66.9,24.28 66.86,24.13 66.82,23.99 66.57,23.09 65.7,22.34 64.8,22.43 c -0.48,0.02 -36.58,0.01 -37.04,-0.01 -0.9,-0.09 -1.77,0.66 -2.02,1.57 -0.04,0.15 -0.07,0.3 -0.09,0.45 C 25.31,31.95 24.9,39.48 24.13,47 Z"
   id="path5-7" />
		<ellipse
   style="fill:#f5f5f5"
   cx="46.310001"
   cy="84.080002"
   rx="16.790001"
   ry="17.889999"
   id="ellipse5-1" />
		<path
   style="fill:#212121"
   d="m 38.87,86.6 c 0,-4.37 7.43,-12.95 7.43,-12.95 0,0 7.43,8.58 7.43,12.95 0,4.37 -3.33,7.92 -7.43,7.92 -4.1,0 -7.43,-3.55 -7.43,-7.92 z"
   id="path6-7" />
		<rect
   x="11"
   y="110.03"
   style="fill:#c62828"
   width="71.099998"
   height="3.8900001"
   id="rect6-2" />
		<path
   style="fill:none;stroke:#ff7555;stroke-width:5;stroke-linecap:round;stroke-miterlimit:10"
   d="m 17.45,22.04 c 0.88,-4.96 5.2,-11.1 14.13,-11.1"
   id="path7-7" />
	</g>
	<g
   id="g10-2">
		
			<rect
   x="101.69"
   y="55.91"
   transform="matrix(-0.9692,0.2462,-0.2462,-0.9692,220.382,88.132)"
   style="fill:#9e9e9e"
   width="5.98"
   height="3.8800001"
   id="rect7-2" />
		<g
   id="g8-6">
			<path
   style="fill:#9e9e9e"
   d="m 104.77,29.85 6.73,-12.2 c 0.5,-0.9 1.16,-1.7 1.95,-2.35 2.46,-2.02 7.97,-6.58 9.13,-7.84 1.51,-1.64 -1.29,-5.1 -3.28,-3.73 -1.56,1.08 -7.3,6.12 -9.69,8.23 -0.7,0.61 -1.28,1.34 -1.73,2.16 l -7.07,12.82 z"
   id="path8-1" />
		</g>
		<path
   style="fill:#757575"
   d="m 100.66,37.73 9.42,-1.95 3.32,11.82 c 0.53,2.08 -0.43,2.68 -2.27,3.15 l -6.66,1.85 m -5.22,-15.27 8.05,18.35 7.62,-2.13 c 3.19,-0.93 3.1,-3.53 2.61,-5.46 l -3.93,-14.4 z"
   id="path9-0" />
		<path
   style="fill:#f44336"
   d="m 103.82,21.12 4.87,2.74 c 0.65,0.36 0.89,1.17 0.56,1.83 l -0.97,1.94 2.25,1.7 c 1.57,1.18 2.68,2.86 3.16,4.77 l 0.27,1.05 -6.96,1.79 c -1.46,0.39 -2.33,1.88 -1.95,3.34 l 3.21,12.63 c 0.32,1.36 0.4,2.48 -0.97,2.78 l -5.55,1.38 c -1.32,0.29 -2.63,-0.52 -2.96,-1.83 L 94.9,39.95 c -1.74,-6.85 0.94,-9.17 1.5,-10.3 0.56,-1.13 3.5,-4.21 3.5,-4.21 l 2.01,-3.76 c 0.37,-0.69 1.23,-0.94 1.91,-0.56 z"
   id="path10-6" />
		
			<line
   style="fill:none;stroke:#ff7555;stroke-width:4;stroke-linecap:round;stroke-miterlimit:10"
   x1="106.8"
   y1="29.34"
   x2="101.97"
   y2="26.92"
   id="line10-1" />
	</g>
</g><g
       id="g11-0"
       transform="matrix(0.05198639,0,0,0.05198639,83.923534,6.6287268)">
	<path
   style="fill:none;stroke:#616161;stroke-width:6;stroke-miterlimit:10"
   d="m 79.69,62.69 c 7.36,15.65 30.45,32.94 32.41,42.77 1.34,6.7 -3.33,12.26 -9.19,11.2 -6.6,-1.19 -6.91,-10.69 -4.31,-17.99 6.54,-18.38 8.79,-28.99 6.53,-38.95 l -1.08,-4.68"
   id="path1-1-9" />
	<g
   id="g7-1">
		<g
   id="g2-7">
			<path
   style="fill:#82aec0"
   d="m 80.82,56.1 c -1.87,0 -1.14,-1.61 -1.14,-3.6 V 25.92 c 0,-1.99 -0.73,-3.6 1.14,-3.6 1.87,0 5.12,1.11 5.12,3.6 0,2.49 0,24.59 0,26.58 0,1.99 -3.25,3.6 -5.12,3.6 z"
   id="path2-4-7" />
		</g>
		<path
   style="fill:#f44336"
   d="M 82.1,113.93 V 27.96 C 82.1,14.73 71.37,4 58.14,4 H 34.96 C 21.72,4 11,14.73 11,27.96 v 85.97 c -3.3,0.97 -5.71,4.02 -5.71,7.63 v 0.3 c 0,1.18 0.96,2.14 2.14,2.14 h 7.02 64.2 7.02 c 1.18,0 2.14,-0.96 2.14,-2.14 v -0.3 c 0,-3.62 -2.41,-6.66 -5.71,-7.63 z"
   id="path3-9-1" />
		<g
   id="g4-1">
			<path
   style="fill:#ffffff"
   d="M 65.68,56.57 H 26.93 c -1.77,0 -3.21,-1.44 -3.21,-3.21 V 22.42 c 0,-1.77 1.44,-3.21 3.21,-3.21 h 38.75 c 1.77,0 3.21,1.44 3.21,3.21 v 30.93 c 0,1.78 -1.43,3.22 -3.21,3.22 z"
   id="path4-5" />
		</g>
		<rect
   x="32.220001"
   y="29.6"
   style="fill:#9e9e9e"
   width="29.309999"
   height="7.6399999"
   id="rect4-9" />
		<rect
   x="32.220001"
   y="41.360001"
   style="fill:#9e9e9e"
   width="29.309999"
   height="7.6399999"
   id="rect5-7" />
		<path
   style="fill:#82aec0"
   d="m 24.13,47 c -0.05,0.52 -0.81,0.52 -0.86,0.01 -0.74,-7.27 -1.16,-14.55 -1.48,-21.82 -0.47,-4.02 2.63,-7.49 6.78,-7.21 11.79,-0.35 23.64,-0.35 35.43,-0.01 4.14,-0.28 7.27,3.19 6.79,7.21 -0.32,7.28 -0.75,14.57 -1.49,21.85 -0.05,0.52 -0.81,0.52 -0.86,0 C 67.67,39.5 67.25,31.96 66.91,24.44 66.9,24.28 66.86,24.13 66.82,23.99 66.57,23.09 65.7,22.34 64.8,22.43 c -0.48,0.02 -36.58,0.01 -37.04,-0.01 -0.9,-0.09 -1.77,0.66 -2.02,1.57 -0.04,0.15 -0.07,0.3 -0.09,0.45 C 25.31,31.95 24.9,39.48 24.13,47 Z"
   id="path5-76" />
		<ellipse
   style="fill:#f5f5f5"
   cx="46.310001"
   cy="84.080002"
   rx="16.790001"
   ry="17.889999"
   id="ellipse5-7" />
		<path
   style="fill:#212121"
   d="m 38.87,86.6 c 0,-4.37 7.43,-12.95 7.43,-12.95 0,0 7.43,8.58 7.43,12.95 0,4.37 -3.33,7.92 -7.43,7.92 -4.1,0 -7.43,-3.55 -7.43,-7.92 z"
   id="path6-3" />
		<rect
   x="11"
   y="110.03"
   style="fill:#c62828"
   width="71.099998"
   height="3.8900001"
   id="rect6-6" />
		<path
   style="fill:none;stroke:#ff7555;stroke-width:5;stroke-linecap:round;stroke-miterlimit:10"
   d="m 17.45,22.04 c 0.88,-4.96 5.2,-11.1 14.13,-11.1"
   id="path7-5" />
	</g>
	<g
   id="g10-6">
		
			<rect
   x="101.69"
   y="55.91"
   transform="matrix(-0.9692,0.2462,-0.2462,-0.9692,220.382,88.132)"
   style="fill:#9e9e9e"
   width="5.98"
   height="3.8800001"
   id="rect7-3" />
		<g
   id="g8-9">
			<path
   style="fill:#9e9e9e"
   d="m 104.77,29.85 6.73,-12.2 c 0.5,-0.9 1.16,-1.7 1.95,-2.35 2.46,-2.02 7.97,-6.58 9.13,-7.84 1.51,-1.64 -1.29,-5.1 -3.28,-3.73 -1.56,1.08 -7.3,6.12 -9.69,8.23 -0.7,0.61 -1.28,1.34 -1.73,2.16 l -7.07,12.82 z"
   id="path8-4" />
		</g>
		<path
   style="fill:#757575"
   d="m 100.66,37.73 9.42,-1.95 3.32,11.82 c 0.53,2.08 -0.43,2.68 -2.27,3.15 l -6.66,1.85 m -5.22,-15.27 8.05,18.35 7.62,-2.13 c 3.19,-0.93 3.1,-3.53 2.61,-5.46 l -3.93,-14.4 z"
   id="path9-8" />
		<path
   style="fill:#f44336"
   d="m 103.82,21.12 4.87,2.74 c 0.65,0.36 0.89,1.17 0.56,1.83 l -0.97,1.94 2.25,1.7 c 1.57,1.18 2.68,2.86 3.16,4.77 l 0.27,1.05 -6.96,1.79 c -1.46,0.39 -2.33,1.88 -1.95,3.34 l 3.21,12.63 c 0.32,1.36 0.4,2.48 -0.97,2.78 l -5.55,1.38 c -1.32,0.29 -2.63,-0.52 -2.96,-1.83 L 94.9,39.95 c -1.74,-6.85 0.94,-9.17 1.5,-10.3 0.56,-1.13 3.5,-4.21 3.5,-4.21 l 2.01,-3.76 c 0.37,-0.69 1.23,-0.94 1.91,-0.56 z"
   id="path10-1" />
		
			<line
   style="fill:none;stroke:#ff7555;stroke-width:4;stroke-linecap:round;stroke-miterlimit:10"
   x1="106.8"
   y1="29.34"
   x2="101.97"
   y2="26.92"
   id="line10-2" />
	</g>
</g><g
       id="g11-8"
       transform="matrix(0.05198639,0,0,0.05198639,102.57469,13.293435)">
	<path
   style="fill:none;stroke:#616161;stroke-width:6;stroke-miterlimit:10"
   d="m 79.69,62.69 c 7.36,15.65 30.45,32.94 32.41,42.77 1.34,6.7 -3.33,12.26 -9.19,11.2 -6.6,-1.19 -6.91,-10.69 -4.31,-17.99 6.54,-18.38 8.79,-28.99 6.53,-38.95 l -1.08,-4.68"
   id="path1-1-8" />
	<g
   id="g7-5">
		<g
   id="g2-0">
			<path
   style="fill:#82aec0"
   d="m 80.82,56.1 c -1.87,0 -1.14,-1.61 -1.14,-3.6 V 25.92 c 0,-1.99 -0.73,-3.6 1.14,-3.6 1.87,0 5.12,1.11 5.12,3.6 0,2.49 0,24.59 0,26.58 0,1.99 -3.25,3.6 -5.12,3.6 z"
   id="path2-4-9" />
		</g>
		<path
   style="fill:#f44336"
   d="M 82.1,113.93 V 27.96 C 82.1,14.73 71.37,4 58.14,4 H 34.96 C 21.72,4 11,14.73 11,27.96 v 85.97 c -3.3,0.97 -5.71,4.02 -5.71,7.63 v 0.3 c 0,1.18 0.96,2.14 2.14,2.14 h 7.02 64.2 7.02 c 1.18,0 2.14,-0.96 2.14,-2.14 v -0.3 c 0,-3.62 -2.41,-6.66 -5.71,-7.63 z"
   id="path3-9-6" />
		<g
   id="g4-3">
			<path
   style="fill:#ffffff"
   d="M 65.68,56.57 H 26.93 c -1.77,0 -3.21,-1.44 -3.21,-3.21 V 22.42 c 0,-1.77 1.44,-3.21 3.21,-3.21 h 38.75 c 1.77,0 3.21,1.44 3.21,3.21 v 30.93 c 0,1.78 -1.43,3.22 -3.21,3.22 z"
   id="path4-8" />
		</g>
		<rect
   x="32.220001"
   y="29.6"
   style="fill:#9e9e9e"
   width="29.309999"
   height="7.6399999"
   id="rect4-5" />
		<rect
   x="32.220001"
   y="41.360001"
   style="fill:#9e9e9e"
   width="29.309999"
   height="7.6399999"
   id="rect5-6" />
		<path
   style="fill:#82aec0"
   d="m 24.13,47 c -0.05,0.52 -0.81,0.52 -0.86,0.01 -0.74,-7.27 -1.16,-14.55 -1.48,-21.82 -0.47,-4.02 2.63,-7.49 6.78,-7.21 11.79,-0.35 23.64,-0.35 35.43,-0.01 4.14,-0.28 7.27,3.19 6.79,7.21 -0.32,7.28 -0.75,14.57 -1.49,21.85 -0.05,0.52 -0.81,0.52 -0.86,0 C 67.67,39.5 67.25,31.96 66.91,24.44 66.9,24.28 66.86,24.13 66.82,23.99 66.57,23.09 65.7,22.34 64.8,22.43 c -0.48,0.02 -36.58,0.01 -37.04,-0.01 -0.9,-0.09 -1.77,0.66 -2.02,1.57 -0.04,0.15 -0.07,0.3 -0.09,0.45 C 25.31,31.95 24.9,39.48 24.13,47 Z"
   id="path5-1" />
		<ellipse
   style="fill:#f5f5f5"
   cx="46.310001"
   cy="84.080002"
   rx="16.790001"
   ry="17.889999"
   id="ellipse5-15" />
		<path
   style="fill:#212121"
   d="m 38.87,86.6 c 0,-4.37 7.43,-12.95 7.43,-12.95 0,0 7.43,8.58 7.43,12.95 0,4.37 -3.33,7.92 -7.43,7.92 -4.1,0 -7.43,-3.55 -7.43,-7.92 z"
   id="path6-9" />
		<rect
   x="11"
   y="110.03"
   style="fill:#c62828"
   width="71.099998"
   height="3.8900001"
   id="rect6-8" />
		<path
   style="fill:none;stroke:#ff7555;stroke-width:5;stroke-linecap:round;stroke-miterlimit:10"
   d="m 17.45,22.04 c 0.88,-4.96 5.2,-11.1 14.13,-11.1"
   id="path7-4" />
	</g>
	<g
   id="g10-8">
		
			<rect
   x="101.69"
   y="55.91"
   transform="matrix(-0.9692,0.2462,-0.2462,-0.9692,220.382,88.132)"
   style="fill:#9e9e9e"
   width="5.98"
   height="3.8800001"
   id="rect7-1" />
		<g
   id="g8-0">
			<path
   style="fill:#9e9e9e"
   d="m 104.77,29.85 6.73,-12.2 c 0.5,-0.9 1.16,-1.7 1.95,-2.35 2.46,-2.02 7.97,-6.58 9.13,-7.84 1.51,-1.64 -1.29,-5.1 -3.28,-3.73 -1.56,1.08 -7.3,6.12 -9.69,8.23 -0.7,0.61 -1.28,1.34 -1.73,2.16 l -7.07,12.82 z"
   id="path8-3" />
		</g>
		<path
   style="fill:#757575"
   d="m 100.66,37.73 9.42,-1.95 3.32,11.82 c 0.53,2.08 -0.43,2.68 -2.27,3.15 l -6.66,1.85 m -5.22,-15.27 8.05,18.35 7.62,-2.13 c 3.19,-0.93 3.1,-3.53 2.61,-5.46 l -3.93,-14.4 z"
   id="path9-04" />
		<path
   style="fill:#f44336"
   d="m 103.82,21.12 4.87,2.74 c 0.65,0.36 0.89,1.17 0.56,1.83 l -0.97,1.94 2.25,1.7 c 1.57,1.18 2.68,2.86 3.16,4.77 l 0.27,1.05 -6.96,1.79 c -1.46,0.39 -2.33,1.88 -1.95,3.34 l 3.21,12.63 c 0.32,1.36 0.4,2.48 -0.97,2.78 l -5.55,1.38 c -1.32,0.29 -2.63,-0.52 -2.96,-1.83 L 94.9,39.95 c -1.74,-6.85 0.94,-9.17 1.5,-10.3 0.56,-1.13 3.5,-4.21 3.5,-4.21 l 2.01,-3.76 c 0.37,-0.69 1.23,-0.94 1.91,-0.56 z"
   id="path10-4" />
		
			<line
   style="fill:none;stroke:#ff7555;stroke-width:4;stroke-linecap:round;stroke-miterlimit:10"
   x1="106.8"
   y1="29.34"
   x2="101.97"
   y2="26.92"
   id="line10-4" />
	</g>
</g><g
       id="g11-1"
       transform="matrix(0.05198639,0,0,0.05198639,109.35271,16.806237)">
	<path
   style="fill:none;stroke:#616161;stroke-width:6;stroke-miterlimit:10"
   d="m 79.69,62.69 c 7.36,15.65 30.45,32.94 32.41,42.77 1.34,6.7 -3.33,12.26 -9.19,11.2 -6.6,-1.19 -6.91,-10.69 -4.31,-17.99 6.54,-18.38 8.79,-28.99 6.53,-38.95 l -1.08,-4.68"
   id="path1-1-7" />
	<g
   id="g7-59">
		<g
   id="g2-62">
			<path
   style="fill:#82aec0"
   d="m 80.82,56.1 c -1.87,0 -1.14,-1.61 -1.14,-3.6 V 25.92 c 0,-1.99 -0.73,-3.6 1.14,-3.6 1.87,0 5.12,1.11 5.12,3.6 0,2.49 0,24.59 0,26.58 0,1.99 -3.25,3.6 -5.12,3.6 z"
   id="path2-4-1" />
		</g>
		<path
   style="fill:#f44336"
   d="M 82.1,113.93 V 27.96 C 82.1,14.73 71.37,4 58.14,4 H 34.96 C 21.72,4 11,14.73 11,27.96 v 85.97 c -3.3,0.97 -5.71,4.02 -5.71,7.63 v 0.3 c 0,1.18 0.96,2.14 2.14,2.14 h 7.02 64.2 7.02 c 1.18,0 2.14,-0.96 2.14,-2.14 v -0.3 c 0,-3.62 -2.41,-6.66 -5.71,-7.63 z"
   id="path3-9-7" />
		<g
   id="g4-8">
			<path
   style="fill:#ffffff"
   d="M 65.68,56.57 H 26.93 c -1.77,0 -3.21,-1.44 -3.21,-3.21 V 22.42 c 0,-1.77 1.44,-3.21 3.21,-3.21 h 38.75 c 1.77,0 3.21,1.44 3.21,3.21 v 30.93 c 0,1.78 -1.43,3.22 -3.21,3.22 z"
   id="path4-57" />
		</g>
		<rect
   x="32.220001"
   y="29.6"
   style="fill:#9e9e9e"
   width="29.309999"
   height="7.6399999"
   id="rect4-41" />
		<rect
   x="32.220001"
   y="41.360001"
   style="fill:#9e9e9e"
   width="29.309999"
   height="7.6399999"
   id="rect5-85" />
		<path
   style="fill:#82aec0"
   d="m 24.13,47 c -0.05,0.52 -0.81,0.52 -0.86,0.01 -0.74,-7.27 -1.16,-14.55 -1.48,-21.82 -0.47,-4.02 2.63,-7.49 6.78,-7.21 11.79,-0.35 23.64,-0.35 35.43,-0.01 4.14,-0.28 7.27,3.19 6.79,7.21 -0.32,7.28 -0.75,14.57 -1.49,21.85 -0.05,0.52 -0.81,0.52 -0.86,0 C 67.67,39.5 67.25,31.96 66.91,24.44 66.9,24.28 66.86,24.13 66.82,23.99 66.57,23.09 65.7,22.34 64.8,22.43 c -0.48,0.02 -36.58,0.01 -37.04,-0.01 -0.9,-0.09 -1.77,0.66 -2.02,1.57 -0.04,0.15 -0.07,0.3 -0.09,0.45 C 25.31,31.95 24.9,39.48 24.13,47 Z"
   id="path5-9" />
		<ellipse
   style="fill:#f5f5f5"
   cx="46.310001"
   cy="84.080002"
   rx="16.790001"
   ry="17.889999"
   id="ellipse5-75" />
		<path
   style="fill:#212121"
   d="m 38.87,86.6 c 0,-4.37 7.43,-12.95 7.43,-12.95 0,0 7.43,8.58 7.43,12.95 0,4.37 -3.33,7.92 -7.43,7.92 -4.1,0 -7.43,-3.55 -7.43,-7.92 z"
   id="path6-38" />
		<rect
   x="11"
   y="110.03"
   style="fill:#c62828"
   width="71.099998"
   height="3.8900001"
   id="rect6-83" />
		<path
   style="fill:none;stroke:#ff7555;stroke-width:5;stroke-linecap:round;stroke-miterlimit:10"
   d="m 17.45,22.04 c 0.88,-4.96 5.2,-11.1 14.13,-11.1"
   id="path7-1" />
	</g>
	<g
   id="g10-89">
		
			<rect
   x="101.69"
   y="55.91"
   transform="matrix(-0.9692,0.2462,-0.2462,-0.9692,220.382,88.132)"
   style="fill:#9e9e9e"
   width="5.98"
   height="3.8800001"
   id="rect7-6" />
		<g
   id="g8-4">
			<path
   style="fill:#9e9e9e"
   d="m 104.77,29.85 6.73,-12.2 c 0.5,-0.9 1.16,-1.7 1.95,-2.35 2.46,-2.02 7.97,-6.58 9.13,-7.84 1.51,-1.64 -1.29,-5.1 -3.28,-3.73 -1.56,1.08 -7.3,6.12 -9.69,8.23 -0.7,0.61 -1.28,1.34 -1.73,2.16 l -7.07,12.82 z"
   id="path8-33" />
		</g>
		<path
   style="fill:#757575"
   d="m 100.66,37.73 9.42,-1.95 3.32,11.82 c 0.53,2.08 -0.43,2.68 -2.27,3.15 l -6.66,1.85 m -5.22,-15.27 8.05,18.35 7.62,-2.13 c 3.19,-0.93 3.1,-3.53 2.61,-5.46 l -3.93,-14.4 z"
   id="path9-3" />
		<path
   style="fill:#f44336"
   d="m 103.82,21.12 4.87,2.74 c 0.65,0.36 0.89,1.17 0.56,1.83 l -0.97,1.94 2.25,1.7 c 1.57,1.18 2.68,2.86 3.16,4.77 l 0.27,1.05 -6.96,1.79 c -1.46,0.39 -2.33,1.88 -1.95,3.34 l 3.21,12.63 c 0.32,1.36 0.4,2.48 -0.97,2.78 l -5.55,1.38 c -1.32,0.29 -2.63,-0.52 -2.96,-1.83 L 94.9,39.95 c -1.74,-6.85 0.94,-9.17 1.5,-10.3 0.56,-1.13 3.5,-4.21 3.5,-4.21 l 2.01,-3.76 c 0.37,-0.69 1.23,-0.94 1.91,-0.56 z"
   id="path10-8" />
		
			<line
   style="fill:none;stroke:#ff7555;stroke-width:4;stroke-linecap:round;stroke-miterlimit:10"
   x1="106.8"
   y1="29.34"
   x2="101.97"
   y2="26.92"
   id="line10-6" />
	</g>
</g><g
       id="g11-89"
       transform="matrix(0.05198639,0,0,0.05198639,134.62849,27.373456)">
	<path
   style="fill:none;stroke:#616161;stroke-width:6;stroke-miterlimit:10"
   d="m 79.69,62.69 c 7.36,15.65 30.45,32.94 32.41,42.77 1.34,6.7 -3.33,12.26 -9.19,11.2 -6.6,-1.19 -6.91,-10.69 -4.31,-17.99 6.54,-18.38 8.79,-28.99 6.53,-38.95 l -1.08,-4.68"
   id="path1-1-77" />
	<g
   id="g7-64">
		<g
   id="g2-3">
			<path
   style="fill:#82aec0"
   d="m 80.82,56.1 c -1.87,0 -1.14,-1.61 -1.14,-3.6 V 25.92 c 0,-1.99 -0.73,-3.6 1.14,-3.6 1.87,0 5.12,1.11 5.12,3.6 0,2.49 0,24.59 0,26.58 0,1.99 -3.25,3.6 -5.12,3.6 z"
   id="path2-4-0" />
		</g>
		<path
   style="fill:#f44336"
   d="M 82.1,113.93 V 27.96 C 82.1,14.73 71.37,4 58.14,4 H 34.96 C 21.72,4 11,14.73 11,27.96 v 85.97 c -3.3,0.97 -5.71,4.02 -5.71,7.63 v 0.3 c 0,1.18 0.96,2.14 2.14,2.14 h 7.02 64.2 7.02 c 1.18,0 2.14,-0.96 2.14,-2.14 v -0.3 c 0,-3.62 -2.41,-6.66 -5.71,-7.63 z"
   id="path3-9-3" />
		<g
   id="g4-0">
			<path
   style="fill:#ffffff"
   d="M 65.68,56.57 H 26.93 c -1.77,0 -3.21,-1.44 -3.21,-3.21 V 22.42 c 0,-1.77 1.44,-3.21 3.21,-3.21 h 38.75 c 1.77,0 3.21,1.44 3.21,3.21 v 30.93 c 0,1.78 -1.43,3.22 -3.21,3.22 z"
   id="path4-9" />
		</g>
		<rect
   x="32.220001"
   y="29.6"
   style="fill:#9e9e9e"
   width="29.309999"
   height="7.6399999"
   id="rect4-2" />
		<rect
   x="32.220001"
   y="41.360001"
   style="fill:#9e9e9e"
   width="29.309999"
   height="7.6399999"
   id="rect5-5" />
		<path
   style="fill:#82aec0"
   d="m 24.13,47 c -0.05,0.52 -0.81,0.52 -0.86,0.01 -0.74,-7.27 -1.16,-14.55 -1.48,-21.82 -0.47,-4.02 2.63,-7.49 6.78,-7.21 11.79,-0.35 23.64,-0.35 35.43,-0.01 4.14,-0.28 7.27,3.19 6.79,7.21 -0.32,7.28 -0.75,14.57 -1.49,21.85 -0.05,0.52 -0.81,0.52 -0.86,0 C 67.67,39.5 67.25,31.96 66.91,24.44 66.9,24.28 66.86,24.13 66.82,23.99 66.57,23.09 65.7,22.34 64.8,22.43 c -0.48,0.02 -36.58,0.01 -37.04,-0.01 -0.9,-0.09 -1.77,0.66 -2.02,1.57 -0.04,0.15 -0.07,0.3 -0.09,0.45 C 25.31,31.95 24.9,39.48 24.13,47 Z"
   id="path5-4" />
		<ellipse
   style="fill:#f5f5f5"
   cx="46.310001"
   cy="84.080002"
   rx="16.790001"
   ry="17.889999"
   id="ellipse5-0" />
		<path
   style="fill:#212121"
   d="m 38.87,86.6 c 0,-4.37 7.43,-12.95 7.43,-12.95 0,0 7.43,8.58 7.43,12.95 0,4.37 -3.33,7.92 -7.43,7.92 -4.1,0 -7.43,-3.55 -7.43,-7.92 z"
   id="path6-5" />
		<rect
   x="11"
   y="110.03"
   style="fill:#c62828"
   width="71.099998"
   height="3.8900001"
   id="rect6-9" />
		<path
   style="fill:none;stroke:#ff7555;stroke-width:5;stroke-linecap:round;stroke-miterlimit:10"
   d="m 17.45,22.04 c 0.88,-4.96 5.2,-11.1 14.13,-11.1"
   id="path7-46" />
	</g>
	<g
   id="g10-9">
		
			<rect
   x="101.69"
   y="55.91"
   transform="matrix(-0.9692,0.2462,-0.2462,-0.9692,220.382,88.132)"
   style="fill:#9e9e9e"
   width="5.98"
   height="3.8800001"
   id="rect7-22" />
		<g
   id="g8-47">
			<path
   style="fill:#9e9e9e"
   d="m 104.77,29.85 6.73,-12.2 c 0.5,-0.9 1.16,-1.7 1.95,-2.35 2.46,-2.02 7.97,-6.58 9.13,-7.84 1.51,-1.64 -1.29,-5.1 -3.28,-3.73 -1.56,1.08 -7.3,6.12 -9.69,8.23 -0.7,0.61 -1.28,1.34 -1.73,2.16 l -7.07,12.82 z"
   id="path8-7" />
		</g>
		<path
   style="fill:#757575"
   d="m 100.66,37.73 9.42,-1.95 3.32,11.82 c 0.53,2.08 -0.43,2.68 -2.27,3.15 l -6.66,1.85 m -5.22,-15.27 8.05,18.35 7.62,-2.13 c 3.19,-0.93 3.1,-3.53 2.61,-5.46 l -3.93,-14.4 z"
   id="path9-5" />
		<path
   style="fill:#f44336"
   d="m 103.82,21.12 4.87,2.74 c 0.65,0.36 0.89,1.17 0.56,1.83 l -0.97,1.94 2.25,1.7 c 1.57,1.18 2.68,2.86 3.16,4.77 l 0.27,1.05 -6.96,1.79 c -1.46,0.39 -2.33,1.88 -1.95,3.34 l 3.21,12.63 c 0.32,1.36 0.4,2.48 -0.97,2.78 l -5.55,1.38 c -1.32,0.29 -2.63,-0.52 -2.96,-1.83 L 94.9,39.95 c -1.74,-6.85 0.94,-9.17 1.5,-10.3 0.56,-1.13 3.5,-4.21 3.5,-4.21 l 2.01,-3.76 c 0.37,-0.69 1.23,-0.94 1.91,-0.56 z"
   id="path10-48" />
		
			<line
   style="fill:none;stroke:#ff7555;stroke-width:4;stroke-linecap:round;stroke-miterlimit:10"
   x1="106.8"
   y1="29.34"
   x2="101.97"
   y2="26.92"
   id="line10-12" />
	</g>
</g><g
       id="g11-80"
       transform="matrix(0.05198639,0,0,0.05198639,156.97861,29.271727)">
	<path
   style="fill:none;stroke:#616161;stroke-width:6;stroke-miterlimit:10"
   d="m 79.69,62.69 c 7.36,15.65 30.45,32.94 32.41,42.77 1.34,6.7 -3.33,12.26 -9.19,11.2 -6.6,-1.19 -6.91,-10.69 -4.31,-17.99 6.54,-18.38 8.79,-28.99 6.53,-38.95 l -1.08,-4.68"
   id="path1-1-21" />
	<g
   id="g7-0">
		<g
   id="g2-5">
			<path
   style="fill:#82aec0"
   d="m 80.82,56.1 c -1.87,0 -1.14,-1.61 -1.14,-3.6 V 25.92 c 0,-1.99 -0.73,-3.6 1.14,-3.6 1.87,0 5.12,1.11 5.12,3.6 0,2.49 0,24.59 0,26.58 0,1.99 -3.25,3.6 -5.12,3.6 z"
   id="path2-4-11" />
		</g>
		<path
   style="fill:#f44336"
   d="M 82.1,113.93 V 27.96 C 82.1,14.73 71.37,4 58.14,4 H 34.96 C 21.72,4 11,14.73 11,27.96 v 85.97 c -3.3,0.97 -5.71,4.02 -5.71,7.63 v 0.3 c 0,1.18 0.96,2.14 2.14,2.14 h 7.02 64.2 7.02 c 1.18,0 2.14,-0.96 2.14,-2.14 v -0.3 c 0,-3.62 -2.41,-6.66 -5.71,-7.63 z"
   id="path3-9-0" />
		<g
   id="g4-85">
			<path
   style="fill:#ffffff"
   d="M 65.68,56.57 H 26.93 c -1.77,0 -3.21,-1.44 -3.21,-3.21 V 22.42 c 0,-1.77 1.44,-3.21 3.21,-3.21 h 38.75 c 1.77,0 3.21,1.44 3.21,3.21 v 30.93 c 0,1.78 -1.43,3.22 -3.21,3.22 z"
   id="path4-06" />
		</g>
		<rect
   x="32.220001"
   y="29.6"
   style="fill:#9e9e9e"
   width="29.309999"
   height="7.6399999"
   id="rect4-46" />
		<rect
   x="32.220001"
   y="41.360001"
   style="fill:#9e9e9e"
   width="29.309999"
   height="7.6399999"
   id="rect5-2" />
		<path
   style="fill:#82aec0"
   d="m 24.13,47 c -0.05,0.52 -0.81,0.52 -0.86,0.01 -0.74,-7.27 -1.16,-14.55 -1.48,-21.82 -0.47,-4.02 2.63,-7.49 6.78,-7.21 11.79,-0.35 23.64,-0.35 35.43,-0.01 4.14,-0.28 7.27,3.19 6.79,7.21 -0.32,7.28 -0.75,14.57 -1.49,21.85 -0.05,0.52 -0.81,0.52 -0.86,0 C 67.67,39.5 67.25,31.96 66.91,24.44 66.9,24.28 66.86,24.13 66.82,23.99 66.57,23.09 65.7,22.34 64.8,22.43 c -0.48,0.02 -36.58,0.01 -37.04,-0.01 -0.9,-0.09 -1.77,0.66 -2.02,1.57 -0.04,0.15 -0.07,0.3 -0.09,0.45 C 25.31,31.95 24.9,39.48 24.13,47 Z"
   id="path5-5" />
		<ellipse
   style="fill:#f5f5f5"
   cx="46.310001"
   cy="84.080002"
   rx="16.790001"
   ry="17.889999"
   id="ellipse5-8" />
		<path
   style="fill:#212121"
   d="m 38.87,86.6 c 0,-4.37 7.43,-12.95 7.43,-12.95 0,0 7.43,8.58 7.43,12.95 0,4.37 -3.33,7.92 -7.43,7.92 -4.1,0 -7.43,-3.55 -7.43,-7.92 z"
   id="path6-6" />
		<rect
   x="11"
   y="110.03"
   style="fill:#c62828"
   width="71.099998"
   height="3.8900001"
   id="rect6-28" />
		<path
   style="fill:none;stroke:#ff7555;stroke-width:5;stroke-linecap:round;stroke-miterlimit:10"
   d="m 17.45,22.04 c 0.88,-4.96 5.2,-11.1 14.13,-11.1"
   id="path7-47" />
	</g>
	<g
   id="g10-24">
		
			<rect
   x="101.69"
   y="55.91"
   transform="matrix(-0.9692,0.2462,-0.2462,-0.9692,220.382,88.132)"
   style="fill:#9e9e9e"
   width="5.98"
   height="3.8800001"
   id="rect7-0" />
		<g
   id="g8-62">
			<path
   style="fill:#9e9e9e"
   d="m 104.77,29.85 6.73,-12.2 c 0.5,-0.9 1.16,-1.7 1.95,-2.35 2.46,-2.02 7.97,-6.58 9.13,-7.84 1.51,-1.64 -1.29,-5.1 -3.28,-3.73 -1.56,1.08 -7.3,6.12 -9.69,8.23 -0.7,0.61 -1.28,1.34 -1.73,2.16 l -7.07,12.82 z"
   id="path8-9" />
		</g>
		<path
   style="fill:#757575"
   d="m 100.66,37.73 9.42,-1.95 3.32,11.82 c 0.53,2.08 -0.43,2.68 -2.27,3.15 l -6.66,1.85 m -5.22,-15.27 8.05,18.35 7.62,-2.13 c 3.19,-0.93 3.1,-3.53 2.61,-5.46 l -3.93,-14.4 z"
   id="path9-9" />
		<path
   style="fill:#f44336"
   d="m 103.82,21.12 4.87,2.74 c 0.65,0.36 0.89,1.17 0.56,1.83 l -0.97,1.94 2.25,1.7 c 1.57,1.18 2.68,2.86 3.16,4.77 l 0.27,1.05 -6.96,1.79 c -1.46,0.39 -2.33,1.88 -1.95,3.34 l 3.21,12.63 c 0.32,1.36 0.4,2.48 -0.97,2.78 l -5.55,1.38 c -1.32,0.29 -2.63,-0.52 -2.96,-1.83 L 94.9,39.95 c -1.74,-6.85 0.94,-9.17 1.5,-10.3 0.56,-1.13 3.5,-4.21 3.5,-4.21 l 2.01,-3.76 c 0.37,-0.69 1.23,-0.94 1.91,-0.56 z"
   id="path10-0" />
		
			<line
   style="fill:none;stroke:#ff7555;stroke-width:4;stroke-linecap:round;stroke-miterlimit:10"
   x1="106.8"
   y1="29.34"
   x2="101.97"
   y2="26.92"
   id="line10-8" />
	</g>
</g><g
       id="g11-03"
       transform="matrix(0.05198639,0,0,0.05198639,169.22571,24.02016)">
	<path
   style="fill:none;stroke:#616161;stroke-width:6;stroke-miterlimit:10"
   d="m 79.69,62.69 c 7.36,15.65 30.45,32.94 32.41,42.77 1.34,6.7 -3.33,12.26 -9.19,11.2 -6.6,-1.19 -6.91,-10.69 -4.31,-17.99 6.54,-18.38 8.79,-28.99 6.53,-38.95 l -1.08,-4.68"
   id="path1-1-4" />
	<g
   id="g7-03">
		<g
   id="g2-9">
			<path
   style="fill:#82aec0"
   d="m 80.82,56.1 c -1.87,0 -1.14,-1.61 -1.14,-3.6 V 25.92 c 0,-1.99 -0.73,-3.6 1.14,-3.6 1.87,0 5.12,1.11 5.12,3.6 0,2.49 0,24.59 0,26.58 0,1.99 -3.25,3.6 -5.12,3.6 z"
   id="path2-4-19" />
		</g>
		<path
   style="fill:#f44336"
   d="M 82.1,113.93 V 27.96 C 82.1,14.73 71.37,4 58.14,4 H 34.96 C 21.72,4 11,14.73 11,27.96 v 85.97 c -3.3,0.97 -5.71,4.02 -5.71,7.63 v 0.3 c 0,1.18 0.96,2.14 2.14,2.14 h 7.02 64.2 7.02 c 1.18,0 2.14,-0.96 2.14,-2.14 v -0.3 c 0,-3.62 -2.41,-6.66 -5.71,-7.63 z"
   id="path3-9-69" />
		<g
   id="g4-33">
			<path
   style="fill:#ffffff"
   d="M 65.68,56.57 H 26.93 c -1.77,0 -3.21,-1.44 -3.21,-3.21 V 22.42 c 0,-1.77 1.44,-3.21 3.21,-3.21 h 38.75 c 1.77,0 3.21,1.44 3.21,3.21 v 30.93 c 0,1.78 -1.43,3.22 -3.21,3.22 z"
   id="path4-80" />
		</g>
		<rect
   x="32.220001"
   y="29.6"
   style="fill:#9e9e9e"
   width="29.309999"
   height="7.6399999"
   id="rect4-56" />
		<rect
   x="32.220001"
   y="41.360001"
   style="fill:#9e9e9e"
   width="29.309999"
   height="7.6399999"
   id="rect5-64" />
		<path
   style="fill:#82aec0"
   d="m 24.13,47 c -0.05,0.52 -0.81,0.52 -0.86,0.01 -0.74,-7.27 -1.16,-14.55 -1.48,-21.82 -0.47,-4.02 2.63,-7.49 6.78,-7.21 11.79,-0.35 23.64,-0.35 35.43,-0.01 4.14,-0.28 7.27,3.19 6.79,7.21 -0.32,7.28 -0.75,14.57 -1.49,21.85 -0.05,0.52 -0.81,0.52 -0.86,0 C 67.67,39.5 67.25,31.96 66.91,24.44 66.9,24.28 66.86,24.13 66.82,23.99 66.57,23.09 65.7,22.34 64.8,22.43 c -0.48,0.02 -36.58,0.01 -37.04,-0.01 -0.9,-0.09 -1.77,0.66 -2.02,1.57 -0.04,0.15 -0.07,0.3 -0.09,0.45 C 25.31,31.95 24.9,39.48 24.13,47 Z"
   id="path5-0" />
		<ellipse
   style="fill:#f5f5f5"
   cx="46.310001"
   cy="84.080002"
   rx="16.790001"
   ry="17.889999"
   id="ellipse5-04" />
		<path
   style="fill:#212121"
   d="m 38.87,86.6 c 0,-4.37 7.43,-12.95 7.43,-12.95 0,0 7.43,8.58 7.43,12.95 0,4.37 -3.33,7.92 -7.43,7.92 -4.1,0 -7.43,-3.55 -7.43,-7.92 z"
   id="path6-62" />
		<rect
   x="11"
   y="110.03"
   style="fill:#c62828"
   width="71.099998"
   height="3.8900001"
   id="rect6-67" />
		<path
   style="fill:none;stroke:#ff7555;stroke-width:5;stroke-linecap:round;stroke-miterlimit:10"
   d="m 17.45,22.04 c 0.88,-4.96 5.2,-11.1 14.13,-11.1"
   id="path7-56" />
	</g>
	<g
   id="g10-98">
		
			<rect
   x="101.69"
   y="55.91"
   transform="matrix(-0.9692,0.2462,-0.2462,-0.9692,220.382,88.132)"
   style="fill:#9e9e9e"
   width="5.98"
   height="3.8800001"
   id="rect7-7" />
		<g
   id="g8-2">
			<path
   style="fill:#9e9e9e"
   d="m 104.77,29.85 6.73,-12.2 c 0.5,-0.9 1.16,-1.7 1.95,-2.35 2.46,-2.02 7.97,-6.58 9.13,-7.84 1.51,-1.64 -1.29,-5.1 -3.28,-3.73 -1.56,1.08 -7.3,6.12 -9.69,8.23 -0.7,0.61 -1.28,1.34 -1.73,2.16 l -7.07,12.82 z"
   id="path8-8" />
		</g>
		<path
   style="fill:#757575"
   d="m 100.66,37.73 9.42,-1.95 3.32,11.82 c 0.53,2.08 -0.43,2.68 -2.27,3.15 l -6.66,1.85 m -5.22,-15.27 8.05,18.35 7.62,-2.13 c 3.19,-0.93 3.1,-3.53 2.61,-5.46 l -3.93,-14.4 z"
   id="path9-2" />
		<path
   style="fill:#f44336"
   d="m 103.82,21.12 4.87,2.74 c 0.65,0.36 0.89,1.17 0.56,1.83 l -0.97,1.94 2.25,1.7 c 1.57,1.18 2.68,2.86 3.16,4.77 l 0.27,1.05 -6.96,1.79 c -1.46,0.39 -2.33,1.88 -1.95,3.34 l 3.21,12.63 c 0.32,1.36 0.4,2.48 -0.97,2.78 l -5.55,1.38 c -1.32,0.29 -2.63,-0.52 -2.96,-1.83 L 94.9,39.95 c -1.74,-6.85 0.94,-9.17 1.5,-10.3 0.56,-1.13 3.5,-4.21 3.5,-4.21 l 2.01,-3.76 c 0.37,-0.69 1.23,-0.94 1.91,-0.56 z"
   id="path10-9" />
		
			<line
   style="fill:none;stroke:#ff7555;stroke-width:4;stroke-linecap:round;stroke-miterlimit:10"
   x1="106.8"
   y1="29.34"
   x2="101.97"
   y2="26.92"
   id="line10-9" />
	</g>
</g><g
       id="g11-6"
       transform="matrix(0.05198639,0,0,0.05198639,177.29048,18.250344)">
	<path
   style="fill:none;stroke:#616161;stroke-width:6;stroke-miterlimit:10"
   d="m 79.69,62.69 c 7.36,15.65 30.45,32.94 32.41,42.77 1.34,6.7 -3.33,12.26 -9.19,11.2 -6.6,-1.19 -6.91,-10.69 -4.31,-17.99 6.54,-18.38 8.79,-28.99 6.53,-38.95 l -1.08,-4.68"
   id="path1-1-1" />
	<g
   id="g7-3">
		<g
   id="g2-2">
			<path
   style="fill:#82aec0"
   d="m 80.82,56.1 c -1.87,0 -1.14,-1.61 -1.14,-3.6 V 25.92 c 0,-1.99 -0.73,-3.6 1.14,-3.6 1.87,0 5.12,1.11 5.12,3.6 0,2.49 0,24.59 0,26.58 0,1.99 -3.25,3.6 -5.12,3.6 z"
   id="path2-4-15" />
		</g>
		<path
   style="fill:#f44336"
   d="M 82.1,113.93 V 27.96 C 82.1,14.73 71.37,4 58.14,4 H 34.96 C 21.72,4 11,14.73 11,27.96 v 85.97 c -3.3,0.97 -5.71,4.02 -5.71,7.63 v 0.3 c 0,1.18 0.96,2.14 2.14,2.14 h 7.02 64.2 7.02 c 1.18,0 2.14,-0.96 2.14,-2.14 v -0.3 c 0,-3.62 -2.41,-6.66 -5.71,-7.63 z"
   id="path3-9-99" />
		<g
   id="g4-14">
			<path
   style="fill:#ffffff"
   d="M 65.68,56.57 H 26.93 c -1.77,0 -3.21,-1.44 -3.21,-3.21 V 22.42 c 0,-1.77 1.44,-3.21 3.21,-3.21 h 38.75 c 1.77,0 3.21,1.44 3.21,3.21 v 30.93 c 0,1.78 -1.43,3.22 -3.21,3.22 z"
   id="path4-91" />
		</g>
		<rect
   x="32.220001"
   y="29.6"
   style="fill:#9e9e9e"
   width="29.309999"
   height="7.6399999"
   id="rect4-0" />
		<rect
   x="32.220001"
   y="41.360001"
   style="fill:#9e9e9e"
   width="29.309999"
   height="7.6399999"
   id="rect5-75" />
		<path
   style="fill:#82aec0"
   d="m 24.13,47 c -0.05,0.52 -0.81,0.52 -0.86,0.01 -0.74,-7.27 -1.16,-14.55 -1.48,-21.82 -0.47,-4.02 2.63,-7.49 6.78,-7.21 11.79,-0.35 23.64,-0.35 35.43,-0.01 4.14,-0.28 7.27,3.19 6.79,7.21 -0.32,7.28 -0.75,14.57 -1.49,21.85 -0.05,0.52 -0.81,0.52 -0.86,0 C 67.67,39.5 67.25,31.96 66.91,24.44 66.9,24.28 66.86,24.13 66.82,23.99 66.57,23.09 65.7,22.34 64.8,22.43 c -0.48,0.02 -36.58,0.01 -37.04,-0.01 -0.9,-0.09 -1.77,0.66 -2.02,1.57 -0.04,0.15 -0.07,0.3 -0.09,0.45 C 25.31,31.95 24.9,39.48 24.13,47 Z"
   id="path5-8" />
		<ellipse
   style="fill:#f5f5f5"
   cx="46.310001"
   cy="84.080002"
   rx="16.790001"
   ry="17.889999"
   id="ellipse5-70" />
		<path
   style="fill:#212121"
   d="m 38.87,86.6 c 0,-4.37 7.43,-12.95 7.43,-12.95 0,0 7.43,8.58 7.43,12.95 0,4.37 -3.33,7.92 -7.43,7.92 -4.1,0 -7.43,-3.55 -7.43,-7.92 z"
   id="path6-4" />
		<rect
   x="11"
   y="110.03"
   style="fill:#c62828"
   width="71.099998"
   height="3.8900001"
   id="rect6-80" />
		<path
   style="fill:none;stroke:#ff7555;stroke-width:5;stroke-linecap:round;stroke-miterlimit:10"
   d="m 17.45,22.04 c 0.88,-4.96 5.2,-11.1 14.13,-11.1"
   id="path7-42" />
	</g>
	<g
   id="g10-96">
		
			<rect
   x="101.69"
   y="55.91"
   transform="matrix(-0.9692,0.2462,-0.2462,-0.9692,220.382,88.132)"
   style="fill:#9e9e9e"
   width="5.98"
   height="3.8800001"
   id="rect7-10" />
		<g
   id="g8-42">
			<path
   style="fill:#9e9e9e"
   d="m 104.77,29.85 6.73,-12.2 c 0.5,-0.9 1.16,-1.7 1.95,-2.35 2.46,-2.02 7.97,-6.58 9.13,-7.84 1.51,-1.64 -1.29,-5.1 -3.28,-3.73 -1.56,1.08 -7.3,6.12 -9.69,8.23 -0.7,0.61 -1.28,1.34 -1.73,2.16 l -7.07,12.82 z"
   id="path8-2" />
		</g>
		<path
   style="fill:#757575"
   d="m 100.66,37.73 9.42,-1.95 3.32,11.82 c 0.53,2.08 -0.43,2.68 -2.27,3.15 l -6.66,1.85 m -5.22,-15.27 8.05,18.35 7.62,-2.13 c 3.19,-0.93 3.1,-3.53 2.61,-5.46 l -3.93,-14.4 z"
   id="path9-20" />
		<path
   style="fill:#f44336"
   d="m 103.82,21.12 4.87,2.74 c 0.65,0.36 0.89,1.17 0.56,1.83 l -0.97,1.94 2.25,1.7 c 1.57,1.18 2.68,2.86 3.16,4.77 l 0.27,1.05 -6.96,1.79 c -1.46,0.39 -2.33,1.88 -1.95,3.34 l 3.21,12.63 c 0.32,1.36 0.4,2.48 -0.97,2.78 l -5.55,1.38 c -1.32,0.29 -2.63,-0.52 -2.96,-1.83 L 94.9,39.95 c -1.74,-6.85 0.94,-9.17 1.5,-10.3 0.56,-1.13 3.5,-4.21 3.5,-4.21 l 2.01,-3.76 c 0.37,-0.69 1.23,-0.94 1.91,-0.56 z"
   id="path10-5" />
		
			<line
   style="fill:none;stroke:#ff7555;stroke-width:4;stroke-linecap:round;stroke-miterlimit:10"
   x1="106.8"
   y1="29.34"
   x2="101.97"
   y2="26.92"
   id="line10-5" />
	</g>
</g><text
       xml:space="preserve"
       style="font-weight:600;font-size:3.52778px;font-family:Raleway;-inkscape-font-specification:'Raleway Semi-Bold';text-align:center;writing-mode:lr-tb;direction:ltr;text-anchor:middle;fill:#000000;stroke-width:0.336"
       x="25.689556"
       y="19.254587"
       id="text1"><tspan
         sodipodi:role="line"
         id="tspan1"
         style="font-style:normal;font-variant:normal;font-weight:normal;font-stretch:normal;font-size:3.52778px;font-family:Raleway;-inkscape-font-specification:Raleway;stroke-width:0.336"
         x="25.689556"
         y="19.254587">100 km</tspan></text><text
       xml:space="preserve"
       style="font-weight:600;font-size:3.52778px;font-family:Raleway;-inkscape-font-specification:'Raleway Semi-Bold';text-align:center;writing-mode:lr-tb;direction:ltr;text-anchor:middle;fill:#000000;stroke-width:0.336"
       x="48.261585"
       y="13.192252"
       id="text1-3"><tspan
         sodipodi:role="line"
         id="tspan1-5"
         style="font-style:normal;font-variant:normal;font-weight:normal;font-stretch:normal;font-size:3.52778px;font-family:Raleway;-inkscape-font-specification:Raleway;stroke-width:0.336"
         x="48.261585"
         y="13.192252">30 km</tspan></text><text
       xml:space="preserve"
       style="font-weight:600;font-size:3.52778px;font-family:Raleway;-inkscape-font-specification:'Raleway Semi-Bold';text-align:center;writing-mode:lr-tb;direction:ltr;text-anchor:middle;fill:#000000;stroke-width:0.336"
       x="72.528145"
       y="11.413388"
       id="text1-3-2"><tspan
         sodipodi:role="line"
         id="tspan1-5-7"
         style="font-style:normal;font-variant:normal;font-weight:normal;font-stretch:normal;font-size:3.52778px;font-family:Raleway;-inkscape-font-specification:Raleway;stroke-width:0.336"
         x="72.528145"
         y="11.413388">70 km</tspan></text><g
       id="layer1-6"
       transform="translate(47.131701,2.8262815)"><text
         xml:space="preserve"
         style="font-weight:600;font-size:3.52778px;font-family:Raleway;-inkscape-font-specification:'Raleway Semi-Bold';text-align:center;writing-mode:lr-tb;direction:ltr;text-anchor:middle;fill:#000000;stroke-width:0.336"
         x="49.881584"
         y="13.192252"
         id="text1-3-0"><tspan
           sodipodi:role="line"
           id="tspan1-5-6"
           style="font-style:normal;font-variant:normal;font-weight:normal;font-stretch:normal;font-size:3.52778px;font-family:Raleway;-inkscape-font-specification:Raleway;stroke-width:0.336"
           x="49.881584"
           y="13.192252">50 km</tspan></text></g><g
       id="layer1-8"
       transform="translate(57.206722,16.340082)"><text
         xml:space="preserve"
         style="font-weight:600;font-size:3.52778px;font-family:Raleway;-inkscape-font-specification:'Raleway Semi-Bold';text-align:center;writing-mode:lr-tb;direction:ltr;text-anchor:middle;fill:#000000;stroke-width:0.336"
         x="49.881584"
         y="13.192252"
         id="text1-3-7"><tspan
           sodipodi:role="line"
           id="tspan1-5-9"
           style="font-style:normal;font-variant:normal;font-weight:normal;font-stretch:normal;font-size:3.52778px;font-family:Raleway;-inkscape-font-specification:Raleway;stroke-width:0.336"
           x="49.881584"
           y="13.192252">10 km</tspan></text></g><g
       id="layer1-3"
       transform="translate(76.138849,15.755593)"><text
         xml:space="preserve"
         style="font-weight:600;font-size:3.52778px;font-family:Raleway;-inkscape-font-specification:'Raleway Semi-Bold';text-align:center;writing-mode:lr-tb;direction:ltr;text-anchor:middle;fill:#000000;stroke-width:0.336"
         x="49.881584"
         y="13.192252"
         id="text1-3-75"><tspan
           sodipodi:role="line"
           id="tspan1-5-92"
           style="font-style:normal;font-variant:normal;font-weight:normal;font-stretch:normal;font-size:3.52778px;font-family:Raleway;-inkscape-font-specification:Raleway;stroke-width:0.336"
           x="49.881584"
           y="13.192252">90 km</tspan></text></g><g
       id="layer1-7"
       transform="translate(100.70131,23.863517)"><text
         xml:space="preserve"
         style="font-weight:600;font-size:3.52778px;font-family:Raleway;-inkscape-font-specification:'Raleway Semi-Bold';text-align:center;writing-mode:lr-tb;direction:ltr;text-anchor:middle;fill:#000000;stroke-width:0.336"
         x="49.881584"
         y="13.192252"
         id="text1-3-3"><tspan
           sodipodi:role="line"
           id="tspan1-5-61"
           style="font-style:normal;font-variant:normal;font-weight:normal;font-stretch:normal;font-size:3.52778px;font-family:Raleway;-inkscape-font-specification:Raleway;stroke-width:0.336"
           x="49.881584"
           y="13.192252">40 km</tspan></text></g><g
       id="layer1-7-9"
       transform="translate(123.46177,25.320693)"><text
         xml:space="preserve"
         style="font-weight:600;font-size:3.52778px;font-family:Raleway;-inkscape-font-specification:'Raleway Semi-Bold';text-align:center;writing-mode:lr-tb;direction:ltr;text-anchor:middle;fill:#000000;stroke-width:0.336"
         x="49.881584"
         y="13.192252"
         id="text1-3-3-4"><tspan
           sodipodi:role="line"
           id="tspan1-5-61-7"
           style="font-style:normal;font-variant:normal;font-weight:normal;font-stretch:normal;font-size:3.52778px;font-family:Raleway;-inkscape-font-specification:Raleway;stroke-width:0.336"
           x="49.881584"
           y="13.192252">30 km</tspan></text></g><g
       id="layer1-0"
       transform="translate(32.343823,-3.9003603)"><g
         id="layer1-7-3"
         transform="translate(100.70131,23.863517)"><text
           xml:space="preserve"
           style="font-weight:600;font-size:3.52778px;font-family:Raleway;-inkscape-font-specification:'Raleway Semi-Bold';text-align:center;writing-mode:lr-tb;direction:ltr;text-anchor:middle;fill:#000000;stroke-width:0.336"
           x="49.881584"
           y="13.192252"
           id="text1-3-3-6"><tspan
             sodipodi:role="line"
             id="tspan1-5-61-1"
             style="font-style:normal;font-variant:normal;font-weight:normal;font-stretch:normal;font-size:3.52778px;font-family:Raleway;-inkscape-font-specification:Raleway;stroke-width:0.336"
             x="49.881584"
             y="13.192252">20 km</tspan></text></g></g><g
       id="layer1-2"
       transform="translate(41.990905,-12.861291)"><g
         id="layer1-7-0"
         transform="translate(100.70131,23.863517)"><text
           xml:space="preserve"
           style="font-weight:600;font-size:3.52778px;font-family:Raleway;-inkscape-font-specification:'Raleway Semi-Bold';text-align:center;writing-mode:lr-tb;direction:ltr;text-anchor:middle;fill:#000000;stroke-width:0.336"
           x="49.881584"
           y="13.192252"
           id="text1-3-3-61"><tspan
             sodipodi:role="line"
             id="tspan1-5-61-5"
             style="font-style:normal;font-variant:normal;font-weight:normal;font-stretch:normal;font-size:3.52778px;font-family:Raleway;-inkscape-font-specification:Raleway;stroke-width:0.336"
             x="49.881584"
             y="13.192252">50 km</tspan></text></g></g><text
       xml:space="preserve"
       style="font-style:normal;font-variant:normal;font-weight:normal;font-stretch:normal;font-size:3.52777px;font-family:Raleway;-inkscape-font-specification:Raleway;text-align:center;writing-mode:lr-tb;direction:ltr;text-anchor:middle;fill:#6575ff;fill-opacity:1;stroke-width:0.336"
       x="37.688698"
       y="32.26292"
       id="text4"><tspan
         sodipodi:role="line"
         id="tspan4"
         style="stroke-width:0.336"
         x="37.688698"
         y="32.26292"></tspan></text><text
       xml:space="preserve"
       style="font-weight:600;font-size:3.52778px;font-family:Raleway;-inkscape-font-specification:'Raleway Semi-Bold';text-align:center;writing-mode:lr-tb;direction:ltr;text-anchor:middle;fill:#000000;stroke-width:0.336"
       x="19.985546"
       y="9.398612"
       id="text1-3-2-6"><tspan
         sodipodi:role="line"
         id="tspan1-5-7-9"
         style="font-style:normal;font-variant:normal;font-weight:bold;font-stretch:normal;font-size:3.52778px;font-family:Raleway;-inkscape-font-specification:'Raleway Bold';stroke-width:0.336"
         x="19.985546"
         y="9.398612">l = 150 km</tspan></text><circle
       style="fill:#ffc000;fill-opacity:1;stroke:#000000;stroke-width:0.336;stroke-dasharray:none;stroke-opacity:1"
       id="path3-5-2"
       cx="113.36253"
       cy="26.692169"
       r="1.35" /><circle
       style="fill:#ffc000;fill-opacity:1;stroke:#000000;stroke-width:0.336;stroke-dasharray:none;stroke-opacity:1"
       id="path3-5-2-8"
       cx="160.1642"
       cy="38.059669"
       r="1.35" /></g></svg>
