<?xml version="1.0" encoding="UTF-8" standalone="no"?>
<!-- Generator: Adobe Illustrator 16.0.0, SVG Export Plug-In . SVG Version: 6.00 Build 0)  -->
<svg xmlns:dc="http://purl.org/dc/elements/1.1/" xmlns:cc="http://creativecommons.org/ns#" xmlns:rdf="http://www.w3.org/1999/02/22-rdf-syntax-ns#" xmlns:svg="http://www.w3.org/2000/svg" xmlns="http://www.w3.org/2000/svg" xmlns:sodipodi="http://sodipodi.sourceforge.net/DTD/sodipodi-0.dtd" xmlns:inkscape="http://www.inkscape.org/namespaces/inkscape" version="1.1" id="Maps" x="0px" y="0px" width="762.616px" height="899px" viewBox="0 0 762.616 899" enable-background="new 0 0 762.616 899" xml:space="preserve" sodipodi:docname="ColourfulMapofAfrica.svg" inkscape:version="0.92.1 r15371"><title id="title5216">misc maps</title><metadata id="metadata1544"><rdf:RDF><cc:Work rdf:about=""><dc:format>image/svg+xml</dc:format><dc:type rdf:resource="http://purl.org/dc/dcmitype/StillImage"/><dc:title>misc maps</dc:title><dc:date>7/18/2017</dc:date><dc:publisher><cc:Agent><dc:title>cactus cowboy</dc:title></cc:Agent></dc:publisher></cc:Work></rdf:RDF></metadata><defs id="defs1542"/><sodipodi:namedview pagecolor="#ffffff" bordercolor="#666666" borderopacity="1" objecttolerance="10" gridtolerance="10" guidetolerance="10" inkscape:pageopacity="0" inkscape:pageshadow="2" inkscape:window-width="1366" inkscape:window-height="706" id="namedview1540" showgrid="false" inkscape:zoom="0.43386034" inkscape:cx="381.30801" inkscape:cy="413.46746" inkscape:window-x="-8" inkscape:window-y="-8" inkscape:window-maximized="1" inkscape:current-layer="g5361"/><g id="g5309" transform="matrix(4.4405715,0,0,4.8033215,-9.526628,-31.652881)" style="stroke:#363639;stroke-opacity:1"><g id="g5361"><g id="g5413"><polygon id="polygon2" points="157.538,164.799 157.037,164.399 156.437,164.399 155.738,164.399 155.338,163.7 154.838,163.1 154.637,162.799 154.538,162.199 154.637,161.5 154.838,160.7 155.037,159.799 154.838,159 154.338,158.399 154.037,158.1 153.938,157.799 153.738,157 153.738,156 154.238,155.199 154.338,154.5 154.838,153.799 155.338,153.399 155.738,152.7 156.437,152.1 156.738,151.5 156.738,150.7 156.538,148.199 156.238,147.199 155.938,146.1 155.637,145.599 155.437,144.9 155.637,144.399 156.238,144.1 156.538,143.9 156.838,143.599 157.037,143 156.838,142.3 156.538,141.7 156.238,141.399 156.437,141.1 156.538,140.9 157.538,140.9 158.138,140.9 158.938,140.799 159.738,140.5 160.338,140.599 160.838,140.3 161.238,140.3 161.738,140.1 161.938,139.799 162.037,139.199 162.338,139.199 162.838,139 163.437,139 164.138,138.9 164.437,138.599 165.037,137.9 165.238,137.599 165.338,137.199 165.538,136.5 165.538,135.7 165.338,135.1 165.637,134.599 166.037,134.599 166.437,134.599 167.138,134.5 167.138,134 166.938,133.199 166.938,132.399 166.938,131.799 167.138,131.3 167.538,131.199 168.238,130.9 168.538,130.9 169.037,131.199 169.437,131.599 169.637,132.7 169.637,133.399 169.938,134.3 170.138,135.399 170.238,136.199 170.538,136.399 170.838,137.199 171.538,138.3 171.637,138.7 171.538,139.399 171.538,139.799 171.037,139.799 170.238,139.7 169.738,139.199 169.138,139.5 169.037,139.799 169.138,140.5 169.338,140.9 169.437,141.399 169.437,141.599 168.838,142.199 168.238,142.5 168.238,142.799 168.238,143.1 168.338,143.399 168.538,143.799 169.037,144.199 169.037,145.3 168.637,146.7 168.238,148.199 167.538,149.3 167.138,150.5 166.138,152.599 165.338,154.1 164.437,156 163.437,157.9 163.138,159 162.838,160.1 162.338,161.7 161.938,163.1 161.938,163.3 161.738,163.599 161.637,163.9 160.938,164 159.838,164.199 159.538,164.199 159.238,164.799 159.037,165.199 158.637,165.5 158.138,165.5 157.838,165.199 " style="fill:#c0262d;stroke:#363639;stroke-opacity:1"/><polygon id="polygon4" points="126.338,170 126.838,169.9 127.037,169.599 127.338,169.1 127.338,168.5 127.338,168 127.138,167.799 127.037,167.7 126.637,167.199 126.037,167 125.538,167.7 125.238,168 125.138,168.3 125.138,168.599 125.238,169.1 125.538,169.9 126.037,170 " style="fill:#32327b;stroke:#363639;stroke-opacity:1"/><polygon id="polygon6" points="39.037,17 38.738,17.599 38.437,18.1 37.938,18.7 37.538,19.199 36.838,20.3 35.437,21.5 33.838,22.199 33.238,22.599 32.338,23.3 31.338,24.399 31.238,25 30.838,25.599 30.538,25.9 30.437,26.1 29.938,26.1 29.738,26.599 29.437,27.5 29.338,28.9 29.338,31 29.338,31.3 28.838,32.199 28.338,32.9 27.238,33.5 26.338,34 25.738,34.599 25.037,35.5 24.138,36.199 23.338,36.5 22.738,36.599 21.938,37 21.138,37.399 20.838,37.599 29.138,37.599 29.338,37.399 29.338,37.3 29.338,36.199 29.138,35.5 29.338,35.199 29.738,34.599 30.437,34.1 31.238,33.7 32.338,33.199 33.838,32.9 35.138,32.599 36.538,31.599 36.738,31 37.037,30.199 37.338,29.9 37.938,29.7 38.437,29.9 39.037,30 39.238,30 40.437,29.399 41.138,28.9 41.738,28.3 42.538,26.9 43.138,26.3 44.738,25.9 45.538,25.799 46.738,25.5 47.437,25.199 48.338,24.399 48.538,23.7 48.338,23.1 47.838,22.5 47.538,21.1 47.538,20.399 47.538,19.5 47.538,18.7 47.838,16.7 48.037,16.7 47.738,17 47.238,17 45.338,16.799 44.437,16.3 43.037,16.3 41.738,15.7 41.138,15.199 40.637,15.1 40.037,15.1 39.538,15.399 39.037,16 " style="fill:#007146;stroke:#363639;stroke-opacity:1"/><polygon id="polygon8" points="55.738,56 55.538,56.3 55.538,57.1 55.738,57.7 56.338,57.7 57.138,57.399 57.138,57.399 57.738,57.1 58.437,56.799 59.338,56.3 73.238,45.799 73.238,45.799 72.538,45.1 72.238,44.7 72.138,43.9 71.938,42.799 71.938,42 71.738,41.5 71.338,40.7 69.938,39 69.238,38.1 69.238,37.599 69.738,37.1 70.338,36 70.637,35.5 71.338,34 71.338,33.3 71.138,32.7 70.838,32.199 70.538,31.9 70.037,31.3 70.037,31.1 70.037,30.799 70.538,29.9 70.538,29.199 70.637,28.799 70.538,28.1 70.338,27.399 70.538,27.5 70.238,27 69.738,25.599 69.538,25.199 69.138,24.1 68.637,23.399 68.037,22.5 67.838,21.9 67.338,21.399 67.338,20.799 67.538,20.3 67.838,19.7 68.437,18.9 68.637,18.1 68.838,17 68.637,16 68.338,15.399 68.037,14.5 67.538,13.399 67.238,12.399 66.738,11.5 66.437,10.7 66.738,10.5 66.238,10.7 65.938,10.7 65.138,11.599 64.037,12.3 63.437,12.399 62.637,12.3 62.338,12.1 62.138,11.9 61.538,11.799 61.437,11.799 61.037,11.799 60.637,11.799 60.138,12.3 59.637,12.599 59.338,12.9 57.938,12.7 56.838,12.599 55.938,12.7 54.437,13 54.138,13.199 53.838,13.7 53.037,15.1 52.738,15.399 52.138,15.599 50.037,15.599 49.738,16 49.238,16.799 48.637,17 47.738,17 48.037,16.7 47.838,16.7 47.538,18.7 47.538,19.5 47.538,20.399 47.538,21.1 47.838,22.5 48.338,23.1 48.538,23.7 48.338,24.399 47.437,25.199 46.738,25.5 45.538,25.799 44.738,25.9 43.138,26.3 42.538,26.9 41.738,28.3 41.138,28.9 40.437,29.399 39.238,30 39.037,30 38.437,29.9 37.938,29.7 37.338,29.9 37.037,30.199 36.738,31 36.538,31.599 35.138,32.599 33.838,32.9 32.338,33.199 31.238,33.7 30.437,34.1 29.738,34.599 29.338,35.199 29.138,35.5 29.338,36.199 29.338,37.3 29.338,37.399 29.037,37.599 36.238,42.599 36.037,42.599 50.738,52.5 51.037,53 51.338,53.9 51.838,54.399 52.238,54.7 53.338,54.9 55.138,55 55.437,55.399 " style="fill:#32327b;stroke:#363639;stroke-opacity:1"/><polygon id="polygon10" points="74.138,11.3 73.938,11.9 73.637,12.599 73.637,13 73.838,13.7 74.138,14.1 74.437,14.599 74.637,15.399 74.437,16.3 72.738,17.5 72.437,18.1 72.538,18.399 72.738,18.7 73.338,19 73.838,19.199 73.938,19.7 74.138,20.3 74.437,20.399 75.037,20.3 75.437,20.3 75.538,20.599 76.037,20.799 76.538,20.799 77.138,20.799 76.938,20.799 76.037,21.1 74.738,21.5 73.538,22.199 73.037,22.5 72.238,23 71.637,23.3 71.138,24.1 71.338,24.7 71.437,25.3 71.938,26.9 71.637,27.399 71.437,27.7 71.037,27.7 70.637,27.5 70.338,27.399 70.538,27.5 70.238,27 69.738,25.599 69.538,25.199 69.138,24.1 68.637,23.399 68.037,22.5 67.838,21.9 67.338,21.399 67.338,20.799 67.538,20.3 67.838,19.7 68.437,18.9 68.637,18.1 68.838,17 68.637,16 68.338,15.399 68.037,14.5 67.538,13.399 67.238,12.399 66.738,11.5 66.437,10.7 66.738,10.5 68.037,10.7 68.938,10.799 69.938,11 70.538,11 71.138,10.7 72.138,10.199 72.738,9.9 73.238,10.1 73.637,10.199 73.938,10.7 " style="fill:#fff200;stroke:#363639;stroke-width:0.64957753;stroke-linejoin:round;stroke-opacity:1;stroke-miterlimit:4;stroke-dasharray:none"/><polygon id="polygon12" points="84.037,24.399 85.037,24.7 85.938,24.7 86.838,24.7 88.138,24.7 88.938,24.799 90.037,25.199 90.838,25.9 91.738,27.199 92.538,27.199 93.037,26.9 93.338,26.399 93.437,26.1 93.037,24.1 92.838,23 92.838,22.3 93.338,21.5 93.838,20.799 94.238,20.3 95.238,20 96.037,19.799 96.437,19.799 96.938,19.799 97.938,20 98.838,20.3 99.138,20.399 99.138,20.9 99.037,21.9 99.637,22 100.437,22 101.238,21.9 101.838,21.7 102.437,21.7 103.037,22 103.538,22.199 104.138,22.5 104.637,22.5 104.338,22.3 104.838,44.199 104.938,52.799 104.037,53 104.138,53 103.538,53.199 103.037,53.199 85.437,44.799 85.037,44.7 84.538,44.799 83.437,45.799 82.838,46.199 82.338,46.399 81.538,46.7 80.238,46.7 78.738,46.399 77.637,45.799 76.338,45.1 75.538,44.7 74.938,44.5 74.437,44.7 73.838,45 73.238,45.799 73.238,45.799 72.538,45.1 72.238,44.7 72.138,43.9 71.938,42.799 71.938,42 71.738,41.5 71.338,40.7 69.938,39 69.238,38.1 69.238,37.599 69.738,37.1 70.338,36 70.637,35.5 71.338,34 71.338,33.3 71.138,32.7 70.838,32.199 70.538,31.9 70.037,31.3 70.037,31.1 70.037,30.799 70.538,29.9 70.538,29.199 70.637,28.799 70.538,28.1 70.338,27.399 70.637,27.5 71.037,27.7 71.437,27.7 71.637,27.399 71.938,26.9 71.437,25.3 71.338,24.7 71.138,24.1 71.637,23.3 72.238,23 73.037,22.5 73.538,22.199 74.738,21.5 76.037,21.1 76.938,20.799 77.138,20.799 78.238,21.1 79.538,21.399 81.238,22 82.338,22.3 83.238,22.599 82.938,22.799 82.938,23.1 83.138,23.399 83.238,23.9 83.538,24.1 " style="fill:#c0262d;stroke:#363639;stroke-opacity:1"/><polygon id="polygon14" points="16.538,43.599 15.338,45.1 14.538,46.1 13.738,47.3 13.138,48 12.838,48.599 12.338,49.1 11.838,49.7 11.338,50.599 10.938,51.599 10.238,52.7 9.938,53.3 9.538,53.9 9.938,53.9 13.437,53.599 16.838,53.799 17.538,49.199 17.938,48.599 18.637,48.399 20.838,48 21.738,42.3 29.138,41.7 29.138,37.599 20.838,37.599 21.138,37.399 20.538,38.199 20.138,38.7 20.037,39.199 19.838,39.799 19.538,40.1 19.037,40.3 18.437,40.7 17.637,41.7 " style="fill:#c0262d;stroke:#363639;stroke-opacity:1"/><polygon id="polygon16" points="10.637,56.9 10.938,56.3 10.938,56 10.738,55.5 9.538,55.799 9.138,55.399 9.138,54.7 9.538,53.9 9.938,53.9 13.437,53.599 16.838,53.799 17.538,49.199 17.938,48.599 18.637,48.399 20.838,48 21.738,42.3 29.138,41.7 29.138,37.599 29.037,37.599 36.238,42.599 36.037,42.599 32.138,42.799 32.938,66.1 32.938,67 32.437,67.799 31.538,68.3 24.238,68.1 23.838,68.3 23.338,68.599 23.037,68.9 22.738,68.7 22.437,68.399 22.037,68.1 21.738,67.799 20.938,67.5 20.838,68.1 20.637,68.399 20.338,68.9 19.838,69 18.938,68.9 18.338,68.7 17.838,68.9 17.637,69.5 17.637,70.1 17.637,70.3 17.037,69.799 16.538,69.399 16.437,68.9 16.437,68.1 16.238,67.599 15.738,67.599 15.138,67.599 14.538,67.5 14.338,67 13.938,66.5 13.238,65.9 12.637,65.599 12.037,65.399 11.338,65.599 10.637,65.9 10.138,66.5 9.637,67.199 9.037,67.599 8.437,67.599 8.838,66.7 9.538,64.599 10.138,64 10.637,63.1 10.938,61 10.938,60.5 10.437,59.599 9.938,59 9.838,58.5 10.238,57.399 " style="fill:#fff200;stroke:#363639;stroke-width:0.64957753;stroke-linejoin:round;stroke-opacity:1;stroke-miterlimit:4;stroke-dasharray:none"/><polygon id="polygon18" points="112.637,23.7 113.637,23.1 115.037,22.3 116.338,22 116.938,22 119.138,22.5 119.637,22.5 120.538,22.5 121.138,22.5 121.938,22 122.538,21.5 123.037,21.5 123.338,21.9 123.738,22.199 123.838,22.799 124.138,23.399 124.437,24.1 124.637,24.5 124.838,25.599 125.138,26.7 125.138,27.5 125.238,28.5 125.238,29.199 125.238,29.9 124.938,30.3 124.437,30.7 124.338,30.799 123.838,30.7 123.238,30.3 122.738,29.7 122.138,28.9 121.437,28.1 120.738,27.199 120.338,26.9 119.938,27 119.637,27.399 119.637,28 119.637,28.5 119.938,29.1 120.538,29.9 121.037,30.199 121.838,30.7 122.437,31 122.738,31.399 122.938,31.799 123.738,32.9 124.838,34.399 125.437,35.5 126.637,38.199 127.338,39.3 128.238,39.9 128.738,40.599 129.037,41.5 129.037,42.799 129.338,43.9 129.538,44 129.637,44.199 104.637,44.199 104.838,44.199 104.338,22.3 104.637,22.5 105.138,22.3 105.738,22.199 106.238,22.3 107.338,22.3 108.138,22.5 108.938,22.799 109.338,23.1 110.037,23.3 111.138,23.7 111.938,23.7 " style="fill:#fff200;stroke:#363639;stroke-width:0.64957753;stroke-linejoin:round;stroke-opacity:1;stroke-miterlimit:4;stroke-dasharray:none"/><polygon id="polygon20" points="101.838,66.199 102.338,65.9 102.437,65.599 102.437,64.3 102.738,63.5 103.238,62.9 103.738,62.399 104.138,62.1 104.338,61.799 104.138,53.199 104.037,53 104.938,52.799 104.838,44.199 104.637,44.199 129.637,44.199 129.538,44 129.838,44.199 130.637,44.199 131.238,44.5 132.037,45 132.938,45.9 133.437,46.9 133.637,48 133.738,49.7 134.037,50.799 134.338,52.399 134.538,53 134.838,53.3 135.838,53.599 137.338,54.599 137.838,55 138.338,55.399 138.338,55.7 137.738,56.9 137.037,58.3 136.437,59.1 136.138,59.799 135.338,60.5 134.538,61.7 134.538,62 134.538,62.399 135.338,63.9 135.637,64.3 136.138,65.399 135.838,66.799 134.338,69 132.838,72 131.538,73.9 130.938,75.199 131.037,75.599 131.238,76.3 131.238,77.1 131.238,77.7 130.437,79 129.938,79.7 129.538,80.399 129.338,81 129.538,81.5 129.938,82.399 130.437,82.7 131.238,82.9 132.138,83.199 132.938,83 133.437,83 133.637,83.399 133.738,83.799 133.938,84.799 134.238,85.599 134.738,86 135.637,86.3 136.138,86.799 136.238,87.799 136.437,88.199 136.437,89 136.238,89 135.637,88.9 135.138,88.7 134.238,88.399 133.738,88.5 133.238,88.5 132.538,88.7 131.838,89.199 130.637,89.799 129.938,90 128.838,90.399 127.637,90.7 126.838,91.1 126.338,91.199 125.738,91.399 124.938,91.399 124.338,91.199 123.538,90.9 122.538,90.3 121.838,89.799 121.138,89.199 120.738,88.5 119.938,88.399 118.838,88.5 118.037,88.7 117.437,88.7 116.437,88.7 116.338,88.1 115.538,86.799 114.838,86 114.138,85.9 113.738,85.599 113.738,84.799 113.637,83.799 113.037,84 112.538,84.1 112.037,84 111.437,83.799 111.238,83.5 110.938,83.199 110.938,82.599 110.938,81.9 110.338,81.5 109.738,81.3 108.637,81.199 108.138,81.199 107.437,80.7 107.338,80.1 107.338,79.9 107.338,79.399 107.437,78.799 107.338,77.9 106.838,77.399 106.238,77.199 105.938,77.199 105.238,77.199 104.637,76.799 104.637,76.399 104.637,76 104.838,75.3 104.838,75 104.037,75 102.437,73.3 100.738,71.199 101.037,70.1 101.037,69 101.037,68.599 101.037,67.9 100.838,67.5 100.738,66.799 100.838,66.399 101.238,66.199 " style="fill:#32327b;stroke:#363639;stroke-opacity:1"/><polygon id="polygon22" points="101.838,66.199 102.338,65.9 102.437,65.599 102.437,64.3 102.738,63.5 103.238,62.9 103.738,62.399 104.138,62.1 104.338,61.799 104.138,53.199 104.138,53 103.538,53.199 103.037,53.199 85.437,44.799 85.037,44.7 84.538,44.799 83.437,45.799 83.437,45.9 83.437,48.1 83.437,48.599 83.538,49.1 84.637,49.9 84.637,51.399 85.138,52.5 85.437,57.599 85.338,59.1 84.637,60.399 84.037,61.3 83.238,62.399 82.437,63.199 81.338,64.3 80.437,65.599 80.138,66.5 79.637,67.799 79.538,68.599 79.538,69.7 79.637,69.7 80.738,69.799 81.037,70 81.338,70.1 81.838,70.5 82.037,70.9 82.138,71.599 82.037,72.199 82.037,72.7 82.037,73.599 81.838,73.399 82.437,74.399 83.138,75.199 83.538,75.5 84.238,76.3 84.338,76.799 84.238,77.199 83.938,78.5 83.238,79.9 82.838,81 82.437,81.599 82.838,82.1 83.437,82.399 83.938,82.599 84.338,82.599 84.838,83 85.338,83.5 85.637,84.3 85.637,84.9 85.338,86 85.138,86.199 86.538,86.199 88.338,85.7 90.338,84.799 90.838,84.5 92.238,84 92.738,83.399 93.138,82.7 93.437,82.399 94.138,82.3 94.637,82.1 95.838,82.3 96.838,82.399 97.538,82.3 98.037,81.799 98.338,80.799 98.637,79.3 99.338,77.9 99.637,77.399 100.138,76.799 101.838,75.799 102.738,75.5 103.437,75.199 104.037,75 102.437,73.3 100.738,71.199 101.037,70.1 101.037,69 101.037,68.599 101.037,67.9 100.838,67.5 100.738,66.799 100.838,66.399 101.238,66.199 " style="fill:#fff200;stroke:#363639;stroke-width:0;stroke-linejoin:round;stroke-opacity:1"/><polygon id="polygon24" points="85.437,57.599 85.138,52.5 84.637,51.399 84.637,49.9 83.538,49.1 83.437,48.599 83.437,48.1 83.437,45.9 83.437,45.799 82.838,46.199 82.338,46.399 81.538,46.7 80.238,46.7 78.738,46.399 77.637,45.799 76.338,45.1 75.538,44.7 74.938,44.5 74.437,44.7 73.838,45 73.238,45.799 59.338,56.3 58.437,56.799 57.738,57.1 57.138,57.399 57.138,59.399 57.138,60.1 57.138,61.3 57.338,62.1 57.037,62.3 56.037,62.399 55.437,63.1 55.238,63.5 55.538,64.5 55.538,65.1 55.538,65.7 55.437,66.399 54.938,66.5 52.938,66.399 52.238,66.399 51.637,66.5 50.838,66.7 50.238,67.199 49.738,67.799 49.138,67.9 48.338,67.799 48.138,67.799 48.037,68.399 47.738,69.7 47.838,70.3 48.538,70.9 49.637,71.199 50.538,71.7 50.738,71.9 51.037,72.199 51.637,72.799 52.238,74.1 52.637,75.3 52.738,75.199 53.338,75.199 54.037,75.199 54.637,75.5 55.138,75.5 54.838,75.599 55.938,75.199 56.538,74.7 56.838,73.9 56.637,73.3 56.637,72 56.637,71.399 57.338,70.799 57.938,70.5 58.738,70.3 60.437,70 61.437,69.799 62.037,70 62.637,70.1 62.938,71.399 63.238,71.599 63.637,72 64.437,71.9 65.037,71.399 65.838,70.9 66.238,70.799 67.238,70.799 67.738,70.9 68.338,71.199 68.838,71.7 69.738,71.9 70.538,71.7 71.138,71.399 72.437,70.5 73.238,70 73.838,69.799 74.938,69.399 75.738,69.399 76.838,69.799 77.437,70.1 77.938,70 78.738,69.799 79.637,69.7 79.538,69.7 79.538,68.599 79.637,67.799 80.138,66.5 80.437,65.599 81.338,64.3 82.437,63.199 83.238,62.399 84.037,61.3 84.637,60.399 85.338,59.1 " style="fill:#007146;stroke:#363639;stroke-opacity:1"/><polygon id="polygon26" points="51.338,53.9 51.037,53 50.738,52.5 36.037,42.599 36.037,42.599 32.138,42.799 32.938,66.1 32.938,67 32.437,67.799 31.538,68.3 24.238,68.1 23.838,68.3 23.338,68.599 23.037,68.9 22.738,68.7 22.437,68.399 22.037,68.1 21.738,67.799 20.938,67.5 20.838,68.1 20.637,68.399 20.338,68.9 19.838,69 18.938,68.9 18.338,68.7 17.838,68.9 17.637,69.5 17.637,70.1 17.838,70.1 17.637,70.3 18.338,70.799 18.437,71.399 18.437,72 18.138,72.799 17.238,73.9 17.037,75 17.238,76 17.838,76.599 17.938,76.599 19.838,76.9 21.738,77.399 22.538,77.7 23.138,78.199 23.338,77.5 23.637,77.199 24.138,76.399 24.637,77.7 25.738,77.1 25.538,77.7 25.538,78.3 25.338,78.599 26.338,79.9 26.838,80.7 26.838,80.7 28.238,80.399 28.838,80.199 29.938,80.1 31.037,79.9 31.838,79.7 31.838,79.7 31.838,79 31.938,78.5 32.138,77.7 32.938,76.399 34.037,75.199 34.637,74.7 35.938,74.1 36.738,73.799 38.437,72.3 39.037,71.7 39.338,70.5 39.738,69.7 40.437,68.7 41.138,68.599 41.938,68.399 42.338,68.399 43.637,68.599 44.138,68.399 44.738,68.3 45.338,67.199 45.938,66.7 46.637,66.399 47.238,66.5 47.738,66.7 48.138,67 48.338,67.799 49.138,67.9 49.738,67.799 50.238,67.199 50.838,66.7 51.637,66.5 52.238,66.399 52.938,66.399 54.938,66.5 55.437,66.399 55.538,65.7 55.538,65.1 55.538,64.5 55.238,63.5 55.437,63.1 56.037,62.399 57.037,62.3 57.338,62.1 57.138,61.3 57.138,60.1 57.138,59.399 57.138,57.399 56.338,57.7 55.738,57.7 55.538,57.1 55.538,56.3 55.738,56 55.437,55.399 55.138,55 53.338,54.9 52.238,54.7 51.838,54.399 " style="fill:#c0262d;stroke:#363639;stroke-opacity:1"/><polygon id="polygon28" points="61.437,69.799 62.037,70 62.637,70.1 62.938,71.399 63.238,71.599 63.637,72 64.437,71.9 65.037,71.399 65.838,70.9 66.238,70.799 67.238,70.799 67.738,70.9 68.338,71.199 68.838,71.7 69.738,71.9 70.538,71.7 71.138,71.399 72.437,70.5 73.238,70 73.838,69.799 74.938,69.399 75.738,69.399 76.838,69.799 77.437,70.1 77.938,70 78.738,69.799 79.637,69.7 79.637,69.7 80.738,69.799 81.037,70 81.338,70.1 81.838,70.5 82.037,70.9 82.138,71.599 82.037,72.199 82.037,72.7 82.037,73.599 81.838,74.7 81.738,75.5 81.238,76.3 80.738,77.1 79.838,77.9 79.138,78.799 78.838,79.399 78.338,81.199 77.938,81.599 76.938,82.399 76.037,83 74.138,84.3 73.338,84.799 72.437,85.7 71.738,86.199 71.338,87 70.838,88.399 70.637,89 70.037,89.3 69.437,89.5 68.938,89.5 68.437,89.5 68.138,89.5 67.738,89.599 67.738,90.1 67.838,90.7 68.037,92 68.037,93.1 68.037,93.3 66.938,93.1 65.938,93.399 65.138,93.9 64.238,94.799 63.437,95 62.838,94.7 62.138,94.399 61.738,93.9 61.238,93.1 60.738,92 60.338,90.9 59.538,90.1 58.538,89.799 57.637,89.799 55.738,89.799 55.138,89.799 55.138,90 55.138,89.599 55.138,88.7 54.938,87.799 54.838,86.7 54.437,86 53.838,85.399 53.738,84.599 53.738,84.1 53.838,83.5 54.437,82.599 55.138,81.5 55.538,80.199 56.037,78.599 56.037,77.7 56.037,77.1 55.938,76.599 55.538,76 54.938,75.5 54.838,75.599 55.938,75.199 56.538,74.7 56.838,73.9 56.637,73.3 56.637,72 56.637,71.399 57.338,70.799 57.938,70.5 58.738,70.3 60.437,70 " style="fill:#c0262d;stroke:#363639;stroke-opacity:1"/><polygon id="polygon30" points="51.037,81 51.338,80.199 51.138,79.7 51.037,79 50.738,78.5 49.738,77.9 49.938,77.9 50.238,77.7 50.838,77.5 51.138,77.1 51.338,76 51.838,75.5 51.938,75.3 52.637,75.3 52.738,75.199 53.338,75.199 54.037,75.199 54.637,75.5 55.138,75.5 54.938,75.5 55.538,76 55.938,76.599 56.037,77.1 56.037,77.7 56.037,78.599 55.538,80.199 55.138,81.5 54.437,82.599 53.838,83.5 53.738,84.1 53.738,84.599 53.838,85.399 54.437,86 54.838,86.7 54.938,87.799 55.138,88.7 55.138,89.599 55.138,90 55.138,89.799 54.437,90 52.738,91.1 52.238,91.199 52.138,91.199 52.138,90.599 52.238,90 52.637,89.199 52.938,87.3 52.738,85.399 52.437,84.599 51.938,84 51.637,83.5 51.138,82.599 51.037,81.9 " style="fill:#32327b;stroke:#363639;stroke-opacity:1"/><polygon id="polygon32" points="51.637,83.5 51.938,84 52.437,84.599 52.738,85.399 52.938,87.3 52.637,89.199 52.238,90 52.138,90.599 52.138,91.199 52.138,91.199 51.138,91.5 50.238,91.7 50.037,91.7 48.338,89.199 48.037,88.7 48.037,88.1 48.538,87.1 49.138,86.199 49.238,85.7 49.437,85.599 49.238,84.9 48.938,84.599 48.138,84.9 47.538,84.799 47.437,84.5 47.238,83.799 47.437,82.9 47.538,82.599 47.538,82.399 48.037,81.3 48.338,80.399 48.037,79.9 48.037,79.599 47.538,79.1 47.238,78.799 46.738,78.5 46.738,78.599 48.037,78 49.138,77.9 49.738,77.9 50.738,78.5 51.037,79 51.138,79.7 51.338,80.199 51.037,81 51.037,81.9 51.138,82.599 " style="fill:#007146;stroke:#363639;stroke-opacity:1"/><polygon id="polygon34" points="43.338,93.7 42.538,92.799 41.738,92.3 41.138,91.7 40.338,90.9 40.037,90 39.738,88.9 39.738,87.799 39.838,87.3 40.138,86.3 40.838,85.399 40.838,84.799 40.938,84 40.838,83.199 40.637,82.399 40.637,82.599 40.637,81.799 40.437,81.199 39.838,80.7 39.738,79.599 39.838,79.3 40.138,78.599 40.437,78.3 40.838,78.3 41.437,78.3 42.238,78.3 43.138,78.599 43.938,79 44.538,79 45.037,79 45.938,78.599 46.738,78.5 47.238,78.799 47.538,79.1 48.037,79.599 48.037,79.9 48.338,80.399 48.037,81.3 47.538,82.399 47.538,82.599 47.437,82.9 47.238,83.799 47.437,84.5 47.538,84.799 48.138,84.9 48.938,84.599 49.238,84.9 49.437,85.599 49.238,85.7 49.138,86.199 48.538,87.1 48.037,88.1 48.037,88.7 48.338,89.199 50.037,91.7 50.238,91.7 49.138,91.9 48.338,92 47.437,92.199 46.338,92.599 45.338,93.3 44.838,93.7 44.437,94.5 43.637,94.7 43.437,94.7 43.437,94.199 " style="fill:#c0262d;stroke:#363639;stroke-opacity:1"/><polygon id="polygon36" points="33.037,95 32.738,95.599 32.138,96.1 31.637,96.399 31.037,96.399 30.437,96.399 29.637,96.399 29.037,96.1 28.538,95.799 28.538,95.599 28.538,95.199 28.637,93.9 28.637,93.399 28.637,92.799 28.338,92.199 26.938,92.5 26.437,92.199 26.338,91.5 26.437,90.9 26.838,90.3 26.938,89.599 26.938,89.3 26.838,88.9 26.637,87.9 26.338,87.799 26.037,87.799 26.037,87.799 25.738,87.599 25.738,87.399 25.738,87 26.037,87 26.338,86.7 26.437,86.7 26.838,86.7 27.138,86.5 27.238,86.3 27.437,86 27.238,84.9 27.238,84.1 27.138,83.199 27.138,81.599 26.838,80.7 28.238,80.399 28.838,80.199 29.938,80.1 31.037,79.9 31.838,79.7 31.838,79.7 31.938,80.399 32.138,80.799 32.637,81.5 33.037,81.799 33.738,82.1 35.338,82.3 36.838,81.9 37.637,81.599 38.738,81.799 39.738,81.9 40.637,82.399 40.838,83.199 40.938,84 40.838,84.799 40.838,85.399 40.138,86.3 39.838,87.3 39.738,87.799 39.738,88.9 40.037,90 40.338,90.9 41.138,91.7 41.738,92.3 42.538,92.799 43.338,93.7 43.437,94.199 43.437,94.7 43.637,94.7 43.037,94.7 42.037,94.199 41.138,93.9 40.138,93.9 38.138,93.599 36.437,93.599 34.938,93.9 34.037,94.1 33.738,94.199 33.437,94.5 " style="fill:#32327b;stroke:#363639;stroke-opacity:1"/><polygon id="polygon38" points="39.338,70.5 39.738,69.7 40.437,68.7 41.138,68.599 41.938,68.399 42.338,68.399 43.637,68.599 44.138,68.399 44.738,68.3 45.338,67.199 45.938,66.7 46.637,66.399 47.238,66.5 47.738,66.7 48.138,67 48.338,67.799 48.138,67.799 48.037,68.399 47.738,69.7 47.838,70.3 48.538,70.9 49.637,71.199 50.538,71.7 50.738,71.9 51.037,72.199 51.637,72.799 52.238,74.1 52.637,75.3 52.637,75.3 51.938,75.3 51.838,75.5 51.338,76 51.138,77.1 50.838,77.5 50.238,77.7 49.938,77.9 49.738,77.9 49.138,77.9 48.037,78 46.738,78.599 46.738,78.5 45.938,78.599 45.037,79 44.538,79 43.938,79 43.138,78.599 42.238,78.3 41.437,78.3 40.838,78.3 40.437,78.3 40.138,78.599 39.838,79.3 39.738,79.599 39.838,80.7 40.437,81.199 40.637,81.799 40.637,82.599 40.637,82.399 39.738,81.9 38.738,81.799 37.637,81.599 36.838,81.9 35.338,82.3 33.738,82.1 33.037,81.799 32.637,81.5 32.138,80.799 31.938,80.399 31.838,79.7 31.838,79 31.938,78.5 32.138,77.7 32.938,76.399 34.037,75.199 34.637,74.7 35.938,74.1 36.738,73.799 38.437,72.3 39.037,71.7 " style="fill:#fff200;stroke:#363639;stroke-width:0;stroke-linejoin:round;stroke-opacity:1"/><polygon id="polygon40" points="10.138,66.5 10.637,65.9 11.338,65.599 12.037,65.399 12.637,65.599 13.238,65.9 13.938,66.5 14.338,67 14.538,67.5 15.138,67.599 15.738,67.599 16.238,67.599 16.437,68.1 16.437,68.9 16.538,69.399 17.037,69.799 17.637,70.3 17.838,70.1 17.637,70.3 18.338,70.799 18.437,71.399 18.437,72 18.138,72.799 17.238,73.9 17.037,75 17.238,76 17.838,76.599 16.738,76.3 16.238,76.3 14.637,76.599 14.037,76.599 14.037,76.599 14.037,76.1 12.938,76.3 12.037,76.3 10.938,76.399 10.238,76.599 7.738,77.1 7.637,76.799 7.338,76.3 7.338,75.799 7.338,74.9 7.637,74.9 10.138,74.7 12.138,74.7 12.637,74.399 12.838,74.1 12.637,73.799 12.138,73.399 11.538,73.399 10.238,73.599 9.338,73.799 8.838,73.799 8.238,73.9 7.938,73.9 7.738,73.599 7.338,72.199 6.838,71.399 6.838,70.5 6.838,70 7.338,69 8.037,67.9 8.437,67.599 9.037,67.599 9.637,67.199 " style="fill:#007146;stroke:#363639;stroke-opacity:1"/><polygon id="polygon42" points="12.637,74.399 12.138,74.7 10.138,74.7 7.637,74.9 7.338,74.9 7.738,74.1 7.938,73.9 8.238,73.9 8.838,73.799 9.338,73.799 10.238,73.599 11.538,73.399 12.138,73.399 12.637,73.799 12.838,74.1 " style="fill:#fff200;stroke:#363639;stroke-width:0;stroke-linejoin:round;stroke-opacity:1"/><polygon id="polygon44" points="7.738,77.1 10.238,76.599 10.938,76.399 12.037,76.3 12.938,76.3 14.037,76.1 14.037,76.599 14.037,79.399 13.538,79.399 12.838,79.3 12.338,79.399 11.838,79.399 11.338,79.1 10.938,79 10.938,78.199 10.738,77.7 10.437,77.5 9.938,77.5 9.338,77.5 8.538,77.5 7.938,77.199 7.637,76.799 " style="fill:#c0262d;stroke:#363639;stroke-opacity:1"/><polygon id="polygon46" points="11.838,79.399 12.338,79.399 12.838,79.3 13.538,79.399 14.037,79.399 14.037,76.599 14.037,76.599 14.637,76.599 16.238,76.3 16.738,76.3 17.838,76.599 17.938,76.599 19.838,76.9 21.738,77.399 22.538,77.7 23.138,78.199 23.338,77.5 23.637,77.199 24.138,76.399 24.637,77.7 25.738,77.1 25.538,77.7 25.538,78.3 25.338,78.599 26.338,79.9 26.838,80.7 26.838,80.7 27.138,81.599 27.138,83.199 27.238,84.1 27.238,84.9 27.437,86 27.238,86.3 27.138,86.5 26.838,86.7 26.437,86.7 26.338,86.7 26.037,87 25.738,87 25.738,87.399 25.738,87.599 26.037,87.799 26.037,87.799 26.037,87.799 25.738,88.1 25.338,88.199 25.037,88.399 24.437,88.199 24.238,87.9 24.238,87.599 24.238,87.3 24.238,86.5 24.138,86.199 23.838,86 23.338,86 23.037,86.199 22.437,86.7 21.938,86.799 21.138,86.799 20.838,86.5 20.538,86 20.538,86 20.838,84.799 20.838,84.5 20.838,84 20.637,83.5 20.538,83 20.037,82.599 19.738,82.399 19.238,82.3 18.637,82.1 17.938,82.1 17.338,82.3 16.738,82.7 16.138,83.199 15.738,83.5 15.637,83.7 15.637,83.799 15.037,83.7 14.338,83.5 13.738,83.399 13.437,83.199 13.138,82.7 12.637,82.1 12.138,81 12.138,80.199 12.037,79.9 11.838,79.399 " style="fill:#fff200;stroke:#363639;stroke-width:0.64957753;stroke-linejoin:round;stroke-opacity:1;stroke-miterlimit:4;stroke-dasharray:none"/><polygon id="polygon48" points="20.037,82.599 19.738,82.399 19.238,82.3 18.637,82.1 17.938,82.1 17.338,82.3 16.738,82.7 16.138,83.199 15.738,83.5 15.637,83.7 15.637,83.799 15.338,84.599 15.338,85.399 15.437,86.3 15.738,87 16.437,87.599 16.838,88.1 17.938,88.5 18.938,89.199 18.938,89 19.437,88.5 19.838,87.799 20.138,87.399 20.538,86.7 20.538,86 20.838,84.799 20.838,84.5 20.838,84 20.637,83.5 20.538,83 " style="fill:#32327b;stroke:#363639;stroke-opacity:1"/><polygon id="polygon50" points="23.037,86.199 23.338,86 23.838,86 24.138,86.199 24.238,86.5 24.238,87.3 24.238,87.599 24.238,87.9 24.437,88.199 25.037,88.399 25.338,88.199 25.738,88.1 26.037,87.799 26.037,87.799 26.037,87.799 26.338,87.799 26.637,87.9 26.838,88.9 26.938,89.3 26.938,89.599 26.838,90.3 26.437,90.9 26.338,91.5 26.437,92.199 26.938,92.5 28.338,92.199 28.637,92.799 28.637,93.399 28.637,93.9 28.538,95.199 28.538,95.599 27.538,95 26.637,94.199 25.538,93 24.738,92.599 23.838,92.5 23.338,92.5 22.838,92.5 22.437,92.3 22.037,91.9 21.738,91.1 20.938,90.3 19.838,89.599 18.938,89.199 18.938,89 19.437,88.5 19.838,87.799 20.138,87.399 20.538,86.7 20.538,86 20.838,86.5 21.138,86.799 21.938,86.799 22.437,86.7 " style="fill:#c0262d;stroke:#363639;stroke-opacity:1"/><polygon id="polygon52" points="70.838,88.399 71.338,87 71.738,86.199 72.437,85.7 73.338,84.799 74.138,84.3 76.037,83 76.938,82.399 77.938,81.599 78.338,81.199 78.838,79.399 79.138,78.799 79.838,77.9 80.738,77.1 81.238,76.3 81.738,75.5 81.838,74.7 82.037,73.599 81.838,73.399 82.437,74.399 83.138,75.199 83.538,75.5 84.238,76.3 84.338,76.799 84.238,77.199 83.938,78.5 83.238,79.9 82.838,81 82.437,81.599 82.838,82.1 83.437,82.399 83.938,82.599 84.338,82.599 84.838,83 85.338,83.5 85.637,84.3 85.637,84.9 85.338,86 85.338,86.199 84.838,86.3 84.838,86.5 84.037,87 83.437,87.9 82.938,88.5 82.838,89.799 82.838,90.7 82.938,91.199 83.238,91.7 84.037,92.599 84.838,93.3 85.037,93.3 86.437,93.9 86.738,94.199 87.238,95 87.238,94.799 87.338,95.799 87.338,96.3 87.338,96.9 87.238,98 83.938,98.1 82.338,98.1 80.637,98.5 80.637,98.599 79.637,98.599 78.037,98.799 75.538,99.1 74.338,98.9 73.637,99.1 71.738,99.199 71.738,99.1 71.637,97.799 71.437,97 71.637,96.1 71.637,95.799 71.637,95.5 71.437,95.199 71.138,95.199 70.637,95.199 70.037,95.199 69.738,94.799 69.538,94.5 69.538,93.9 69.238,93.9 68.637,93.599 68.037,93.3 68.037,93.1 68.037,92 67.838,90.7 67.738,90.1 67.738,89.599 68.138,89.5 68.437,89.5 68.938,89.5 69.437,89.5 70.037,89.3 70.637,89 " style="fill:#32327b;stroke:#363639;stroke-opacity:1"/><polygon id="polygon54" points="74.938,101.599 71.738,102.199 71.637,102.1 71.637,101.1 71.637,100.3 71.738,99.1 71.738,99.199 73.637,99.1 74.338,98.9 75.538,99.1 75.538,100 75.538,101.1 75.437,101.399 " style="fill:#007146;stroke:#363639;stroke-opacity:1"/><polygon id="polygon56" points="72.437,108.199 71.938,107.599 71.437,107 71.338,106.199 71.338,105.7 71.637,105.199 72.238,104.7 72.437,104.399 72.238,104.1 72.138,104 71.637,102.1 71.738,102.199 74.938,101.599 75.437,101.399 75.538,101.1 75.538,100 75.538,99.1 78.037,98.799 79.637,98.599 80.637,98.599 80.437,98.599 80.738,99.199 81.238,99.599 81.538,99.9 82.138,99.9 82.637,99.7 83.238,99.199 83.538,99.199 83.538,99.599 83.538,100.199 83.538,100.7 83.238,101.399 82.938,102.1 83.238,102.199 84.538,105.7 84.637,106.3 84.838,107.1 85.037,108.399 84.637,108.799 84.538,109 83.938,109.3 83.138,109.5 82.338,109.3 82.037,109 81.738,108.5 81.238,108.1 80.637,107.7 79.838,108.1 79.338,108.7 79.037,109.199 79.037,109.799 78.838,110.399 78.838,110.9 78.738,111.5 78.538,112.1 78.238,112.599 77.738,113.1 77.238,113.1 76.338,112.9 75.738,112.9 75.538,113.1 75.437,113.1 75.437,112.9 75.037,112.9 73.538,112.1 72.738,111.7 72.238,111 72.138,110.599 71.938,110.1 71.938,109.599 72.138,109.199 72.238,108.7 72.437,108.5 " style="fill:#fff200;stroke:#363639;stroke-width:0.64957753;stroke-linejoin:round;stroke-opacity:1;stroke-miterlimit:4;stroke-dasharray:none"/><polygon id="polygon58" points="96.838,82.399 95.838,82.3 94.637,82.1 94.138,82.3 93.437,82.399 93.138,82.7 92.738,83.399 92.238,84 90.838,84.5 90.338,84.799 88.338,85.7 86.538,86.199 85.138,86.199 85.338,86.199 84.838,86.3 84.838,86.5 84.037,87 83.437,87.9 82.938,88.5 82.838,89.799 82.838,90.7 82.938,91.199 83.238,91.7 84.037,92.599 84.838,93.3 85.037,93.3 86.437,93.9 86.738,94.199 87.238,95 87.037,95 87.338,95 88.437,94.5 91.138,93.7 91.738,93.599 92.338,93.7 93.037,93.9 93.637,93.599 93.637,93.599 94.138,93.1 94.437,92.5 94.637,91.7 95.037,91.199 95.338,90.7 95.738,90.599 96.637,90.399 97.538,90.399 98.538,91.1 99.338,91.5 100.138,91.9 102.738,92.3 103.238,92.3 104.138,92 104.538,91.7 105.437,90.7 106.238,90.399 106.738,90.399 107.138,90.599 107.437,90.7 108.138,91.1 108.637,91.199 108.938,91.1 109.338,90.399 109.538,90.1 109.838,89.5 110.637,88.9 111.238,88.7 114.437,88.5 116.437,88.7 116.338,88.1 115.538,86.799 114.838,86 114.138,85.9 113.738,85.599 113.738,84.799 113.637,83.799 113.037,84 112.538,84.1 112.037,84 111.437,83.799 111.238,83.5 110.938,83.199 110.938,82.599 110.938,81.9 110.338,81.5 109.738,81.3 108.637,81.199 108.138,81.199 107.437,80.7 107.338,80.1 107.338,79.9 107.338,79.399 107.437,78.799 107.338,77.9 106.838,77.399 106.238,77.199 105.938,77.199 105.238,77.199 104.637,76.799 104.637,76.399 104.637,76 104.838,75.3 104.838,75 104.037,75 103.437,75.199 102.738,75.5 101.838,75.799 100.138,76.799 99.637,77.399 99.338,77.9 98.637,79.3 98.338,80.799 98.037,81.799 97.538,82.3 " style="fill:#007146;stroke:#363639;stroke-opacity:1"/><polygon id="polygon60" points="86.738,115.3 87.338,114.799 87.838,114 88.138,113.1 87.938,110.399 88.138,109.799 88.338,109.3 88.938,109 90.037,108.1 90.637,107.7 90.938,107.1 91.238,106.3 91.238,105.1 91.437,103.799 91.938,101.9 92.338,100.5 93.138,99.399 93.637,98.1 93.938,96.7 93.938,95.5 93.637,93.599 93.037,93.9 92.338,93.7 91.738,93.599 91.138,93.7 88.437,94.5 87.338,95 87.037,95 87.238,94.799 87.338,95.799 87.338,96.3 87.338,96.9 87.238,98 83.938,98.1 82.338,98.1 80.637,98.5 80.437,98.599 80.738,99.199 81.238,99.599 81.538,99.9 82.138,99.9 82.637,99.7 83.238,99.199 83.538,99.199 83.538,99.599 83.538,100.199 83.538,100.7 83.238,101.399 82.938,102.1 83.238,102.199 84.538,105.7 84.637,106.3 84.838,107.1 85.037,108.399 84.637,108.799 84.538,109 83.938,109.3 83.138,109.5 82.338,109.3 82.037,109 81.738,108.5 81.238,108.1 80.637,107.7 79.838,108.1 79.338,108.7 79.037,109.199 79.037,109.799 78.838,110.399 78.838,110.9 78.738,111.5 78.538,112.1 78.238,112.599 77.738,113.1 77.238,113.1 76.338,112.9 75.738,112.9 75.538,113.1 75.437,113.1 75.437,112.9 76.338,113.7 76.637,114.3 76.838,114.799 76.938,115.3 77.238,115.799 77.738,115.9 78.238,116.199 78.738,116.9 79.037,118.3 79.037,118.399 80.138,117.199 80.738,116.199 81.338,115.399 82.037,115 82.637,114.5 83.138,114.5 83.538,114.5 84.238,114.799 85.138,115.399 85.738,115.399 " style="fill:#c0262d;stroke:#363639;stroke-opacity:1"/><polygon id="polygon62" points="123.738,95.199 123.238,94.799 122.938,94.199 122.738,93.399 122.738,93.1 122.938,92.799 123.838,92.5 124.338,91.9 124.338,91.199 124.338,91.1 124.338,91.199 124.938,91.399 125.738,91.399 126.338,91.199 126.838,91.1 127.637,90.7 128.838,90.399 129.938,90 130.637,89.799 131.838,89.199 131.838,89 131.838,91.1 132.138,91.7 132.938,93.9 133.238,94.5 133.637,95.5 133.437,95.9 133.138,96.3 132.637,96.599 131.538,97 131.238,97.399 131.037,97.7 130.938,98.5 131.238,99.199 131.437,99.9 131.238,100.7 131.238,101.3 130.938,102.399 126.037,102.399 123.238,102.399 122.538,102.399 121.338,102.7 120.738,103.3 121.037,102.1 121.037,101.3 121.338,100.7 121.437,100 121.637,99.7 122.138,98.9 123.538,97.399 124.037,96.399 124.138,95.799 124.138,95.5 " style="fill:#007146;stroke:#363639;stroke-opacity:1"/><polygon id="polygon64" points="124.138,103.3 124.437,104.399 124.437,105.399 124.637,106.599 124.637,107.1 124.637,108.399 124.437,109.199 124.138,109.5 124.138,109.599 123.738,109.3 123.238,109.199 123.037,109 122.437,108.799 122.437,108.399 122.238,108.1 122.138,107.7 121.938,107.7 121.838,108.399 121.637,108.799 121.037,109.3 120.338,109.5 120.238,109.5 120.037,108.5 120.037,107.7 120.238,107.1 120.338,105.1 120.538,104.599 120.738,103.599 120.838,103.3 121.437,102.5 122.437,102.399 123.338,102.399 " style="fill:#c0262d;stroke:#363639;stroke-opacity:1"/><polygon id="polygon66" points="122.138,107.7 122.238,108.1 122.437,108.399 122.437,108.799 123.037,109 123.238,109.199 123.738,109.3 124.138,109.599 124.138,109.5 124.037,109.599 124.338,110.3 124.338,110.9 124.037,111.7 123.338,112.3 122.437,112.9 121.637,113.599 121.037,113.7 120.738,112.9 120.538,112.1 120.338,110.9 120.238,109.5 120.338,109.5 121.037,109.3 121.637,108.799 121.838,108.399 121.938,107.7 " style="fill:#007146;stroke:#363639;stroke-opacity:1"/><polygon id="polygon68" points="145.538,119.7 145.538,119.199 145.238,118.599 144.437,117.799 143.838,117 143.538,116.399 143.637,115.399 144.338,114.199 144.738,112.9 145.037,112.5 144.938,112.3 141.738,109.599 139.538,107.3 138.338,105.7 138.037,105.5 137.338,105.399 135.838,105.199 134.738,104.9 133.938,104.399 133.437,103.3 132.538,102.7 131.437,102.399 130.938,102.399 126.037,102.399 123.238,102.399 123.538,102.399 124.138,103.3 124.437,104.399 124.437,105.399 124.637,106.599 124.637,107.1 124.637,108.399 124.437,109.199 124.138,109.5 124.037,109.599 124.338,110.3 124.338,110.9 124.037,111.7 123.338,112.3 122.437,112.9 121.637,113.599 121.037,113.7 121.037,113.7 121.437,115.3 122.437,117.599 123.538,119.799 124.037,120.5 124.938,122.199 124.938,122.1 125.538,122.799 126.238,123.599 126.838,124.1 127.637,124.7 128.437,125 129.938,124.9 131.238,124.7 132.338,124.599 132.838,124.599 132.938,124.9 132.938,125.5 133.138,126 133.437,126.3 133.738,126.599 134.538,126.5 135.037,126.9 135.138,127.399 135.138,127.7 135.138,128.3 135.037,129.399 135.037,130.399 135.138,130.199 135.838,129.799 136.738,129.599 137.738,129.399 138.437,129.799 139.437,130.199 140.238,130.399 140.838,130.5 141.437,130.199 141.637,129.799 142.138,128.799 142.738,128 143.238,127.9 143.637,127.9 143.938,127.9 144.637,128.199 145.238,127.7 145.838,127.399 146.338,127.199 146.538,127.199 147.138,127.9 146.538,127.7 146.338,127.1 146.138,125.7 146.037,124.7 145.538,123.9 145.037,123.199 144.738,122.399 144.738,121.7 144.938,121 145.437,120.3 " style="fill:#32327b;stroke:#363639;stroke-opacity:1"/><polygon id="polygon70" points="147.437,107.599 147.238,108.5 146.938,109.3 146.338,109.9 145.838,110.399 145.238,110.599 145.238,111.5 145.037,112.5 144.938,112.3 141.738,109.599 139.538,107.3 138.338,105.7 138.037,105.5 137.338,105.399 135.838,105.199 134.738,104.9 133.938,104.399 133.437,103.3 132.538,102.7 131.437,102.399 130.938,102.399 131.238,101.3 131.238,100.7 131.437,99.9 131.238,99.199 130.938,98.5 131.037,97.7 131.238,97.399 131.538,97 132.637,96.599 133.138,96.3 133.437,95.9 133.637,95.5 133.238,94.5 132.938,93.9 132.138,91.7 131.838,91.1 131.838,89 131.838,89.199 132.538,88.7 133.238,88.5 133.738,88.5 134.238,88.399 135.138,88.7 135.637,88.9 136.238,89 136.437,89 137.538,89.199 138.138,89.3 138.838,89.3 139.538,89.5 140.238,89.5 140.637,89.5 141.637,90.3 142.138,90.599 142.738,90.7 143.238,90.7 145.037,90.399 145.838,90 146.338,89.5 146.938,88.9 147.637,88.5 148.838,88.9 149.637,89 150.938,89.199 152.037,89.3 152.037,89.3 152.138,102.1 152.037,102.1 151.637,102.399 151.037,103.199 150.738,104 150.437,104.399 150.138,104.599 149.138,105.1 148.338,105.7 148.037,106.199 147.738,106.799 " style="fill:#c0262d;stroke:#363639;stroke-opacity:1"/><polygon id="polygon72" points="157.338,95.5 158.437,95.199 159.238,95 159.738,94.5 160.538,93.9 161.437,92.599 162.538,91.399 163.338,90.3 163.838,89.199 163.938,88.1 164.138,87.399 164.738,86.3 166.037,85.199 166.437,84.799 166.838,83.799 166.838,82.9 166.938,81.799 167.238,80.7 167.738,79.599 168.238,78.5 168.637,77.399 169.138,76.399 169.738,75.599 169.938,75.3 170.138,74.7 169.938,74.399 169.738,73.599 169.637,72.7 169.637,71.599 169.938,70.599 170.138,70.3 170.138,70 169.738,69.7 169.437,69.5 169.138,69.399 168.838,69 168.338,69 168.037,69 167.538,69.199 166.838,70.1 166.138,70.5 165.338,70.9 164.437,70.9 163.637,70.9 163.138,70.9 162.538,70.9 162.037,71.1 161.437,71.7 160.838,72.3 160.037,72.7 159.538,72.5 159.037,72.5 158.637,72.7 157.838,73 157.338,73.3 156.238,73.599 155.138,73.9 154.637,73.799 154.238,73.3 153.437,72.3 153.238,72 152.938,72.199 152.637,72.7 152.437,73.1 152.437,73.799 152.637,74.399 152.938,74.7 153.538,75.5 154.238,75.799 154.838,76.1 157.037,77.1 157.538,77.199 158.637,77.5 160.037,77.9 161.238,78.199 161.738,78.599 162.037,79.7 162.037,80.799 161.637,81.9 160.838,83.5 160.037,84.799 159.538,85.1 159.437,85.199 158.437,85.599 157.637,86.7 156.838,87.599 155.738,88.199 155.138,88.199 154.637,88.1 153.238,88.7 152.637,89 152.138,89.199 152.037,102.1 152.338,101.799 153.437,101.1 154.238,100.7 154.538,100 155.037,98.599 155.637,97.7 156.437,97 156.538,96.7 156.738,95.9 156.838,95.599 " style="fill:#fff200;stroke:#363639;stroke-width:0.64957753;stroke-linejoin:round;stroke-opacity:1;stroke-miterlimit:4;stroke-dasharray:none"/><polygon id="polygon74" points="148.037,66.799 149.437,68.3 150.738,68.9 151.538,69.399 151.538,69.5 151.338,70.1 150.238,70.799 150.238,71.1 150.238,71.199 150.238,71.199 150.138,71.399 149.437,71.599 149.037,71.9 148.338,72.5 148.338,73.599 148.538,74.199 149.037,74.9 149.838,75.3 150.538,75.5 151.338,75.3 152.138,75.199 152.938,74.7 152.938,74.7 153.538,75.5 154.238,75.799 154.838,76.1 157.037,77.1 157.538,77.199 158.637,77.5 160.037,77.9 161.238,78.199 161.738,78.599 162.037,79.7 162.037,80.799 161.637,81.9 160.838,83.5 160.037,84.799 159.538,85.1 159.437,85.199 158.437,85.599 157.637,86.7 156.838,87.599 155.738,88.199 155.138,88.199 154.637,88.1 153.238,88.7 152.637,89 152.138,89.199 152.037,89.3 150.938,89.199 149.637,89 148.838,88.9 147.637,88.5 146.938,88.9 146.338,89.5 145.838,90 145.037,90.399 143.238,90.7 142.738,90.7 142.138,90.599 141.637,90.3 140.637,89.5 140.238,89.5 139.538,89.5 138.838,89.3 138.138,89.3 137.538,89.199 136.437,89 136.437,89 136.437,88.199 136.238,87.799 136.138,86.799 135.637,86.3 134.738,86 134.238,85.599 133.938,84.799 133.738,83.799 133.637,83.399 133.437,83 132.938,83 132.138,83.199 131.238,82.9 130.437,82.7 129.938,82.399 129.538,81.5 129.338,81 129.538,80.399 129.938,79.7 130.437,79 131.238,77.7 131.238,77.1 131.238,76.3 131.037,75.599 130.938,75.199 131.538,73.9 132.838,72 134.338,69 135.838,66.799 136.138,65.399 135.637,64.3 135.338,63.9 134.538,62.399 134.538,62 134.538,61.7 135.338,60.5 136.138,59.799 136.437,59.1 137.037,58.3 137.738,56.9 138.338,55.7 138.338,55.399 138.437,55.7 139.138,56.799 139.538,57.9 140.538,59.799 141.437,61.3 142.138,61.799 143.037,62.1 144.338,62.3 145.037,62.799 146.338,64.799 " style="fill:#007146;stroke:#363639;stroke-opacity:1"/><polygon id="polygon76" points="152.437,73.799 152.637,74.399 152.938,74.7 152.938,74.7 152.138,75.199 151.338,75.3 150.538,75.5 149.838,75.3 149.037,74.9 148.538,74.199 148.338,73.599 148.338,72.5 149.037,71.9 149.437,71.599 150.138,71.399 150.238,71.199 150.938,71.199 151.338,71.199 151.838,71.399 152.138,71.399 152.437,71.599 152.938,71.9 153.238,72 152.938,72.199 152.637,72.7 152.437,73.1 " style="fill:#c0262d;stroke:#363639;stroke-opacity:1"/><polygon id="polygon78" points="134.838,142 135.338,141.7 135.938,141.1 136.238,140.599 136.538,140 136.938,139.399 137.238,138.399 137.238,137.9 136.437,136.7 135.938,135.9 135.138,134.599 135.037,133.399 134.838,132.7 134.738,132 134.838,131.199 135.138,130.399 135.037,130.399 135.037,129.399 135.138,128.3 135.138,127.7 135.138,127.399 135.037,126.9 134.538,126.5 133.738,126.599 133.437,126.3 133.138,126 132.938,125.5 132.938,124.9 132.838,124.599 132.338,124.599 131.238,124.7 131.538,124.599 130.938,125.799 130.637,127.199 130.637,128.199 130.938,129.599 131.437,130.399 131.538,131 131.437,132.1 130.938,132.7 130.338,133.7 129.938,134.199 129.838,134.9 130.138,135.9 130.738,136.799 130.637,136.7 131.538,136.799 132.138,137.199 132.538,137.3 132.538,138.1 132.637,138.7 132.538,139.5 132.538,140.5 132.838,141.199 133.437,141.9 134.037,142 " style="fill:#fff200;stroke:#363639;stroke-width:0;stroke-linejoin:round;stroke-opacity:1"/><polygon id="polygon80" points="117.838,131.199 118.538,132 119.238,132.7 120.238,133.799 121.437,134.9 121.938,135.3 122.738,135.399 123.338,135.3 123.738,134.9 123.838,134.5 123.838,134 123.838,133.7 123.738,133.7 123.037,133.399 122.538,133.199 121.437,132.9 120.838,132.3 120.738,131.799 121.037,130.9 120.738,130.5 120.538,130.199 120.338,129.599 120.538,129 120.538,128.7 120.838,127.199 120.738,126.9 120.238,126.9 119.238,126.9 118.538,126.599 118.138,126.3 118.037,126 118.037,125.5 118.338,125.199 118.637,124.9 119.238,124.599 119.637,124.1 119.938,123.799 120.037,122.7 120.538,122.5 121.138,122.399 122.538,122.5 123.037,122.5 123.738,122.399 124.938,122.399 124.938,122.1 125.538,122.799 126.238,123.599 126.838,124.1 127.637,124.7 128.437,125 129.938,124.9 131.238,124.7 131.538,124.599 130.938,125.799 130.637,127.199 130.637,128.199 130.938,129.599 131.437,130.399 131.538,131 131.437,132.1 130.938,132.7 130.338,133.7 129.938,134.199 129.838,134.9 130.138,135.9 130.738,136.799 130.637,136.5 130.138,136.7 129.637,136.799 128.738,136.799 128.238,137 127.338,137.599 127.037,137.9 126.838,138.3 126.838,138.9 127.138,140 127.138,140.1 126.538,140.1 125.738,140 125.138,140.1 124.338,140.599 123.538,141.1 122.938,141.9 122.238,142.199 121.338,143 120.738,143.799 120.338,144.5 120.238,145 120.037,145.199 119.738,145.599 118.838,146 117.838,146.1 116.738,147.799 116.437,148.199 115.938,148.3 114.738,148.5 113.738,148.5 113.437,148.599 113.037,149.1 113.437,148.799 113.437,148 113.338,147.799 113.037,147.5 112.637,147.399 112.238,147.1 111.738,146.7 111.138,146.599 110.338,146.599 109.037,146.9 108.437,147.1 107.838,147.199 107.637,147.199 107.838,147.199 106.538,146.7 105.637,146.3 104.637,145.5 103.838,144.9 103.238,144.1 103.037,143.799 103.037,142 102.938,140.599 102.738,138.3 102.738,136.399 104.138,136.5 105.238,136.399 106.538,136.199 107.437,135.9 107.437,134.599 107.437,133.399 107.437,130.9 108.437,130.399 109.538,130.1 110.637,130.199 111.437,130.399 113.037,131 113.738,131.3 114.238,131.3 115.637,131.199 116.637,130.7 117.238,130.9 " style="fill:#c0262d;stroke:#363639;stroke-opacity:1"/><polygon id="polygon82" points="120.238,145 120.338,144.5 120.738,143.799 121.338,143 122.238,142.199 122.938,141.9 123.538,141.1 124.338,140.599 125.138,140.1 125.738,140 126.538,140.1 127.138,140.1 127.338,140.1 129.238,141.7 130.637,142.799 131.437,143.599 131.538,144.399 131.738,145 131.538,145.599 130.938,146.9 130.637,147.799 130.138,148.599 130.338,149.599 130.637,150.1 130.738,150.7 130.738,151.199 130.138,152.599 129.238,153.799 128.138,155.199 127.037,156.199 126.538,157.1 126.238,159 126.238,159 126.037,159 125.138,158.9 124.338,159.199 123.037,159 122.238,158.7 121.338,158.5 121.138,158.5 121.338,158.5 120.538,157.599 120.238,157.399 119.437,156.5 119.138,156.199 118.838,155.199 118.538,154.799 118.037,154.3 117.437,154.1 116.637,154.1 116.138,154.1 115.637,154.1 115.538,153.799 115.338,153.5 115.338,153 115.338,152.399 114.838,151.599 114.437,150.799 114.138,150.5 113.437,149.7 113.037,149.3 113.037,149.1 113.437,148.599 113.738,148.5 114.738,148.5 115.938,148.3 116.437,148.199 116.738,147.799 117.838,146.1 118.838,146 119.738,145.599 120.037,145.199 " style="fill:#fff200;stroke:#363639;stroke-width:0;stroke-linejoin:round;stroke-opacity:1"/><polygon id="polygon84" points="135.138,161.7 135.637,157.3 135.437,156.199 135.138,155.399 134.838,155.1 133.938,154.599 133.637,154 133.938,153.5 134.538,153 135.437,152.599 136.138,152.1 136.938,151.599 137.538,150.799 138.338,149.9 138.637,149.1 138.637,148.3 138.938,147.799 139.538,147.1 141.338,146.399 142.538,146.1 144.437,145.199 145.838,144.399 147.238,143 148.037,142 148.338,141.199 148.738,140.3 148.838,139.5 149.037,138.9 148.838,138.3 148.738,137.199 148.238,136.399 147.938,136.1 147.637,135.7 147.938,135.3 148.538,134.599 148.838,134 148.738,133.5 148.037,132.9 147.938,132 147.938,131.3 148.037,130.199 148.338,129.3 148.338,127.9 148.338,127.7 147.938,127.9 147.138,127.9 146.538,127.199 146.338,127.199 145.838,127.399 145.238,127.7 144.637,128.199 143.938,127.9 143.637,127.9 143.238,127.9 142.738,128 142.138,128.799 141.637,129.799 141.437,130.199 140.838,130.5 140.238,130.399 139.437,130.199 138.437,129.799 137.738,129.399 136.738,129.599 135.838,129.799 135.138,130.199 135.138,130.399 134.838,131.199 134.738,132 134.838,132.7 135.037,133.399 135.138,134.599 135.938,135.9 136.437,136.7 137.238,137.9 137.238,138.399 136.938,139.399 136.538,140 136.238,140.599 135.938,141.1 135.338,141.7 134.838,142 134.037,142 133.437,141.9 132.838,141.199 132.538,140.5 132.538,139.5 132.637,138.7 132.538,138.1 132.538,137.3 132.138,137.199 131.538,136.799 130.637,136.7 130.637,136.5 130.138,136.7 129.637,136.799 128.738,136.799 128.238,137 127.338,137.599 127.037,137.9 126.838,138.3 126.838,138.9 127.138,140 127.338,140.1 129.238,141.7 130.637,142.799 131.437,143.599 131.538,144.399 131.738,145 131.538,145.599 130.938,146.9 130.637,147.799 130.138,148.599 130.338,149.599 130.637,150.1 130.738,150.7 130.738,151.199 130.138,152.599 129.238,153.799 128.138,155.199 127.037,156.199 126.538,157.1 126.238,159 126.238,159.199 126.238,159.799 126.037,160.9 126.338,162.199 126.838,164 127.037,164.7 127.437,165.799 127.738,166.599 128.138,167.5 127.738,168 127.338,168.5 127.338,168.799 129.238,169.399 129.338,169.1 129.838,168.5 131.538,167.199 132.538,166.599 133.437,165.799 133.938,165.199 134.738,164.5 135.838,163.399 135.938,163.1 135.838,162.799 135.437,162.599 " style="fill:#007146;stroke:#363639;stroke-opacity:1"/><polygon id="polygon86" points="108.238,166.9 109.037,166.7 110.637,167.399 111.238,167.7 112.037,167.7 112.538,167.7 113.637,167.399 114.238,166.599 114.437,166.1 115.037,165 115.538,164.399 116.637,163.1 118.138,161.1 119.437,160 120.538,159.199 121.138,158.5 121.338,158.5 120.538,157.599 120.238,157.399 119.437,156.5 119.138,156.199 118.838,155.199 118.538,154.799 118.037,154.3 117.437,154.1 116.637,154.1 116.138,154.1 115.637,154.1 115.538,153.799 115.338,153.5 115.338,153 115.338,152.399 114.838,151.599 114.437,150.799 114.138,150.5 113.437,149.7 113.037,149.3 113.037,149.1 112.637,149.3 112.037,149.3 111.437,149.1 110.938,148.799 110.138,149.3 108.938,150.1 108.437,150.199 107.838,149.9 107.138,149.599 105.738,150.1 104.338,150.5 103.437,151 102.138,151.3 102.338,158.199 100.538,158.199 100.838,170 101.037,170.7 101.338,171.1 101.538,171.3 101.838,171.599 102.437,171.599 103.238,171.399 103.738,171.399 104.538,171.1 104.938,170.799 105.437,170 105.637,169.599 106.338,168.1 106.738,167.5 107.437,167 " style="fill:#007146;stroke:#363639;stroke-opacity:1"/><polygon id="polygon88" points="80.738,118 80.738,117.5 80.637,116.7 79.037,118.399 79.037,119.1 79.037,119.399 80.138,118.9 80.738,118.399 " style="fill:#32327b;stroke:#363639;stroke-opacity:1"/><polygon id="polygon90" points="104.138,136.5 105.238,136.399 106.538,136.199 107.437,135.9 107.437,134.599 107.437,133.399 107.437,130.9 104.838,131 102.437,131 101.838,130.5 101.637,130.199 101.538,129.599 101.838,129.1 102.138,128.799 102.738,128.3 103.037,128 103.238,127.199 102.938,126.5 102.738,126 102.338,125.199 102.138,124.599 101.938,123.599 102.138,122.799 102.338,122.399 102.338,122.1 101.838,121.599 101.538,121.399 100.437,122.199 99.938,122.199 99.637,122.199 99.037,121.9 98.538,121.3 97.738,121 97.437,121.1 97.138,121.599 97.437,122.1 97.738,122.799 97.938,123.5 97.738,124.1 97.238,124.599 94.738,124.9 92.838,124.7 92.238,124.7 91.138,124.399 90.838,123.9 90.138,123.199 89.838,122.5 89.538,121.7 88.637,119.5 88.138,119.1 87.838,118.9 87.338,118.7 85.938,119.1 83.238,119.5 80.238,120 79.338,120.199 79.637,120.599 80.138,121.599 80.738,122.5 81.838,124.3 82.637,125.399 82.938,126.1 82.838,126.799 82.037,127.599 82.037,128 82.037,128.7 82.637,129.799 83.437,130.5 84.037,132 84.338,133.1 84.338,134.199 84.238,134.9 83.938,136.199 83.437,136.7 82.938,137.199 82.338,137.599 81.838,138.1 81.838,139.399 81.538,140.599 81.538,142.799 81.037,144.1 80.437,144.9 79.637,145.599 79.538,146 79.538,146.3 79.938,147.199 80.138,147.199 80.738,147.199 81.338,146.9 82.037,146.399 82.637,146 83.238,146 83.538,146 83.938,146.599 83.938,147.199 84.538,147.7 85.138,147.799 85.938,147.799 86.437,147.7 87.637,147.1 88.738,146.399 89.838,146 91.138,145.799 92.238,146 93.138,146.399 94.637,146.7 95.738,146.9 95.738,146.399 96.037,146.1 96.338,146.399 96.938,147.1 97.738,147.799 99.037,148.199 100.138,148.599 100.738,148.799 101.838,148.9 102.738,148.9 107.838,147.199 106.538,146.7 105.637,146.3 104.637,145.5 103.838,144.9 103.238,144.1 103.037,143.799 103.037,142 102.938,140.599 102.738,138.3 102.738,136.399 " style="fill:#007146;stroke:#363639;stroke-opacity:1"/><polygon id="polygon92" points="87.838,163.399 87.838,163.3 88.138,163.3 88.437,163.1 88.738,162.799 88.738,162.5 88.437,162 87.938,161.799 87.538,161.399 86.437,160 85.437,158.7 85.037,157.599 84.338,156 83.938,155.1 82.938,154 82.338,153.199 81.338,152.3 81.037,151.199 80.938,149.7 80.437,148.199 79.938,147.199 80.138,147.199 80.738,147.199 81.338,146.9 82.037,146.399 82.637,146 83.238,146 83.538,146 83.938,146.599 83.938,147.199 84.538,147.7 85.138,147.799 85.938,147.799 86.437,147.7 87.637,147.1 88.738,146.399 89.838,146 91.138,145.799 92.238,146 93.138,146.399 94.637,146.7 95.738,146.9 95.738,146.399 96.037,146.1 96.338,146.399 96.938,147.1 97.738,147.799 99.037,148.199 100.138,148.599 100.738,148.799 101.838,148.9 102.738,148.9 107.838,147.199 107.637,147.199 107.838,147.199 108.437,147.1 109.037,146.9 110.338,146.599 111.138,146.599 111.738,146.7 112.238,147.1 112.637,147.399 113.037,147.5 113.338,147.799 113.437,148 113.437,148.799 113.037,149.1 112.637,149.3 112.037,149.3 111.437,149.1 110.938,148.799 110.138,149.3 108.938,150.1 108.437,150.199 107.838,149.9 107.138,149.599 105.738,150.1 104.338,150.5 103.437,151 102.138,151.3 102.338,158.199 100.538,158.199 100.838,170 101.037,170.7 101.338,171.1 101.538,171.3 101.838,171.599 101.637,171.599 101.238,171.9 100.838,172.5 100.738,173.5 100.538,174.7 100.437,175.1 100.138,175.399 98.838,176.199 98.338,176.199 97.437,176.5 96.838,176.199 96.437,176 96.138,175.399 96.037,174.9 95.838,174.399 95.738,174.399 95.037,174.3 94.738,174.399 94.437,174.9 94.437,175.5 94.138,176 93.338,176.199 92.238,176.3 91.738,175.7 91.437,174.9 91.138,174.3 90.538,172.399 89.538,170.799 89.437,169.9 89.238,168.5 88.938,166.399 88.437,165.3 88.138,164.5 " style="fill:#32327b;stroke:#363639;stroke-opacity:1"/><polygon id="polygon94" points="118.938,179 119.637,178.799 120.838,178.5 121.437,178 122.138,177.599 122.437,176.9 122.738,176.3 122.738,175.7 122.738,175.1 122.538,174.3 122.138,173.799 121.437,173.599 120.838,174 120.338,174.3 119.938,174.7 119.738,174.9 119.138,175.199 118.338,175.7 117.738,176.5 117.538,176.799 117.238,177.3 117.238,177.599 117.437,178.199 117.738,178.7 118.338,179 118.838,179 " style="fill:#32327b;stroke:#363639;stroke-opacity:1"/><polygon id="polygon96" points="115.538,188.9 114.838,189.399 114.238,189.399 113.037,189.1 112.538,189.1 111.938,189.399 111.437,189.799 110.437,190 109.538,189.7 108.637,189.5 107.437,189.399 106.838,189.5 106.037,189.799 104.938,190.599 104.338,190.799 103.838,190.9 103.238,191.1 102.338,190.9 101.338,190.3 100.838,190.199 100.138,190 99.338,190.199 98.838,190 98.338,189.799 98.037,189.199 97.938,188.7 97.738,187.599 97.437,187.199 97.138,186.9 97.238,186.399 97.938,186.199 98.037,186.1 97.437,185.1 96.637,184.199 96.338,183.399 95.037,180.9 94.738,179.9 93.938,178.7 93.037,177.1 92.238,176.199 92.238,176.199 92.338,176.199 93.338,176 94.138,175.799 94.437,175.399 94.437,174.9 94.738,174.3 95.037,174.3 95.738,174.3 96.037,174.399 96.037,174.9 96.138,175.399 96.437,175.799 96.838,176.199 97.437,176.3 98.338,176.199 98.838,176 100.138,175.399 100.437,174.9 100.538,174.7 100.738,173.5 100.838,172.5 101.238,171.799 101.637,171.599 101.838,171.399 102.637,171.399 103.238,171.399 103.738,171.3 104.637,171 105.138,170.7 105.437,170 105.637,169.599 106.338,168.1 106.838,167.5 107.437,167 108.238,166.7 109.037,166.7 110.637,167.199 111.238,167.5 112.037,167.5 112.538,167.7 113.637,167.199 114.238,166.399 114.538,165.9 115.037,165 115.538,164.199 116.637,162.9 118.138,161.1 119.637,160 120.538,159.199 121.138,158.399 121.437,158.399 122.238,158.5 123.238,158.9 124.338,159 125.138,158.7 126.037,158.9 126.238,159 126.238,159 126.238,159.799 126.238,160.7 126.338,162.199 126.838,163.9 127.138,164.7 127.437,165.799 127.738,166.599 128.138,167.399 127.938,168 127.338,168.3 127.138,167.7 126.637,167.399 126.037,167 125.538,167.7 125.437,167.799 125.238,168.1 125.138,168.5 125.238,169.1 125.538,169.7 126.238,169.9 126.338,169.9 126.838,169.9 127.138,169.599 127.338,169.1 127.338,168.5 127.338,167.799 127.437,168.599 129.238,169.199 129.238,169.9 129.238,170.799 128.838,171.599 128.738,172.199 128.437,172.5 128.138,173.3 127.738,174.3 126.637,175.799 126.037,176.599 125.437,177.399 124.437,179.3 122.138,177.399 122.437,176.9 122.538,176.199 122.738,175.7 122.738,175.1 122.538,174.3 122.138,173.799 121.437,173.5 120.738,173.799 120.338,174.3 119.738,174.7 119.738,174.9 118.938,175.199 118.138,175.7 117.538,176.3 117.437,176.599 117.238,177.3 117.238,177.599 117.238,178 117.738,178.5 118.338,178.799 118.637,179 118.938,178.799 119.637,178.799 120.838,178.399 121.437,178 122.138,177.399 124.637,179.1 123.838,180.599 123.037,181.5 122.437,182.599 122.138,183.599 121.437,185 120.738,185.3 120.037,185.9 118.637,186.5 117.538,187.199 116.738,187.799 " style="fill:#c0262d;stroke:#363639;stroke-opacity:1"/><polyline id="polyline98" points="124.637,179.1 123.838,180.599 123.037,181.5 122.437,182.599 122.138,183.599 121.437,185   120.738,185.3 120.037,185.9 118.637,186.5 117.538,187.199 116.738,187.799 115.538,188.9 114.838,189.399 114.238,189.399   113.037,189.1 112.538,189.1 111.938,189.399 111.437,189.799 110.437,190 109.538,189.7 108.637,189.5 107.437,189.399   106.838,189.5 106.037,189.799 104.938,190.599 104.338,190.799 103.838,190.9 103.238,191.1 102.338,190.9 101.338,190.3   100.838,190.199 100.138,190 99.338,190.199 98.838,190 98.338,189.799 98.037,189.199 97.938,188.7 97.738,187.599 97.437,187.199   97.138,186.9 97.238,186.399 97.938,186.199 98.037,186.1 97.437,185.1 96.637,184.199 96.338,183.399 95.037,180.9 94.738,179.9   93.938,178.7 93.037,177.1 92.238,176.199 92.238,176.199 92.338,176.199 93.338,176 94.138,175.799 94.437,175.399 94.437,174.9   94.738,174.3 95.037,174.3 95.738,174.3 96.037,174.399 96.037,174.9 96.138,175.399 96.437,175.799 96.838,176.199 97.437,176.3   98.338,176.199 98.838,176 100.138,175.399 100.437,174.9 100.538,174.7 100.738,173.5 100.838,172.5 101.238,171.799   101.637,171.599 101.838,171.399 102.637,171.399 103.238,171.399 103.738,171.3 104.637,171 105.138,170.7 105.437,170   105.637,169.599 106.338,168.1 106.838,167.5 107.437,167 108.238,166.7 109.037,166.7 110.637,167.199 111.238,167.5   112.037,167.5 112.538,167.7 113.637,167.199 114.238,166.399 114.538,165.9 115.037,165 115.538,164.199 116.637,162.9   118.138,161.1 119.637,160 120.538,159.199 121.138,158.399 121.437,158.399 122.238,158.5 123.238,158.9 124.338,159   125.138,158.7 126.037,158.9 126.238,159 126.238,159 126.238,159.799 126.238,160.7 126.338,162.199 126.838,163.9 127.138,164.7   127.437,165.799 127.738,166.599 128.138,167.399 127.938,168 127.338,168.3 127.138,167.7 126.637,167.399 126.037,167   125.538,167.7 125.437,167.799 125.238,168.1 125.138,168.5 125.238,169.1 125.538,169.7 126.238,169.9 126.338,169.9   126.838,169.9 127.138,169.599 127.338,169.1 127.338,168.5 127.338,167.799 127.338,168.599 129.238,169.199 129.238,169.9   129.238,170.799 128.838,171.599 128.738,172.199 128.437,172.5 128.138,173.3 127.738,174.3 126.637,175.799 126.037,176.599   125.437,177.399 124.437,179.3 " style="fill:none;stroke:#363639;stroke-opacity:1"/><polygon id="polygon100" points="97.238,124.599 97.738,124.1 97.938,123.5 97.738,122.799 97.437,122.1 97.138,121.599 97.437,121.1 97.738,121 98.538,121.3 99.037,121.9 99.637,122.199 99.938,122.199 100.437,122.199 101.538,121.399 101.838,121.599 102.338,122.1 102.338,122.399 102.138,122.799 101.938,123.599 102.138,124.599 102.338,125.199 102.738,126 102.938,126.5 103.238,127.199 103.037,128 102.738,128.3 102.138,128.799 101.838,129.1 101.538,129.599 101.637,130.199 101.838,130.5 102.437,131 104.838,131 107.437,130.9 108.437,130.399 109.538,130.1 110.637,130.199 111.437,130.399 113.037,131 113.738,131.3 114.238,131.3 115.637,131.199 116.637,130.7 117.238,130.9 117.838,131.199 118.538,132 119.238,132.7 120.238,133.799 121.437,134.9 121.938,135.3 122.738,135.399 123.338,135.3 123.738,134.9 123.838,134.5 123.838,134 123.838,133.7 123.738,133.7 123.037,133.399 122.538,133.199 121.437,132.9 120.838,132.3 120.738,131.799 121.037,130.9 120.738,130.5 120.538,130.199 120.338,129.599 120.838,127.199 120.738,126.9 120.238,126.9 119.437,126.9 118.538,126.599 118.138,126.3 118.037,126 118.037,125.5 118.338,125.199 119.238,124.599 119.637,124.1 119.938,123.799 120.037,122.7 120.538,122.5 121.138,122.399 123.037,122.5 124.938,122.399 124.938,122.199 124.037,120.5 123.538,119.799 122.437,117.599 121.437,115.3 121.037,113.7 120.538,112.1 120.338,110.9 120.238,109.3 120.238,109.5 120.037,108.7 120.037,108.1 120.238,107.1 120.338,105.1 120.538,104.599 120.738,103.799 121.037,102.1 121.037,101.3 121.338,100.7 121.637,99.7 122.138,98.9 123.538,97.399 124.037,96.399 124.138,95.799 124.138,95.5 123.738,95.199 123.238,94.799 122.938,94.199 122.738,93.399 122.738,93.1 122.938,92.799 123.838,92.5 124.338,91.9 124.338,91.199 124.338,91.1 124.338,91.199 123.538,90.9 122.538,90.3 121.838,89.799 121.138,89.199 120.738,88.5 119.938,88.399 118.838,88.5 117.437,88.7 116.437,88.7 114.437,88.5 111.238,88.7 110.637,88.9 109.838,89.5 109.338,90.399 108.938,91.1 108.637,91.199 108.138,91.1 107.437,90.7 107.138,90.599 106.738,90.399 106.238,90.399 105.437,90.7 104.138,92 103.238,92.3 102.738,92.3 100.138,91.9 99.338,91.5 98.538,91.1 97.538,90.399 96.637,90.399 95.738,90.599 95.338,90.7 94.637,91.7 94.437,92.5 94.138,93.1 93.637,93.599 93.938,95.5 93.938,96.7 93.637,98.1 93.138,99.399 92.338,100.5 91.938,101.9 91.437,103.799 91.238,105.1 91.238,106.3 90.938,107.1 90.637,107.7 90.037,108.1 88.938,109 88.338,109.3 88.138,109.799 87.938,110.399 88.138,113.1 87.838,114 87.338,114.799 86.738,115.3 85.738,115.399 85.138,115.399 84.238,114.799 83.538,114.5 83.138,114.5 82.637,114.5 82.037,115 80.637,116.399 80.738,118 80.738,118.399 80.138,118.9 79.037,119.399 79.338,120.199 87.338,118.7 87.838,118.9 88.138,119.1 88.637,119.5 90.138,123.199 90.838,123.9 91.138,124.399 92.238,124.7 92.838,124.7 94.738,124.9 " style="fill:#fff200;stroke:#363639;stroke-width:0.64957753;stroke-linejoin:round;stroke-opacity:1;stroke-miterlimit:4;stroke-dasharray:none"/></g></g></g><linearGradient id="SVGID_1_" gradientUnits="userSpaceOnUse" x1="281.7385" y1="619.5991" x2="281.7385" y2="736.5991"><stop offset="0" style="stop-color:#1D8541" id="stop936"/><stop offset="0.1627" style="stop-color:#3D843F" id="stop938"/><stop offset="0.482" style="stop-color:#6B8138" id="stop940"/><stop offset="0.923" style="stop-color:#9E7A2D" id="stop942"/><stop offset="1" style="stop-color:#A7792B" id="stop944"/></linearGradient></svg>