<?xml version="1.0" encoding="UTF-8" standalone="no"?>
<!-- Created with Inkscape (http://www.inkscape.org/) -->

<svg
   width="99.235847mm"
   height="10.504451mm"
   viewBox="0 0 99.235849 10.504451"
   version="1.1"
   id="svg1"
   inkscape:version="1.4 (e7c3feb100, 2024-10-09)"
   sodipodi:docname="EspacioBusq2.svg"
   xml:space="preserve"
   xmlns:inkscape="http://www.inkscape.org/namespaces/inkscape"
   xmlns:sodipodi="http://sodipodi.sourceforge.net/DTD/sodipodi-0.dtd"
   xmlns="http://www.w3.org/2000/svg"
   xmlns:svg="http://www.w3.org/2000/svg"><sodipodi:namedview
     id="namedview1"
     pagecolor="#ffffff"
     bordercolor="#000000"
     borderopacity="0.25"
     inkscape:showpageshadow="2"
     inkscape:pageopacity="0.0"
     inkscape:pagecheckerboard="0"
     inkscape:deskcolor="#d1d1d1"
     inkscape:document-units="mm"
     showgrid="false"
     showguides="false"
     inkscape:zoom="2.8756734"
     inkscape:cx="185.69564"
     inkscape:cy="-32.861868"
     inkscape:window-width="1920"
     inkscape:window-height="1011"
     inkscape:window-x="0"
     inkscape:window-y="0"
     inkscape:window-maximized="1"
     inkscape:current-layer="layer1"><inkscape:grid
       id="grid1"
       units="mm"
       originx="-31.957375"
       originy="-23.560858"
       spacingx="0.99999998"
       spacingy="1"
       empcolor="#0099e5"
       empopacity="0.30196078"
       color="#0099e5"
       opacity="0.14901961"
       empspacing="5"
       enabled="true"
       visible="false" /></sodipodi:namedview><defs
     id="defs1"><linearGradient
       id="swatch5"
       inkscape:swatch="solid"><stop
         style="stop-color:#d6f9ff;stop-opacity:1;"
         offset="0"
         id="stop5" /></linearGradient></defs><g
     inkscape:label="Capa 1"
     inkscape:groupmode="layer"
     id="layer1"
     transform="translate(-31.957375,-23.560856)"><rect
       style="fill:#ffc1c1;fill-opacity:1;stroke:#000000;stroke-width:0.164999;stroke-opacity:1"
       id="rect1-9"
       width="27.972099"
       height="7.7286243"
       x="32.099571"
       y="26.254183" /><rect
       style="fill:#a7ff77;fill-opacity:1;stroke:#000000;stroke-width:0.165;stroke-opacity:1"
       id="rect1-9-3"
       width="71.100586"
       height="7.7286243"
       x="60.010136"
       y="26.252878" /><text
       xml:space="preserve"
       style="font-style:normal;font-variant:normal;font-weight:normal;font-stretch:normal;font-size:2.82222px;font-family:Raleway;-inkscape-font-specification:Raleway;text-align:start;writing-mode:lr-tb;direction:ltr;text-anchor:start;fill:#93efff;fill-opacity:1;stroke:none;stroke-width:0.165;stroke-opacity:1"
       x="32.111736"
       y="25.581566"
       id="text3-2"><tspan
         sodipodi:role="line"
         id="tspan3-2"
         style="font-size:2.82222px;fill:#000000;fill-opacity:1;stroke-width:0.165"
         x="32.111736"
         y="25.581566">20'</tspan></text><text
       xml:space="preserve"
       style="font-style:normal;font-variant:normal;font-weight:normal;font-stretch:normal;font-size:4.18868px;font-family:'Fira Code';-inkscape-font-specification:'Fira Code';text-align:start;writing-mode:lr-tb;direction:ltr;text-anchor:start;fill:#000000;fill-opacity:1;stroke:none;stroke-width:0.165;stroke-opacity:1"
       x="81.378601"
       y="31.216866"
       id="text4"><tspan
         sodipodi:role="line"
         id="tspan4"
         style="font-style:normal;font-variant:normal;font-weight:normal;font-stretch:normal;font-family:'Fira Code';-inkscape-font-specification:'Fira Code';fill:#000000;fill-opacity:1;stroke:none;stroke-width:0.165"
         x="81.378601"
         y="31.216866" /></text><text
       xml:space="preserve"
       style="font-style:normal;font-variant:normal;font-weight:normal;font-stretch:normal;font-size:2.82223px;font-family:'Fira Code';-inkscape-font-specification:'Fira Code';text-align:start;writing-mode:lr-tb;direction:ltr;text-anchor:start;fill:#ffffff;fill-opacity:1;stroke:none;stroke-width:0.165;stroke-opacity:1"
       x="81.517067"
       y="29.498329"
       id="text6"><tspan
         sodipodi:role="line"
         id="tspan6"
         style="stroke-width:0.165"
         x="81.517067"
         y="29.498329" /></text><text
       xml:space="preserve"
       style="font-style:normal;font-variant:normal;font-weight:normal;font-stretch:normal;font-size:2.82222px;font-family:Raleway;-inkscape-font-specification:Raleway;text-align:start;writing-mode:lr-tb;direction:ltr;text-anchor:start;fill:#93efff;fill-opacity:1;stroke:none;stroke-width:0.165;stroke-opacity:1"
       x="127.41325"
       y="25.7917"
       id="text3-2-6"><tspan
         sodipodi:role="line"
         id="tspan3-2-4"
         style="font-size:2.82222px;fill:#000000;fill-opacity:1;stroke-width:0.165"
         x="127.41325"
         y="25.7917">84'</tspan></text><g
       id="g7"
       transform="matrix(0.10715609,0,0,0.10761792,91.716695,26.462313)"
       style="stroke-width:1.5365;stroke-dasharray:none"><g
         id="color"
         style="stroke-width:1.5365;stroke-dasharray:none"><path
           fill="#b1cc33"
           stroke="none"
           d="M 53.1887,52.843 H 20.5794 c -0.3752,0 -0.6794,-0.2955 -0.6794,-0.66 v -31.68 c 0,-0.3645 0.3042,-0.66 0.6794,-0.66 h 21.5062 1.2918 2.0097 6.6745 1.1271 c 0.3752,0 0.6794,0.2955 0.6794,0.66 v 31.68 c 0,0.3645 -0.3042,0.66 -0.6794,0.66 z"
           id="path1"
           style="stroke-width:1.5365;stroke-dasharray:none" /><path
           fill="#ffffff"
           stroke="none"
           stroke-linecap="round"
           stroke-linejoin="round"
           stroke-miterlimit="10"
           stroke-width="4.92767"
           d="m 30.66,30.538 c -1.85,-2.61 -6.18,-0.11 -4.32,2.52 3.19,4.51 5.87,9.25 7.91,14.38 0.84,2.09 4.23,2.65 4.83,0 2.83,-12.6 8.21,-27.17 20.68,-33 2.91,-1.36 0.38,-5.67 -2.52,-4.32 -11.43,5.35 -17.68,17.36 -21.23,29.25 -1.56,-3.05 -3.33,-5.99 -5.35,-8.83 z"
           id="path2"
           style="stroke-width:1.5365;stroke-dasharray:none" /></g><g
         id="hair"
         style="stroke-width:1.5365;stroke-dasharray:none" /><g
         id="skin"
         style="stroke-width:1.5365;stroke-dasharray:none" /><g
         id="skin-shadow"
         style="stroke-width:1.5365;stroke-dasharray:none" /><g
         id="line"
         style="stroke-width:1.5365;stroke-dasharray:none"><path
           fill="none"
           stroke="#000000"
           stroke-linecap="round"
           stroke-linejoin="round"
           stroke-miterlimit="10"
           stroke-width="4.92767"
           d="m 53,22.642 v 30.476 c 0,0.3645 -0.2955,0.66 -0.66,0.66 H 20.66 c -0.3645,0 -0.66,-0.2955 -0.66,-0.66 v -31.68 c 0,-0.3645 0.2955,-0.66 0.66,-0.66 h 20.0814 0.5672"
           id="path3"
           style="stroke-width:1.5365;stroke-dasharray:none" /><path
           fill="none"
           stroke="#000000"
           stroke-linecap="round"
           stroke-linejoin="round"
           stroke-miterlimit="10"
           stroke-width="4.92767"
           d="m 30.66,30.538 c -1.85,-2.61 -6.18,-0.11 -4.32,2.52 3.19,4.51 5.87,9.25 7.91,14.38 0.84,2.09 4.23,2.65 4.83,0 2.83,-12.6 8.21,-27.17 20.68,-33 2.91,-1.36 0.38,-5.67 -2.52,-4.32 -11.43,5.35 -17.68,17.36 -21.23,29.25 -1.56,-3.05 -3.33,-5.99 -5.35,-8.83 z"
           id="path4"
           style="stroke-width:1.5365;stroke-dasharray:none" /></g></g><g
       id="g8"
       transform="matrix(0.08657788,0,0,0.08663399,43.565761,27.155104)"
       style="stroke-width:1.90518;stroke-dasharray:none"><g
         id="color-0"
         style="stroke-width:1.90518;stroke-dasharray:none"><path
           fill="#ea5a47"
           d="M 58.14,21.78 50.38,13.767 36.09,27.987 21.87,13.767 13.857,21.78 28.217,36 l -14.36,14.22 8.014,8.013 14.22,-14.22 14.29,14.22 7.76,-8.013 L 43.921,36 Z"
           id="path1-4"
           style="stroke-width:1.90518;stroke-dasharray:none" /></g><g
         id="hair-8"
         style="stroke-width:1.90518;stroke-dasharray:none" /><g
         id="skin-7"
         style="stroke-width:1.90518;stroke-dasharray:none" /><g
         id="skin-shadow-1"
         style="stroke-width:1.90518;stroke-dasharray:none" /><g
         id="line-7"
         style="stroke-width:1.90518;stroke-dasharray:none"><path
           fill="none"
           stroke="#000000"
           stroke-linecap="round"
           stroke-linejoin="round"
           stroke-miterlimit="10"
           stroke-width="11.187"
           d="M 58.14,21.78 50.38,13.767 36.09,27.987 21.87,13.767 13.857,21.78 28.207,36 l -14.35,14.22 8.014,8.013 14.22,-14.22 14.29,14.22 7.76,-8.013 L 43.921,36 Z"
           id="path2-2"
           style="stroke-width:1.90518;stroke-dasharray:none" /></g></g></g></svg>
