<?xml version="1.0" encoding="UTF-8" standalone="no"?>
<svg
   version="1.1"
   width="686.4823"
   height="756.20844"
   id="svg32"
   sodipodi:docname="NubePuntos.svg"
   inkscape:version="1.4 (e7c3feb100, 2024-10-09)"
   xmlns:inkscape="http://www.inkscape.org/namespaces/inkscape"
   xmlns:sodipodi="http://sodipodi.sourceforge.net/DTD/sodipodi-0.dtd"
   xmlns="http://www.w3.org/2000/svg"
   xmlns:svg="http://www.w3.org/2000/svg">
  <sodipodi:namedview
     id="namedview32"
     pagecolor="#ffffff"
     bordercolor="#000000"
     borderopacity="0.25"
     inkscape:showpageshadow="2"
     inkscape:pageopacity="0.0"
     inkscape:pagecheckerboard="0"
     inkscape:deskcolor="#d1d1d1"
     inkscape:zoom="1.1412703"
     inkscape:cx="222.55901"
     inkscape:cy="308.86635"
     inkscape:window-width="1920"
     inkscape:window-height="1011"
     inkscape:window-x="0"
     inkscape:window-y="0"
     inkscape:window-maximized="1"
     inkscape:current-layer="svg32" />
  <defs
     id="defs1" />
  <g
     id="sketch-608d419e"
     transform="matrix(1.0647847,0,0,1.0647847,-190.28309,-182.25079)"
     style="stroke-width:1.87831">
    <title
       id="title2" />
    <path
       fill="#6042a6"
       stroke="none"
       class="dcg-svg-point"
       paint-order="stroke fill markers"
       d="m 720.48215,601.50481 a 3.75,3.75 0 1 1 0,-0.004 z"
       id="path2"
       style="stroke-width:1.87831" />
    <path
       fill="#6042a6"
       stroke="none"
       class="dcg-svg-point"
       paint-order="stroke fill markers"
       d="m 683.46125,303.49418 a 3.75,3.75 0 1 1 -10e-6,-0.004 z"
       id="path3"
       style="stroke-width:1.87831" />
    <path
       fill="#6042a6"
       stroke="none"
       class="dcg-svg-point"
       paint-order="stroke fill markers"
       d="m 766.82272,746.67709 a 3.75,3.75 0 1 1 0,-0.004 z"
       id="path4"
       style="stroke-width:1.87831" />
    <path
       fill="#6042a6"
       stroke="none"
       class="dcg-svg-point"
       paint-order="stroke fill markers"
       d="m 393.02141,325.77582 a 3.75,3.75 0 1 1 0,-0.004 z"
       id="path5"
       style="stroke-width:1.87831" />
    <path
       fill="#6042a6"
       stroke="none"
       class="dcg-svg-point"
       paint-order="stroke fill markers"
       d="m 355.76705,483.80205 a 3.75,3.75 0 1 1 0,-0.004 z"
       id="path6"
       style="stroke-width:1.87831" />
    <path
       fill="#6042a6"
       stroke="none"
       class="dcg-svg-point"
       paint-order="stroke fill markers"
       d="m 485.21882,428.55912 a 3.75,3.75 0 1 1 0,-0.004 z"
       id="path7"
       style="stroke-width:1.87831" />
    <path
       fill="#6042a6"
       stroke="none"
       class="dcg-svg-point"
       paint-order="stroke fill markers"
       d="m 412.19153,513.72363 a 3.75,3.75 0 1 1 0,-0.004 z"
       id="path8"
       style="stroke-width:1.87831" />
    <path
       fill="#6042a6"
       stroke="none"
       class="dcg-svg-point"
       paint-order="stroke fill markers"
       d="m 793.13945,216.64446 a 3.75,3.75 0 1 1 0,-0.004 z"
       id="path9"
       style="stroke-width:1.87831" />
    <path
       fill="#6042a6"
       stroke="none"
       class="dcg-svg-point"
       paint-order="stroke fill markers"
       d="m 587.883,363.34088 a 3.75,3.75 0 1 1 0,-0.004 z"
       id="path10"
       style="stroke-width:1.87831" />
    <path
       fill="#6042a6"
       stroke="none"
       class="dcg-svg-point"
       paint-order="stroke fill markers"
       d="m 267.46187,444.71285 a 3.75,3.75 0 1 1 -10e-6,-0.004 z"
       id="path11"
       style="stroke-width:1.87831" />
    <path
       fill="#6042a6"
       stroke="none"
       class="dcg-svg-point"
       paint-order="stroke fill markers"
       d="m 186.20569,713.24007 a 3.75,3.75 0 1 1 0,-0.004 z"
       id="path12"
       style="stroke-width:1.87831" />
    <path
       fill="#6042a6"
       stroke="none"
       class="dcg-svg-point"
       paint-order="stroke fill markers"
       d="m 264.62735,299.26288 a 3.75,3.75 0 1 1 0,-0.004 z"
       id="path13"
       style="stroke-width:1.87831" />
    <path
       fill="#6042a6"
       stroke="none"
       class="dcg-svg-point"
       paint-order="stroke fill markers"
       d="m 277.23872,596.6654 a 3.75,3.75 0 1 1 -10e-6,-0.004 z"
       id="path14"
       style="stroke-width:1.87831" />
    <path
       fill="#6042a6"
       stroke="none"
       class="dcg-svg-point"
       paint-order="stroke fill markers"
       d="m 259.80199,812.12876 a 3.75,3.75 0 1 1 0,-0.004 z"
       id="path15"
       style="stroke-width:1.87831" />
    <path
       fill="#6042a6"
       stroke="none"
       class="dcg-svg-point"
       paint-order="stroke fill markers"
       d="m 823.42035,731.40583 a 3.75,3.75 0 1 1 0,-0.004 z"
       id="path16"
       style="stroke-width:1.87831" />
    <path
       fill="#6042a6"
       stroke="none"
       class="dcg-svg-point"
       paint-order="stroke fill markers"
       d="m 508.26288,273.49671 a 3.75,3.75 0 1 1 0,-0.004 z"
       id="path17"
       style="stroke-width:1.87831" />
    <path
       fill="#6042a6"
       stroke="none"
       class="dcg-svg-point"
       paint-order="stroke fill markers"
       d="m 572.92153,674.04356 a 3.75,3.75 0 1 1 0,-0.004 z"
       id="path18"
       style="stroke-width:1.87831" />
    <path
       fill="#6042a6"
       stroke="none"
       class="dcg-svg-point"
       paint-order="stroke fill markers"
       d="m 589.07686,505.69448 a 3.75,3.75 0 1 1 0,-0.004 z"
       id="path19"
       style="stroke-width:1.87831" />
    <path
       fill="#6042a6"
       stroke="none"
       class="dcg-svg-point"
       paint-order="stroke fill markers"
       d="m 495.71513,174.9141 a 3.75,3.75 0 1 1 0,-0.004 z"
       id="path20"
       style="stroke-width:1.87831" />
    <path
       fill="#6042a6"
       stroke="none"
       class="dcg-svg-point"
       paint-order="stroke fill markers"
       d="m 365.32731,323.46877 a 3.75,3.75 0 1 1 0,-0.004 z"
       id="path21"
       style="stroke-width:1.87831" />
    <path
       fill="#6042a6"
       stroke="none"
       class="dcg-svg-point"
       paint-order="stroke fill markers"
       d="m 517.22011,324.53342 a 3.75,3.75 0 1 1 0,-0.004 z"
       id="path22"
       style="stroke-width:1.87831" />
    <path
       fill="#6042a6"
       stroke="none"
       class="dcg-svg-point"
       paint-order="stroke fill markers"
       d="m 435.17635,234.8364 a 3.75,3.75 0 1 1 0,-0.004 z"
       id="path23"
       style="stroke-width:1.87831" />
    <path
       fill="#6042a6"
       stroke="none"
       class="dcg-svg-point"
       paint-order="stroke fill markers"
       d="m 359.35965,632.42605 a 3.75,3.75 0 1 1 -10e-6,-0.004 z"
       id="path24"
       style="stroke-width:1.87831" />
    <path
       fill="#6042a6"
       stroke="none"
       class="dcg-svg-point"
       paint-order="stroke fill markers"
       d="m 699.43046,214.55609 a 3.75,3.75 0 1 1 -1e-5,-0.004 z"
       id="path25"
       style="stroke-width:1.87831" />
    <path
       fill="#6042a6"
       stroke="none"
       class="dcg-svg-point"
       paint-order="stroke fill markers"
       d="m 220.87033,192.20808 a 3.75,3.75 0 1 1 0,-0.004 z"
       id="path26"
       style="stroke-width:1.87831" />
    <path
       fill="#6042a6"
       stroke="none"
       class="dcg-svg-point"
       paint-order="stroke fill markers"
       d="m 516.73398,828.91015 a 3.75,3.75 0 1 1 0,-0.004 z"
       id="path27"
       style="stroke-width:1.87831" />
    <path
       fill="#6042a6"
       stroke="none"
       class="dcg-svg-point"
       paint-order="stroke fill markers"
       d="m 300.28255,403.21999 a 3.75,3.75 0 1 1 0,-0.004 z"
       id="path28"
       style="stroke-width:1.87831" />
    <path
       fill="#6042a6"
       stroke="none"
       class="dcg-svg-point"
       paint-order="stroke fill markers"
       d="m 752.93547,635.05577 a 3.75,3.75 0 1 1 -10e-6,-0.004 z"
       id="path29"
       style="stroke-width:1.87831" />
    <path
       fill="#6042a6"
       stroke="none"
       class="dcg-svg-point"
       paint-order="stroke fill markers"
       d="m 217.2492,877.61252 a 3.75,3.75 0 1 1 0,-0.004 z"
       id="path30"
       style="stroke-width:1.87831" />
    <path
       fill="#6042a6"
       stroke="none"
       class="dcg-svg-point"
       paint-order="stroke fill markers"
       d="m 472.44676,845.8442 a 3.75,3.75 0 1 1 0,-0.004 z"
       id="path31"
       style="stroke-width:1.87831" />
  </g>
  <ellipse
     style="fill:none;stroke:#ff0000;stroke-width:1.37953;stroke-opacity:1"
     id="path1"
     cx="210.73009"
     cy="164.2906"
     rx="30.229471"
     ry="13.581357"
     class="fragment" />
</svg>
