<?xml version="1.0" encoding="UTF-8" standalone="no"?>
<svg
   version="1.1"
   width="1287.349"
   height="1422.7433"
   id="svg103"
   sodipodi:docname="NubePuntos2.svg"
   inkscape:version="1.4 (e7c3feb100, 2024-10-09)"
   xmlns:inkscape="http://www.inkscape.org/namespaces/inkscape"
   xmlns:sodipodi="http://sodipodi.sourceforge.net/DTD/sodipodi-0.dtd"
   xmlns="http://www.w3.org/2000/svg"
   xmlns:svg="http://www.w3.org/2000/svg">
  <sodipodi:namedview
     id="namedview103"
     pagecolor="#ffffff"
     bordercolor="#000000"
     borderopacity="0.25"
     inkscape:showpageshadow="2"
     inkscape:pageopacity="0.0"
     inkscape:pagecheckerboard="0"
     inkscape:deskcolor="#d1d1d1"
     inkscape:zoom="0.4145"
     inkscape:cx="476.47768"
     inkscape:cy="638.11821"
     inkscape:window-width="1920"
     inkscape:window-height="1011"
     inkscape:window-x="0"
     inkscape:window-y="0"
     inkscape:window-maximized="1"
     inkscape:current-layer="svg103" />
  <defs
     id="defs1" />
  <g
     id="expressions-00ce7428"
     transform="matrix(2,0,0,2,-354.00182,-271.11545)">
    <g
       id="sketch-00ce7428">
      <title
         id="title2" />
      <path
         fill="#2d70b3"
         stroke="none"
         class="dcg-svg-point"
         paint-order="stroke fill markers"
         d="m 184.50091,708.50678 a 3.75,3.75 0 1 1 0,-0.004 z"
         id="path2" />
      <path
         fill="#2d70b3"
         stroke="none"
         class="dcg-svg-point"
         paint-order="stroke fill markers"
         d="m 184.57451,517.70813 a 3.75,3.75 0 1 1 0,-0.004 z"
         id="path3" />
      <path
         fill="#2d70b3"
         stroke="none"
         class="dcg-svg-point"
         paint-order="stroke fill markers"
         d="m 186.2249,674.87247 a 3.75,3.75 0 1 1 0,-0.004 z"
         id="path4" />
      <path
         fill="#2d70b3"
         stroke="none"
         class="dcg-svg-point"
         paint-order="stroke fill markers"
         d="m 188.456,667.79867 a 3.75,3.75 0 1 1 0,-0.004 z"
         id="path5" />
      <path
         fill="#2d70b3"
         stroke="none"
         class="dcg-svg-point"
         paint-order="stroke fill markers"
         d="m 197.58761,153.25081 a 3.75,3.75 0 1 1 0,-0.004 z"
         id="path6" />
      <path
         fill="#2d70b3"
         stroke="none"
         class="dcg-svg-point"
         paint-order="stroke fill markers"
         d="m 198.50003,523.71161 a 3.75,3.75 0 1 1 0,-0.004 z"
         id="path7" />
      <path
         fill="#2d70b3"
         stroke="none"
         class="dcg-svg-point"
         paint-order="stroke fill markers"
         d="m 200.7561,205.67263 a 3.75,3.75 0 1 1 0,-0.004 z"
         id="path8" />
      <path
         fill="#2d70b3"
         stroke="none"
         class="dcg-svg-point"
         paint-order="stroke fill markers"
         d="m 205.52601,304.01554 a 3.75,3.75 0 1 1 0,-0.004 z"
         id="path9" />
      <path
         fill="#2d70b3"
         stroke="none"
         class="dcg-svg-point"
         paint-order="stroke fill markers"
         d="m 208.15269,221.69656 a 3.75,3.75 0 1 1 0,-0.004 z"
         id="path10" />
      <path
         fill="#2d70b3"
         stroke="none"
         class="dcg-svg-point"
         paint-order="stroke fill markers"
         d="m 208.40106,529.97603 a 3.75,3.75 0 1 1 0,-0.004 z"
         id="path11" />
      <path
         fill="#2d70b3"
         stroke="none"
         class="dcg-svg-point"
         paint-order="stroke fill markers"
         d="m 209.25901,373.31536 a 3.75,3.75 0 1 1 -1e-5,-0.004 z"
         id="path12" />
      <path
         fill="#2d70b3"
         stroke="none"
         class="dcg-svg-point"
         paint-order="stroke fill markers"
         d="m 210.66167,541.33424 a 3.75,3.75 0 1 1 0,-0.004 z"
         id="path13" />
      <path
         fill="#2d70b3"
         stroke="none"
         class="dcg-svg-point"
         paint-order="stroke fill markers"
         d="m 210.99272,702.31213 a 3.75,3.75 0 1 1 0,-0.004 z"
         id="path14" />
      <path
         fill="#2d70b3"
         stroke="none"
         class="dcg-svg-point"
         paint-order="stroke fill markers"
         d="m 220.11655,442.58752 a 3.75,3.75 0 1 1 0,-0.004 z"
         id="path15" />
      <path
         fill="#2d70b3"
         stroke="none"
         class="dcg-svg-point"
         paint-order="stroke fill markers"
         d="m 222.41769,169.82273 a 3.75,3.75 0 1 1 0,-0.004 z"
         id="path16" />
      <path
         fill="#2d70b3"
         stroke="none"
         class="dcg-svg-point"
         paint-order="stroke fill markers"
         d="m 223.03472,305.3693 a 3.75,3.75 0 1 1 0,-0.004 z"
         id="path17" />
      <path
         fill="#2d70b3"
         stroke="none"
         class="dcg-svg-point"
         paint-order="stroke fill markers"
         d="m 241.28432,509.29701 a 3.75,3.75 0 1 1 0,-0.004 z"
         id="path18" />
      <path
         fill="#2d70b3"
         stroke="none"
         class="dcg-svg-point"
         paint-order="stroke fill markers"
         d="m 242.77389,736.77618 a 3.75,3.75 0 1 1 0,-0.004 z"
         id="path19" />
      <path
         fill="#2d70b3"
         stroke="none"
         class="dcg-svg-point"
         paint-order="stroke fill markers"
         d="m 248.52431,692.37776 a 3.75,3.75 0 1 1 0,-0.004 z"
         id="path20" />
      <path
         fill="#2d70b3"
         stroke="none"
         class="dcg-svg-point"
         paint-order="stroke fill markers"
         d="m 265.39718,625.7744 a 3.75,3.75 0 1 1 0,-0.004 z"
         id="path21" />
      <path
         fill="#2d70b3"
         stroke="none"
         class="dcg-svg-point"
         paint-order="stroke fill markers"
         d="m 268.83025,209.33602 a 3.75,3.75 0 1 1 0,-0.004 z"
         id="path22" />
      <path
         fill="#2d70b3"
         stroke="none"
         class="dcg-svg-point"
         paint-order="stroke fill markers"
         d="m 295.09607,587.082 a 3.75,3.75 0 1 1 -10e-6,-0.004 z"
         id="path23" />
      <path
         fill="#2d70b3"
         stroke="none"
         class="dcg-svg-point"
         paint-order="stroke fill markers"
         d="m 296.31586,395.58151 a 3.75,3.75 0 1 1 0,-0.004 z"
         id="path24" />
      <path
         fill="#2d70b3"
         stroke="none"
         class="dcg-svg-point"
         paint-order="stroke fill markers"
         d="m 316.13025,216.64584 a 3.75,3.75 0 1 1 0,-0.004 z"
         id="path25" />
      <path
         fill="#2d70b3"
         stroke="none"
         class="dcg-svg-point"
         paint-order="stroke fill markers"
         d="m 319.57921,578.02531 a 3.75,3.75 0 1 1 -10e-6,-0.004 z"
         id="path26" />
      <path
         fill="#2d70b3"
         stroke="none"
         class="dcg-svg-point"
         paint-order="stroke fill markers"
         d="m 319.65929,464.15193 a 3.75,3.75 0 1 1 0,-0.004 z"
         id="path27" />
      <path
         fill="#2d70b3"
         stroke="none"
         class="dcg-svg-point"
         paint-order="stroke fill markers"
         d="m 329.95234,299.52204 a 3.75,3.75 0 1 1 -10e-6,-0.004 z"
         id="path28" />
      <path
         fill="#2d70b3"
         stroke="none"
         class="dcg-svg-point"
         paint-order="stroke fill markers"
         d="m 332.5307,430.13148 a 3.75,3.75 0 1 1 0,-0.004 z"
         id="path29" />
      <path
         fill="#2d70b3"
         stroke="none"
         class="dcg-svg-point"
         paint-order="stroke fill markers"
         d="m 337.7672,758.48105 a 3.75,3.75 0 1 1 0,-0.004 z"
         id="path30" />
      <path
         fill="#2d70b3"
         stroke="none"
         class="dcg-svg-point"
         paint-order="stroke fill markers"
         d="m 339.86472,707.13937 a 3.75,3.75 0 1 1 0,-0.004 z"
         id="path31" />
      <path
         fill="#2d70b3"
         stroke="none"
         class="dcg-svg-point"
         paint-order="stroke fill markers"
         d="m 344.66381,821.83035 a 3.75,3.75 0 1 1 0,-0.004 z"
         id="path32" />
      <path
         fill="#2d70b3"
         stroke="none"
         class="dcg-svg-point"
         paint-order="stroke fill markers"
         d="m 353.49031,392.00035 a 3.75,3.75 0 1 1 0,-0.004 z"
         id="path33" />
      <path
         fill="#2d70b3"
         stroke="none"
         class="dcg-svg-point"
         paint-order="stroke fill markers"
         d="m 353.52922,746.59034 a 3.75,3.75 0 1 1 0,-0.004 z"
         id="path34" />
      <path
         fill="#2d70b3"
         stroke="none"
         class="dcg-svg-point"
         paint-order="stroke fill markers"
         d="m 353.8901,730.84816 a 3.75,3.75 0 1 1 0,-0.004 z"
         id="path35" />
      <path
         fill="#2d70b3"
         stroke="none"
         class="dcg-svg-point"
         paint-order="stroke fill markers"
         d="m 366.02516,545.70457 a 3.75,3.75 0 1 1 0,-0.004 z"
         id="path36" />
      <path
         fill="#2d70b3"
         stroke="none"
         class="dcg-svg-point"
         paint-order="stroke fill markers"
         d="m 366.8176,750.62508 a 3.75,3.75 0 1 1 0,-0.004 z"
         id="path37" />
      <path
         fill="#2d70b3"
         stroke="none"
         class="dcg-svg-point"
         paint-order="stroke fill markers"
         d="m 375.56531,770.88547 a 3.75,3.75 0 1 1 0,-0.004 z"
         id="path38" />
      <path
         fill="#2d70b3"
         stroke="none"
         class="dcg-svg-point"
         paint-order="stroke fill markers"
         d="m 381.92563,285.25532 a 3.75,3.75 0 1 1 0,-0.004 z"
         id="path39" />
      <path
         fill="#2d70b3"
         stroke="none"
         class="dcg-svg-point"
         paint-order="stroke fill markers"
         d="m 394.4167,827.37596 a 3.75,3.75 0 1 1 0,-0.004 z"
         id="path40" />
      <path
         fill="#2d70b3"
         stroke="none"
         class="dcg-svg-point"
         paint-order="stroke fill markers"
         d="m 403.38554,644.57519 a 3.75,3.75 0 1 1 0,-0.004 z"
         id="path41" />
      <path
         fill="#2d70b3"
         stroke="none"
         class="dcg-svg-point"
         paint-order="stroke fill markers"
         d="m 410.72085,791.80707 a 3.75,3.75 0 1 1 0,-0.004 z"
         id="path42" />
      <path
         fill="#2d70b3"
         stroke="none"
         class="dcg-svg-point"
         paint-order="stroke fill markers"
         d="m 420.58071,163.70184 a 3.75,3.75 0 1 1 0,-0.004 z"
         id="path43" />
      <path
         fill="#2d70b3"
         stroke="none"
         class="dcg-svg-point"
         paint-order="stroke fill markers"
         d="m 436.88648,529.98267 a 3.75,3.75 0 1 1 0,-0.004 z"
         id="path44" />
      <path
         fill="#2d70b3"
         stroke="none"
         class="dcg-svg-point"
         paint-order="stroke fill markers"
         d="m 452.7983,210.17092 a 3.75,3.75 0 1 1 0,-0.004 z"
         id="path45" />
      <path
         fill="#2d70b3"
         stroke="none"
         class="dcg-svg-point"
         paint-order="stroke fill markers"
         d="m 464.86624,572.40521 a 3.75,3.75 0 1 1 0,-0.004 z"
         id="path46" />
      <path
         fill="#2d70b3"
         stroke="none"
         class="dcg-svg-point"
         paint-order="stroke fill markers"
         d="m 468.25845,784.62079 a 3.75,3.75 0 1 1 0,-0.004 z"
         id="path47" />
      <path
         fill="#2d70b3"
         stroke="none"
         class="dcg-svg-point"
         paint-order="stroke fill markers"
         d="m 475.29773,404.99444 a 3.75,3.75 0 1 1 0,-0.004 z"
         id="path48" />
      <path
         fill="#2d70b3"
         stroke="none"
         class="dcg-svg-point"
         paint-order="stroke fill markers"
         d="m 490.15071,620.48657 a 3.75,3.75 0 1 1 0,-0.004 z"
         id="path49" />
      <path
         fill="#2d70b3"
         stroke="none"
         class="dcg-svg-point"
         paint-order="stroke fill markers"
         d="m 490.72598,523.62082 a 3.75,3.75 0 1 1 0,-0.004 z"
         id="path50" />
      <path
         fill="#2d70b3"
         stroke="none"
         class="dcg-svg-point"
         paint-order="stroke fill markers"
         d="m 501.56112,404.41583 a 3.75,3.75 0 1 1 0,-0.004 z"
         id="path51" />
    </g>
    <g
       id="g101">
      <title
         id="title51" />
      <path
         fill="#c74440"
         stroke="none"
         class="dcg-svg-point"
         paint-order="stroke fill markers"
         d="m 514.59887,611.19681 a 3.75,3.75 0 1 1 -1e-5,-0.004 z"
         id="path52" />
      <path
         fill="#c74440"
         stroke="none"
         class="dcg-svg-point"
         paint-order="stroke fill markers"
         d="m 516.79171,791.90738 a 3.75,3.75 0 1 1 0,-0.004 z"
         id="path53" />
      <path
         fill="#c74440"
         stroke="none"
         class="dcg-svg-point"
         paint-order="stroke fill markers"
         d="m 520.95225,311.37662 a 3.75,3.75 0 1 1 -1e-5,-0.004 z"
         id="path54" />
      <path
         fill="#c74440"
         stroke="none"
         class="dcg-svg-point"
         paint-order="stroke fill markers"
         d="m 524.18412,500.66931 a 3.75,3.75 0 1 1 0,-0.004 z"
         id="path55" />
      <path
         fill="#c74440"
         stroke="none"
         class="dcg-svg-point"
         paint-order="stroke fill markers"
         d="m 528.97398,165.22561 a 3.75,3.75 0 1 1 -10e-6,-0.004 z"
         id="path56" />
      <path
         fill="#c74440"
         stroke="none"
         class="dcg-svg-point"
         paint-order="stroke fill markers"
         d="m 530.57498,684.26954 a 3.75,3.75 0 1 1 0,-0.004 z"
         id="path57" />
      <path
         fill="#c74440"
         stroke="none"
         class="dcg-svg-point"
         paint-order="stroke fill markers"
         d="m 537.71692,270.34398 a 3.75,3.75 0 1 1 0,-0.004 z"
         id="path58" />
      <path
         fill="#c74440"
         stroke="none"
         class="dcg-svg-point"
         paint-order="stroke fill markers"
         d="m 546.01834,691.47205 a 3.75,3.75 0 1 1 0,-0.004 z"
         id="path59" />
      <path
         fill="#c74440"
         stroke="none"
         class="dcg-svg-point"
         paint-order="stroke fill markers"
         d="m 547.42846,219.66757 a 3.75,3.75 0 1 1 0,-0.004 z"
         id="path60" />
      <path
         fill="#c74440"
         stroke="none"
         class="dcg-svg-point"
         paint-order="stroke fill markers"
         d="m 550.59922,472.93677 a 3.75,3.75 0 1 1 0,-0.004 z"
         id="path61" />
      <path
         fill="#c74440"
         stroke="none"
         class="dcg-svg-point"
         paint-order="stroke fill markers"
         d="m 552.18671,793.36882 a 3.75,3.75 0 1 1 -10e-6,-0.004 z"
         id="path62" />
      <path
         fill="#c74440"
         stroke="none"
         class="dcg-svg-point"
         paint-order="stroke fill markers"
         d="m 554.77188,278.0093 a 3.75,3.75 0 1 1 0,-0.004 z"
         id="path63" />
      <path
         fill="#c74440"
         stroke="none"
         class="dcg-svg-point"
         paint-order="stroke fill markers"
         d="m 561.82251,713.67845 a 3.75,3.75 0 1 1 0,-0.004 z"
         id="path64" />
      <path
         fill="#c74440"
         stroke="none"
         class="dcg-svg-point"
         paint-order="stroke fill markers"
         d="m 562.4911,184.11379 a 3.75,3.75 0 1 1 -10e-6,-0.004 z"
         id="path65" />
      <path
         fill="#c74440"
         stroke="none"
         class="dcg-svg-point"
         paint-order="stroke fill markers"
         d="m 573.10643,436.8756 a 3.75,3.75 0 1 1 0,-0.004 z"
         id="path66" />
      <path
         fill="#c74440"
         stroke="none"
         class="dcg-svg-point"
         paint-order="stroke fill markers"
         d="m 600.72402,159.64349 a 3.75,3.75 0 1 1 -10e-6,-0.004 z"
         id="path67" />
      <path
         fill="#c74440"
         stroke="none"
         class="dcg-svg-point"
         paint-order="stroke fill markers"
         d="m 612.77412,722.52569 a 3.75,3.75 0 1 1 0,-0.004 z"
         id="path68" />
      <path
         fill="#c74440"
         stroke="none"
         class="dcg-svg-point"
         paint-order="stroke fill markers"
         d="m 614.72151,487.4536 a 3.75,3.75 0 1 1 0,-0.004 z"
         id="path69" />
      <path
         fill="#c74440"
         stroke="none"
         class="dcg-svg-point"
         paint-order="stroke fill markers"
         d="m 615.24387,281.0915 a 3.75,3.75 0 1 1 0,-0.004 z"
         id="path70" />
      <path
         fill="#c74440"
         stroke="none"
         class="dcg-svg-point"
         paint-order="stroke fill markers"
         d="m 621.30848,622.15563 a 3.75,3.75 0 1 1 0,-0.004 z"
         id="path71" />
      <path
         fill="#c74440"
         stroke="none"
         class="dcg-svg-point"
         paint-order="stroke fill markers"
         d="m 624.61185,793.08708 a 3.75,3.75 0 1 1 0,-0.004 z"
         id="path72" />
      <path
         fill="#c74440"
         stroke="none"
         class="dcg-svg-point"
         paint-order="stroke fill markers"
         d="m 636.5783,751.67387 a 3.75,3.75 0 1 1 0,-0.004 z"
         id="path73" />
      <path
         fill="#c74440"
         stroke="none"
         class="dcg-svg-point"
         paint-order="stroke fill markers"
         d="m 647.63396,154.85903 a 3.75,3.75 0 1 1 -10e-6,-0.004 z"
         id="path74" />
      <path
         fill="#c74440"
         stroke="none"
         class="dcg-svg-point"
         paint-order="stroke fill markers"
         d="m 649.49997,179.59632 a 3.75,3.75 0 1 1 -10e-6,-0.004 z"
         id="path75" />
      <path
         fill="#c74440"
         stroke="none"
         class="dcg-svg-point"
         paint-order="stroke fill markers"
         d="m 662.04843,362.10319 a 3.75,3.75 0 1 1 0,-0.004 z"
         id="path76" />
      <path
         fill="#c74440"
         stroke="none"
         class="dcg-svg-point"
         paint-order="stroke fill markers"
         d="m 666.72269,675.58199 a 3.75,3.75 0 1 1 0,-0.004 z"
         id="path77" />
      <path
         fill="#c74440"
         stroke="none"
         class="dcg-svg-point"
         paint-order="stroke fill markers"
         d="m 675.60334,357.82468 a 3.75,3.75 0 1 1 0,-0.004 z"
         id="path78" />
      <path
         fill="#c74440"
         stroke="none"
         class="dcg-svg-point"
         paint-order="stroke fill markers"
         d="m 681.60699,290.78138 a 3.75,3.75 0 1 1 0,-0.004 z"
         id="path79" />
      <path
         fill="#c74440"
         stroke="none"
         class="dcg-svg-point"
         paint-order="stroke fill markers"
         d="m 699.29533,421.77213 a 3.75,3.75 0 1 1 0,-0.004 z"
         id="path80" />
      <path
         fill="#c74440"
         stroke="none"
         class="dcg-svg-point"
         paint-order="stroke fill markers"
         d="m 707.94609,528.02485 a 3.75,3.75 0 1 1 0,-0.004 z"
         id="path81" />
      <path
         fill="#c74440"
         stroke="none"
         class="dcg-svg-point"
         paint-order="stroke fill markers"
         d="m 710.91517,522.86867 a 3.75,3.75 0 1 1 0,-0.004 z"
         id="path82" />
      <path
         fill="#c74440"
         stroke="none"
         class="dcg-svg-point"
         paint-order="stroke fill markers"
         d="m 712.5059,572.74374 a 3.75,3.75 0 1 1 -10e-6,-0.004 z"
         id="path83" />
      <path
         fill="#c74440"
         stroke="none"
         class="dcg-svg-point"
         paint-order="stroke fill markers"
         d="m 719.97674,546.17512 a 3.75,3.75 0 1 1 0,-0.004 z"
         id="path84" />
      <path
         fill="#c74440"
         stroke="none"
         class="dcg-svg-point"
         paint-order="stroke fill markers"
         d="m 723.73243,759.16808 a 3.75,3.75 0 1 1 0,-0.004 z"
         id="path85" />
      <path
         fill="#c74440"
         stroke="none"
         class="dcg-svg-point"
         paint-order="stroke fill markers"
         d="m 725.36498,786.59262 a 3.75,3.75 0 1 1 0,-0.004 z"
         id="path86" />
      <path
         fill="#c74440"
         stroke="none"
         class="dcg-svg-point"
         paint-order="stroke fill markers"
         d="m 735.41646,415.64939 a 3.75,3.75 0 1 1 0,-0.004 z"
         id="path87" />
      <path
         fill="#c74440"
         stroke="none"
         class="dcg-svg-point"
         paint-order="stroke fill markers"
         d="m 743.73812,805.98787 a 3.75,3.75 0 1 1 0,-0.004 z"
         id="path88" />
      <path
         fill="#c74440"
         stroke="none"
         class="dcg-svg-point"
         paint-order="stroke fill markers"
         d="m 743.83928,213.94052 a 3.75,3.75 0 1 1 0,-0.004 z"
         id="path89" />
      <path
         fill="#c74440"
         stroke="none"
         class="dcg-svg-point"
         paint-order="stroke fill markers"
         d="m 743.97514,585.52283 a 3.75,3.75 0 1 1 0,-0.004 z"
         id="path90" />
      <path
         fill="#c74440"
         stroke="none"
         class="dcg-svg-point"
         paint-order="stroke fill markers"
         d="m 748.52425,408.09803 a 3.75,3.75 0 1 1 -1e-5,-0.004 z"
         id="path91" />
      <path
         fill="#c74440"
         stroke="none"
         class="dcg-svg-point"
         paint-order="stroke fill markers"
         d="m 755.03339,418.23597 a 3.75,3.75 0 1 1 0,-0.004 z"
         id="path92" />
      <path
         fill="#c74440"
         stroke="none"
         class="dcg-svg-point"
         paint-order="stroke fill markers"
         d="m 757.51805,616.92606 a 3.75,3.75 0 1 1 0,-0.004 z"
         id="path93" />
      <path
         fill="#c74440"
         stroke="none"
         class="dcg-svg-point"
         paint-order="stroke fill markers"
         d="m 762.62583,687.1788 a 3.75,3.75 0 1 1 -10e-6,-0.004 z"
         id="path94" />
      <path
         fill="#c74440"
         stroke="none"
         class="dcg-svg-point"
         paint-order="stroke fill markers"
         d="m 768.85353,724.46248 a 3.75,3.75 0 1 1 0,-0.004 z"
         id="path95" />
      <path
         fill="#c74440"
         stroke="none"
         class="dcg-svg-point"
         paint-order="stroke fill markers"
         d="m 779.01882,843.03591 a 3.75,3.75 0 1 1 0,-0.004 z"
         id="path96" />
      <path
         fill="#c74440"
         stroke="none"
         class="dcg-svg-point"
         paint-order="stroke fill markers"
         d="m 789.3819,582.30934 a 3.75,3.75 0 1 1 0,-0.004 z"
         id="path97" />
      <path
         fill="#c74440"
         stroke="none"
         class="dcg-svg-point"
         paint-order="stroke fill markers"
         d="m 794.70724,233.3815 a 3.75,3.75 0 1 1 0,-0.004 z"
         id="path98" />
      <path
         fill="#c74440"
         stroke="none"
         class="dcg-svg-point"
         paint-order="stroke fill markers"
         d="m 815.03685,377.20112 a 3.75,3.75 0 1 1 -10e-6,-0.004 z"
         id="path99" />
      <path
         fill="#c74440"
         stroke="none"
         class="dcg-svg-point"
         paint-order="stroke fill markers"
         d="m 818.80745,325.10493 a 3.75,3.75 0 1 1 0,-0.004 z"
         id="path100" />
      <path
         fill="#c74440"
         stroke="none"
         class="dcg-svg-point"
         paint-order="stroke fill markers"
         d="m 820.6754,140.16269 a 3.75,3.75 0 1 1 0,-0.004 z"
         id="path101" />
    </g>
  </g>
  <path
     style="fill:none;stroke:#002a01;stroke-width:1.58;stroke-dasharray:1.58,1.58;stroke-dashoffset:0;stroke-opacity:1"
     d="M 655.54713,0 V 1422.7432"
     id="path103"
     sodipodi:nodetypes="cc" />
</svg>
